<?xml version="1.0" encoding="UTF-8" standalone="no"?>
<!DOCTYPE svg PUBLIC "-//W3C//DTD SVG 1.1//EN"
 "http://www.w3.org/Graphics/SVG/1.1/DTD/svg11.dtd">
<!-- Generated by graphviz version 2.41.20170704.2329 (20170704.2329)
 -->
<!-- Title: File Pages: 1 -->
<svg width="140pt" height="98pt"
 viewBox="0.00 0.00 139.56 98.00" xmlns="http://www.w3.org/2000/svg" xmlns:xlink="http://www.w3.org/1999/xlink">
<g id="graph0" class="graph" transform="scale(1 1) rotate(0) translate(4 94)">
<title>File</title>
<polygon fill="white" stroke="transparent" points="-4,4 -4,-94 135.5575,-94 135.5575,4 -4,4"/>
<!-- Node1 -->
<g id="node1" class="node">
<title>Node1</title>
<polygon fill="#bfbfbf" stroke="black" points="45.0595,-.5 45.0595,-20.5 77.1655,-20.5 77.1655,-.5 45.0595,-.5"/>
<text text-anchor="middle" x="61.1125" y="-7.5" font-family="Helvetica,sans-Serif" font-size="10.00">File</text>
</g>
<!-- Node2 -->
<g id="node2" class="node">
<title>Node2</title>
<g id="a_node2"><a xlink:href="classRecord.html" target="_top" xlink:title="Record">
<polygon fill="white" stroke="black" points="0,-69.5 0,-89.5 48.225,-89.5 48.225,-69.5 0,-69.5"/>
<text text-anchor="middle" x="24.1125" y="-76.5" font-family="Helvetica,sans-Serif" font-size="10.00">Record</text>
</a>
</g>
</g>
<!-- Node2&#45;&gt;Node1 -->
<g id="edge1" class="edge">
<title>Node2&#45;&gt;Node1</title>
<path fill="none" stroke="#9a32cd" stroke-dasharray="5,2" d="M28.8245,-59.5882C30.8577,-52.8182 33.5921,-45.3609 37.1105,-39 40.8051,-32.3205 46.1933,-25.7434 50.9289,-20.5936"/>
<polygon fill="#9a32cd" stroke="#9a32cd" points="25.4017,-58.8396 26.1949,-69.4047 32.1633,-60.6509 25.4017,-58.8396"/>
<text text-anchor="middle" x="56.1135" y="-42" font-family="Helvetica,sans-Serif" font-size="10.00"> curr_reg</text>
</g>
<!-- Node3 -->
<g id="node3" class="node">
<title>Node3</title>
<g id="a_node3"><a xlink:href="classFileHeader.html" target="_top" xlink:title="FileHeader">
<polygon fill="white" stroke="black" points="66.6675,-69.5 66.6675,-89.5 131.5575,-89.5 131.5575,-69.5 66.6675,-69.5"/>
<text text-anchor="middle" x="99.1125" y="-76.5" font-family="Helvetica,sans-Serif" font-size="10.00">FileHeader</text>
</a>
</g>
</g>
<!-- Node3&#45;&gt;Node1 -->
<g id="edge2" class="edge">
<title>Node3&#45;&gt;Node1</title>
<path fill="none" stroke="#9a32cd" stroke-dasharray="5,2" d="M88.8079,-60.3997C85.1367,-53.6298 80.9591,-45.9651 77.1125,-39 73.7109,-32.8407 69.8507,-25.9616 66.7742,-20.5051"/>
<polygon fill="#9a32cd" stroke="#9a32cd" points="85.8901,-62.3622 93.7265,-69.4926 92.0471,-59.0317 85.8901,-62.3622"/>
<text text-anchor="middle" x="107.282" y="-42" font-family="Helvetica,sans-Serif" font-size="10.00"> fileHeader</text>
</g>
</g>
</svg>
