<?xml version="1.0" encoding="UTF-8" standalone="no"?>
<!DOCTYPE svg PUBLIC "-//W3C//DTD SVG 1.1//EN"
 "http://www.w3.org/Graphics/SVG/1.1/DTD/svg11.dtd">
<!-- Generated by graphviz version 2.41.20170704.2329 (20170704.2329)
 -->
<!-- Title: FileHeader Pages: 1 -->
<svg width="119pt" height="110pt"
 viewBox="0.00 0.00 118.80 110.00" xmlns="http://www.w3.org/2000/svg" xmlns:xlink="http://www.w3.org/1999/xlink">
<g id="graph0" class="graph" transform="scale(1 1) rotate(0) translate(4 106)">
<title>FileHeader</title>
<polygon fill="white" stroke="transparent" points="-4,4 -4,-106 114.801,-106 114.801,4 -4,4"/>
<!-- Node1 -->
<g id="node1" class="node">
<title>Node1</title>
<polygon fill="#bfbfbf" stroke="black" points="0,-.5 0,-20.5 64.89,-20.5 64.89,-.5 0,-.5"/>
<text text-anchor="middle" x="32.445" y="-7.5" font-family="Helvetica,sans-Serif" font-size="10.00">FileHeader</text>
</g>
<!-- Node2 -->
<g id="node2" class="node">
<title>Node2</title>
<g id="a_node2"><a xlink:href="classDate.html" target="_top" xlink:title="Date">
<polygon fill="white" stroke="black" points="13.887,-81.5 13.887,-101.5 51.003,-101.5 51.003,-81.5 13.887,-81.5"/>
<text text-anchor="middle" x="32.445" y="-88.5" font-family="Helvetica,sans-Serif" font-size="10.00">Date</text>
</a>
</g>
</g>
<!-- Node2&#45;&gt;Node1 -->
<g id="edge1" class="edge">
<title>Node2&#45;&gt;Node1</title>
<path fill="none" stroke="#9a32cd" stroke-dasharray="5,2" d="M32.445,-71.1972C32.445,-55.1048 32.445,-33.2944 32.445,-20.6754"/>
<polygon fill="#9a32cd" stroke="#9a32cd" points="28.9451,-71.2413 32.445,-81.2413 35.9451,-71.2413 28.9451,-71.2413"/>
<text text-anchor="middle" x="71.623" y="-54" font-family="Helvetica,sans-Serif" font-size="10.00"> data_criacao</text>
<text text-anchor="middle" x="71.623" y="-42" font-family="Helvetica,sans-Serif" font-size="10.00">data_modificacao</text>
</g>
</g>
</svg>
