<?xml version="1.0" encoding="UTF-8" standalone="no"?>
<!DOCTYPE svg PUBLIC "-//W3C//DTD SVG 1.1//EN"
 "http://www.w3.org/Graphics/SVG/1.1/DTD/svg11.dtd">
<!-- Generated by graphviz version 2.41.20170704.2329 (20170704.2329)
 -->
<!-- Title: File Pages: 1 -->
<svg width="235pt" height="86pt"
 viewBox="0.00 0.00 235.39 86.00" xmlns="http://www.w3.org/2000/svg" xmlns:xlink="http://www.w3.org/1999/xlink">
<g id="graph0" class="graph" transform="scale(1 1) rotate(0) translate(4 82)">
<title>File</title>
<polygon fill="white" stroke="transparent" points="-4,4 -4,-82 231.3945,-82 231.3945,4 -4,4"/>
<!-- Node1 -->
<g id="node1" class="node">
<title>Node1</title>
<polygon fill="#bfbfbf" stroke="black" points="85.6685,-57.5 85.6685,-77.5 117.7745,-77.5 117.7745,-57.5 85.6685,-57.5"/>
<text text-anchor="middle" x="101.7215" y="-64.5" font-family="Helvetica,sans-Serif" font-size="10.00">File</text>
</g>
<!-- Node2 -->
<g id="node2" class="node">
<title>Node2</title>
<g id="a_node2"><a xlink:href="classFileHash.html" target="_top" xlink:title="FileHash">
<polygon fill="white" stroke="black" points="0,-.5 0,-20.5 55.443,-20.5 55.443,-.5 0,-.5"/>
<text text-anchor="middle" x="27.7215" y="-7.5" font-family="Helvetica,sans-Serif" font-size="10.00">FileHash</text>
</a>
</g>
</g>
<!-- Node1&#45;&gt;Node2 -->
<g id="edge1" class="edge">
<title>Node1&#45;&gt;Node2</title>
<path fill="none" stroke="midnightblue" d="M80.2429,-50.9557C67.4959,-41.137 51.7469,-29.006 40.8367,-20.6022"/>
<polygon fill="midnightblue" stroke="midnightblue" points="78.4337,-53.98 88.4918,-57.3095 82.7053,-48.4344 78.4337,-53.98"/>
</g>
<!-- Node3 -->
<g id="node3" class="node">
<title>Node3</title>
<g id="a_node3"><a xlink:href="classFileHeap.html" target="_top" xlink:title="FileHeap">
<polygon fill="white" stroke="black" points="73.7205,-.5 73.7205,-20.5 129.7225,-20.5 129.7225,-.5 73.7205,-.5"/>
<text text-anchor="middle" x="101.7215" y="-7.5" font-family="Helvetica,sans-Serif" font-size="10.00">FileHeap</text>
</a>
</g>
</g>
<!-- Node1&#45;&gt;Node3 -->
<g id="edge2" class="edge">
<title>Node1&#45;&gt;Node3</title>
<path fill="none" stroke="midnightblue" d="M101.7215,-47.1771C101.7215,-38.1625 101.7215,-27.9556 101.7215,-20.6022"/>
<polygon fill="midnightblue" stroke="midnightblue" points="98.2216,-47.3095 101.7215,-57.3095 105.2216,-47.3096 98.2216,-47.3095"/>
</g>
<!-- Node4 -->
<g id="node4" class="node">
<title>Node4</title>
<g id="a_node4"><a xlink:href="classFileSequential.html" target="_top" xlink:title="FileSequential">
<polygon fill="white" stroke="black" points="148.0485,-.5 148.0485,-20.5 227.3945,-20.5 227.3945,-.5 148.0485,-.5"/>
<text text-anchor="middle" x="187.7215" y="-7.5" font-family="Helvetica,sans-Serif" font-size="10.00">FileSequential</text>
</a>
</g>
</g>
<!-- Node1&#45;&gt;Node4 -->
<g id="edge3" class="edge">
<title>Node1&#45;&gt;Node4</title>
<path fill="none" stroke="midnightblue" d="M125.8324,-51.5195C140.7912,-41.605 159.5563,-29.1676 172.4795,-20.6022"/>
<polygon fill="midnightblue" stroke="midnightblue" points="123.4983,-48.8675 117.0966,-57.3095 127.3656,-54.7023 123.4983,-48.8675"/>
</g>
</g>
</svg>
