<?xml version="1.0" encoding="UTF-8" standalone="no"?>
<!DOCTYPE svg PUBLIC "-//W3C//DTD SVG 1.1//EN"
 "http://www.w3.org/Graphics/SVG/1.1/DTD/svg11.dtd">
<!-- Generated by graphviz version 2.41.20170704.2329 (20170704.2329)
 -->
<!-- Title: FileHash Pages: 1 -->
<svg width="140pt" height="156pt"
 viewBox="0.00 0.00 139.56 156.00" xmlns="http://www.w3.org/2000/svg" xmlns:xlink="http://www.w3.org/1999/xlink">
<g id="graph0" class="graph" transform="scale(1 1) rotate(0) translate(4 152)">
<title>FileHash</title>
<polygon fill="white" stroke="transparent" points="-4,4 -4,-152 135.5575,-152 135.5575,4 -4,4"/>
<!-- Node1 -->
<g id="node1" class="node">
<title>Node1</title>
<polygon fill="#bfbfbf" stroke="black" points="33.391,-.5 33.391,-20.5 88.834,-20.5 88.834,-.5 33.391,-.5"/>
<text text-anchor="middle" x="61.1125" y="-7.5" font-family="Helvetica,sans-Serif" font-size="10.00">FileHash</text>
</g>
<!-- Node2 -->
<g id="node2" class="node">
<title>Node2</title>
<g id="a_node2"><a xlink:href="classFile.html" target="_top" xlink:title="File">
<polygon fill="white" stroke="black" points="45.0595,-58.5 45.0595,-78.5 77.1655,-78.5 77.1655,-58.5 45.0595,-58.5"/>
<text text-anchor="middle" x="61.1125" y="-65.5" font-family="Helvetica,sans-Serif" font-size="10.00">File</text>
</a>
</g>
</g>
<!-- Node2&#45;&gt;Node1 -->
<g id="edge1" class="edge">
<title>Node2&#45;&gt;Node1</title>
<path fill="none" stroke="midnightblue" d="M61.1125,-48.3902C61.1125,-39.1201 61.1125,-28.5083 61.1125,-20.8776"/>
<polygon fill="midnightblue" stroke="midnightblue" points="57.6126,-48.3971 61.1125,-58.3972 64.6126,-48.3972 57.6126,-48.3971"/>
</g>
<!-- Node3 -->
<g id="node3" class="node">
<title>Node3</title>
<g id="a_node3"><a xlink:href="classRecord.html" target="_top" xlink:title="Record">
<polygon fill="white" stroke="black" points="0,-127.5 0,-147.5 48.225,-147.5 48.225,-127.5 0,-127.5"/>
<text text-anchor="middle" x="24.1125" y="-134.5" font-family="Helvetica,sans-Serif" font-size="10.00">Record</text>
</a>
</g>
</g>
<!-- Node3&#45;&gt;Node2 -->
<g id="edge2" class="edge">
<title>Node3&#45;&gt;Node2</title>
<path fill="none" stroke="#9a32cd" stroke-dasharray="5,2" d="M28.8245,-117.5882C30.8577,-110.8182 33.5921,-103.3609 37.1105,-97 40.8051,-90.3205 46.1933,-83.7434 50.9289,-78.5936"/>
<polygon fill="#9a32cd" stroke="#9a32cd" points="25.4017,-116.8396 26.1949,-127.4047 32.1633,-118.6509 25.4017,-116.8396"/>
<text text-anchor="middle" x="56.1135" y="-100" font-family="Helvetica,sans-Serif" font-size="10.00"> curr_reg</text>
</g>
<!-- Node4 -->
<g id="node4" class="node">
<title>Node4</title>
<g id="a_node4"><a xlink:href="classFileHeader.html" target="_top" xlink:title="FileHeader">
<polygon fill="white" stroke="black" points="66.6675,-127.5 66.6675,-147.5 131.5575,-147.5 131.5575,-127.5 66.6675,-127.5"/>
<text text-anchor="middle" x="99.1125" y="-134.5" font-family="Helvetica,sans-Serif" font-size="10.00">FileHeader</text>
</a>
</g>
</g>
<!-- Node4&#45;&gt;Node2 -->
<g id="edge3" class="edge">
<title>Node4&#45;&gt;Node2</title>
<path fill="none" stroke="#9a32cd" stroke-dasharray="5,2" d="M88.8079,-118.3997C85.1367,-111.6298 80.9591,-103.9651 77.1125,-97 73.7109,-90.8407 69.8507,-83.9616 66.7742,-78.5051"/>
<polygon fill="#9a32cd" stroke="#9a32cd" points="85.8901,-120.3622 93.7265,-127.4926 92.0471,-117.0317 85.8901,-120.3622"/>
<text text-anchor="middle" x="107.282" y="-100" font-family="Helvetica,sans-Serif" font-size="10.00"> fileHeader</text>
</g>
</g>
</svg>
