<?xml version="1.0" encoding="UTF-8" standalone="no"?>
<!DOCTYPE svg PUBLIC "-//W3C//DTD SVG 1.1//EN"
 "http://www.w3.org/Graphics/SVG/1.1/DTD/svg11.dtd">
<!-- Generated by graphviz version 2.41.20170704.2329 (20170704.2329)
 -->
<!-- Title: File Pages: 1 -->
<svg width="185pt" height="179pt"
 viewBox="0.00 0.00 185.47 179.00" xmlns="http://www.w3.org/2000/svg" xmlns:xlink="http://www.w3.org/1999/xlink">
<g id="graph0" class="graph" transform="scale(1 1) rotate(0) translate(4 175)">
<title>File</title>
<polygon fill="white" stroke="transparent" points="-4,4 -4,-175 181.4685,-175 181.4685,4 -4,4"/>
<!-- Node1 -->
<g id="node1" class="node">
<title>Node1</title>
<polygon fill="#bfbfbf" stroke="black" points="39.0595,-.5 39.0595,-20.5 71.1655,-20.5 71.1655,-.5 39.0595,-.5"/>
<text text-anchor="middle" x="55.1125" y="-7.5" font-family="Helvetica,sans-Serif" font-size="10.00">File</text>
</g>
<!-- Node2 -->
<g id="node2" class="node">
<title>Node2</title>
<g id="a_node2"><a xlink:href="classRecord.html" target="_top" xlink:title="Record">
<polygon fill="white" stroke="black" points="0,-69.5 0,-89.5 48.225,-89.5 48.225,-69.5 0,-69.5"/>
<text text-anchor="middle" x="24.1125" y="-76.5" font-family="Helvetica,sans-Serif" font-size="10.00">Record</text>
</a>
</g>
</g>
<!-- Node2&#45;&gt;Node1 -->
<g id="edge1" class="edge">
<title>Node2&#45;&gt;Node1</title>
<path fill="none" stroke="#9a32cd" stroke-dasharray="5,2" d="M25.5068,-59.1119C26.5107,-52.4727 28.2178,-45.2167 31.1105,-39 34.2762,-32.1966 39.5012,-25.7071 44.2691,-20.6439"/>
<polygon fill="#9a32cd" stroke="#9a32cd" points="21.9886,-59.0928 24.3958,-69.4105 28.9482,-59.8436 21.9886,-59.0928"/>
<text text-anchor="middle" x="51.1135" y="-42" font-family="Helvetica,sans-Serif" font-size="10.00"> curr_reg</text>
</g>
<!-- Node3 -->
<g id="node3" class="node">
<title>Node3</title>
<g id="a_node3"><a xlink:href="classFileHeader.html" target="_top" xlink:title="FileHeader">
<polygon fill="white" stroke="black" points="66.6675,-69.5 66.6675,-89.5 131.5575,-89.5 131.5575,-69.5 66.6675,-69.5"/>
<text text-anchor="middle" x="99.1125" y="-76.5" font-family="Helvetica,sans-Serif" font-size="10.00">FileHeader</text>
</a>
</g>
</g>
<!-- Node3&#45;&gt;Node1 -->
<g id="edge2" class="edge">
<title>Node3&#45;&gt;Node1</title>
<path fill="none" stroke="#9a32cd" stroke-dasharray="5,2" d="M87.1465,-60.7352C78.9296,-47.8495 68.3359,-31.2368 61.6315,-20.723"/>
<polygon fill="#9a32cd" stroke="#9a32cd" points="84.2924,-62.7691 92.6201,-69.3188 90.1945,-59.0054 84.2924,-62.7691"/>
<text text-anchor="middle" x="104.282" y="-42" font-family="Helvetica,sans-Serif" font-size="10.00"> fileHeader</text>
</g>
<!-- Node4 -->
<g id="node4" class="node">
<title>Node4</title>
<g id="a_node4"><a xlink:href="classDate.html" target="_top" xlink:title="Date">
<polygon fill="white" stroke="black" points="80.5545,-150.5 80.5545,-170.5 117.6705,-170.5 117.6705,-150.5 80.5545,-150.5"/>
<text text-anchor="middle" x="99.1125" y="-157.5" font-family="Helvetica,sans-Serif" font-size="10.00">Date</text>
</a>
</g>
</g>
<!-- Node4&#45;&gt;Node3 -->
<g id="edge3" class="edge">
<title>Node4&#45;&gt;Node3</title>
<path fill="none" stroke="#9a32cd" stroke-dasharray="5,2" d="M99.1125,-140.1972C99.1125,-124.1048 99.1125,-102.2944 99.1125,-89.6754"/>
<polygon fill="#9a32cd" stroke="#9a32cd" points="95.6126,-140.2413 99.1125,-150.2413 102.6126,-140.2413 95.6126,-140.2413"/>
<text text-anchor="middle" x="138.2905" y="-123" font-family="Helvetica,sans-Serif" font-size="10.00"> data_criacao</text>
<text text-anchor="middle" x="138.2905" y="-111" font-family="Helvetica,sans-Serif" font-size="10.00">data_modificacao</text>
</g>
</g>
</svg>
