<?xml version="1.0" encoding="UTF-8" standalone="no"?>
<!DOCTYPE svg PUBLIC "-//W3C//DTD SVG 1.1//EN"
 "http://www.w3.org/Graphics/SVG/1.1/DTD/svg11.dtd">
<!-- Generated by graphviz version 2.41.20170704.2329 (20170704.2329)
 -->
<!-- Title: FileHeap Pages: 1 -->
<svg width="185pt" height="237pt"
 viewBox="0.00 0.00 185.47 237.00" xmlns="http://www.w3.org/2000/svg" xmlns:xlink="http://www.w3.org/1999/xlink">
<g id="graph0" class="graph" transform="scale(1 1) rotate(0) translate(4 233)">
<title>FileHeap</title>
<polygon fill="white" stroke="transparent" points="-4,4 -4,-233 181.4685,-233 181.4685,4 -4,4"/>
<!-- Node1 -->
<g id="node1" class="node">
<title>Node1</title>
<polygon fill="#bfbfbf" stroke="black" points="27.1115,-.5 27.1115,-20.5 83.1135,-20.5 83.1135,-.5 27.1115,-.5"/>
<text text-anchor="middle" x="55.1125" y="-7.5" font-family="Helvetica,sans-Serif" font-size="10.00">FileHeap</text>
</g>
<!-- Node2 -->
<g id="node2" class="node">
<title>Node2</title>
<g id="a_node2"><a xlink:href="classFile.html" target="_top" xlink:title="File">
<polygon fill="white" stroke="black" points="39.0595,-58.5 39.0595,-78.5 71.1655,-78.5 71.1655,-58.5 39.0595,-58.5"/>
<text text-anchor="middle" x="55.1125" y="-65.5" font-family="Helvetica,sans-Serif" font-size="10.00">File</text>
</a>
</g>
</g>
<!-- Node2&#45;&gt;Node1 -->
<g id="edge1" class="edge">
<title>Node2&#45;&gt;Node1</title>
<path fill="none" stroke="midnightblue" d="M55.1125,-48.3902C55.1125,-39.1201 55.1125,-28.5083 55.1125,-20.8776"/>
<polygon fill="midnightblue" stroke="midnightblue" points="51.6126,-48.3971 55.1125,-58.3972 58.6126,-48.3972 51.6126,-48.3971"/>
</g>
<!-- Node3 -->
<g id="node3" class="node">
<title>Node3</title>
<g id="a_node3"><a xlink:href="classRecord.html" target="_top" xlink:title="Record">
<polygon fill="white" stroke="black" points="0,-127.5 0,-147.5 48.225,-147.5 48.225,-127.5 0,-127.5"/>
<text text-anchor="middle" x="24.1125" y="-134.5" font-family="Helvetica,sans-Serif" font-size="10.00">Record</text>
</a>
</g>
</g>
<!-- Node3&#45;&gt;Node2 -->
<g id="edge2" class="edge">
<title>Node3&#45;&gt;Node2</title>
<path fill="none" stroke="#9a32cd" stroke-dasharray="5,2" d="M25.5068,-117.1119C26.5107,-110.4727 28.2178,-103.2167 31.1105,-97 34.2762,-90.1966 39.5012,-83.7071 44.2691,-78.6439"/>
<polygon fill="#9a32cd" stroke="#9a32cd" points="21.9886,-117.0928 24.3958,-127.4105 28.9482,-117.8436 21.9886,-117.0928"/>
<text text-anchor="middle" x="51.1135" y="-100" font-family="Helvetica,sans-Serif" font-size="10.00"> curr_reg</text>
</g>
<!-- Node4 -->
<g id="node4" class="node">
<title>Node4</title>
<g id="a_node4"><a xlink:href="classFileHeader.html" target="_top" xlink:title="FileHeader">
<polygon fill="white" stroke="black" points="66.6675,-127.5 66.6675,-147.5 131.5575,-147.5 131.5575,-127.5 66.6675,-127.5"/>
<text text-anchor="middle" x="99.1125" y="-134.5" font-family="Helvetica,sans-Serif" font-size="10.00">FileHeader</text>
</a>
</g>
</g>
<!-- Node4&#45;&gt;Node2 -->
<g id="edge3" class="edge">
<title>Node4&#45;&gt;Node2</title>
<path fill="none" stroke="#9a32cd" stroke-dasharray="5,2" d="M87.1465,-118.7352C78.9296,-105.8495 68.3359,-89.2368 61.6315,-78.723"/>
<polygon fill="#9a32cd" stroke="#9a32cd" points="84.2924,-120.7691 92.6201,-127.3188 90.1945,-117.0054 84.2924,-120.7691"/>
<text text-anchor="middle" x="104.282" y="-100" font-family="Helvetica,sans-Serif" font-size="10.00"> fileHeader</text>
</g>
<!-- Node5 -->
<g id="node5" class="node">
<title>Node5</title>
<g id="a_node5"><a xlink:href="classDate.html" target="_top" xlink:title="Date">
<polygon fill="white" stroke="black" points="80.5545,-208.5 80.5545,-228.5 117.6705,-228.5 117.6705,-208.5 80.5545,-208.5"/>
<text text-anchor="middle" x="99.1125" y="-215.5" font-family="Helvetica,sans-Serif" font-size="10.00">Date</text>
</a>
</g>
</g>
<!-- Node5&#45;&gt;Node4 -->
<g id="edge4" class="edge">
<title>Node5&#45;&gt;Node4</title>
<path fill="none" stroke="#9a32cd" stroke-dasharray="5,2" d="M99.1125,-198.1972C99.1125,-182.1048 99.1125,-160.2944 99.1125,-147.6754"/>
<polygon fill="#9a32cd" stroke="#9a32cd" points="95.6126,-198.2413 99.1125,-208.2413 102.6126,-198.2413 95.6126,-198.2413"/>
<text text-anchor="middle" x="138.2905" y="-181" font-family="Helvetica,sans-Serif" font-size="10.00"> data_criacao</text>
<text text-anchor="middle" x="138.2905" y="-169" font-family="Helvetica,sans-Serif" font-size="10.00">data_modificacao</text>
</g>
</g>
</svg>
