<?xml version="1.0" encoding="UTF-8" standalone="no"?>
<!DOCTYPE svg PUBLIC "-//W3C//DTD SVG 1.1//EN"
 "http://www.w3.org/Graphics/SVG/1.1/DTD/svg11.dtd">
<!-- Generated by graphviz version 2.41.20170704.2329 (20170704.2329)
 -->
<!-- Title: include/Field.h Pages: 1 -->
<svg width="475pt" height="200pt"
 viewBox="0.00 0.00 474.78 200.00" xmlns="http://www.w3.org/2000/svg" xmlns:xlink="http://www.w3.org/1999/xlink">
<g id="graph0" class="graph" transform="scale(1 1) rotate(0) translate(4 196)">
<title>include/Field.h</title>
<polygon fill="white" stroke="transparent" points="-4,4 -4,-196 470.7795,-196 470.7795,4 -4,4"/>
<!-- Node1 -->
<g id="node1" class="node">
<title>Node1</title>
<polygon fill="#bfbfbf" stroke="black" points="261.996,-171.5 261.996,-191.5 342.452,-191.5 342.452,-171.5 261.996,-171.5"/>
<text text-anchor="middle" x="302.224" y="-178.5" font-family="Helvetica,sans-Serif" font-size="10.00">include/Field.h</text>
</g>
<!-- Node2 -->
<g id="node2" class="node">
<title>Node2</title>
<g id="a_node2"><a xlink:href="File_8h.html" target="_top" xlink:title="Arquivo de declaração da classe File. ">
<polygon fill="white" stroke="black" points="218.7755,-114.5 218.7755,-134.5 293.6725,-134.5 293.6725,-114.5 218.7755,-114.5"/>
<text text-anchor="middle" x="256.224" y="-121.5" font-family="Helvetica,sans-Serif" font-size="10.00">include/File.h</text>
</a>
</g>
</g>
<!-- Node1&#45;&gt;Node2 -->
<g id="edge1" class="edge">
<title>Node1&#45;&gt;Node2</title>
<path fill="none" stroke="midnightblue" d="M287.7172,-163.5242C280.0142,-153.9792 270.8326,-142.602 264.3767,-134.6022"/>
<polygon fill="midnightblue" stroke="midnightblue" points="284.9962,-165.7256 294.0001,-171.3095 290.4436,-161.3295 284.9962,-165.7256"/>
</g>
<!-- Node11 -->
<g id="node11" class="node">
<title>Node11</title>
<g id="a_node11"><a xlink:href="Field_8cpp.html" target="_top" xlink:title="Arquivo de implementação da classe Field. ">
<polygon fill="white" stroke="black" points="311.889,-114.5 311.889,-134.5 384.559,-134.5 384.559,-114.5 311.889,-114.5"/>
<text text-anchor="middle" x="348.224" y="-121.5" font-family="Helvetica,sans-Serif" font-size="10.00">src/Field.cpp</text>
</a>
</g>
</g>
<!-- Node1&#45;&gt;Node11 -->
<g id="edge12" class="edge">
<title>Node1&#45;&gt;Node11</title>
<path fill="none" stroke="midnightblue" d="M316.7308,-163.5242C324.4338,-153.9792 333.6154,-142.602 340.0713,-134.6022"/>
<polygon fill="midnightblue" stroke="midnightblue" points="314.0044,-161.3295 310.4479,-171.3095 319.4518,-165.7256 314.0044,-161.3295"/>
</g>
<!-- Node3 -->
<g id="node3" class="node">
<title>Node3</title>
<g id="a_node3"><a xlink:href="FileHash_8h.html" target="_top" xlink:title="Arquivo de declaração da classe FileHash. ">
<polygon fill="white" stroke="black" points="26.107,-57.5 26.107,-77.5 124.341,-77.5 124.341,-57.5 26.107,-57.5"/>
<text text-anchor="middle" x="75.224" y="-64.5" font-family="Helvetica,sans-Serif" font-size="10.00">include/FileHash.h</text>
</a>
</g>
</g>
<!-- Node2&#45;&gt;Node3 -->
<g id="edge2" class="edge">
<title>Node2&#45;&gt;Node3</title>
<path fill="none" stroke="midnightblue" d="M214.5554,-111.3778C181.8637,-101.0827 137.0371,-86.966 107.1511,-77.5544"/>
<polygon fill="midnightblue" stroke="midnightblue" points="213.6919,-114.7753 224.2815,-114.4408 215.7946,-108.0986 213.6919,-114.7753"/>
</g>
<!-- Node6 -->
<g id="node6" class="node">
<title>Node6</title>
<g id="a_node6"><a xlink:href="FileHeap_8h.html" target="_top" xlink:title="Arquivo de declaração da classe FileHeap. ">
<polygon fill="white" stroke="black" points="142.8275,-57.5 142.8275,-77.5 241.6205,-77.5 241.6205,-57.5 142.8275,-57.5"/>
<text text-anchor="middle" x="192.224" y="-64.5" font-family="Helvetica,sans-Serif" font-size="10.00">include/FileHeap.h</text>
</a>
</g>
</g>
<!-- Node2&#45;&gt;Node6 -->
<g id="edge5" class="edge">
<title>Node2&#45;&gt;Node6</title>
<path fill="none" stroke="midnightblue" d="M237.0091,-107.3867C226.1011,-97.6718 212.8212,-85.8444 203.5669,-77.6022"/>
<polygon fill="midnightblue" stroke="midnightblue" points="234.9866,-110.2723 244.7821,-114.3095 239.6422,-105.0449 234.9866,-110.2723"/>
</g>
<!-- Node8 -->
<g id="node8" class="node">
<title>Node8</title>
<g id="a_node8"><a xlink:href="FileSequential_8h.html" target="_top" xlink:title="Arquivo de declaração da classe FileSequential. ">
<polygon fill="white" stroke="black" points="259.1555,-57.5 259.1555,-77.5 381.2925,-77.5 381.2925,-57.5 259.1555,-57.5"/>
<text text-anchor="middle" x="320.224" y="-64.5" font-family="Helvetica,sans-Serif" font-size="10.00">include/FileSequential.h</text>
</a>
</g>
</g>
<!-- Node2&#45;&gt;Node8 -->
<g id="edge8" class="edge">
<title>Node2&#45;&gt;Node8</title>
<path fill="none" stroke="midnightblue" d="M275.4389,-107.3867C286.3469,-97.6718 299.6268,-85.8444 308.8811,-77.6022"/>
<polygon fill="midnightblue" stroke="midnightblue" points="272.8058,-105.0449 267.6659,-114.3095 277.4614,-110.2723 272.8058,-105.0449"/>
</g>
<!-- Node10 -->
<g id="node10" class="node">
<title>Node10</title>
<g id="a_node10"><a xlink:href="File_8cpp.html" target="_top" xlink:title="Arquivo de implementação da classe File. ">
<polygon fill="white" stroke="black" points="399.6685,-57.5 399.6685,-77.5 466.7795,-77.5 466.7795,-57.5 399.6685,-57.5"/>
<text text-anchor="middle" x="433.224" y="-64.5" font-family="Helvetica,sans-Serif" font-size="10.00">src/File.cpp</text>
</a>
</g>
</g>
<!-- Node2&#45;&gt;Node10 -->
<g id="edge11" class="edge">
<title>Node2&#45;&gt;Node10</title>
<path fill="none" stroke="midnightblue" d="M297.3858,-111.2445C329.3186,-100.9611 372.9029,-86.9255 402.0025,-77.5544"/>
<polygon fill="midnightblue" stroke="midnightblue" points="295.9063,-108.0439 287.4606,-114.4408 298.0521,-114.7069 295.9063,-108.0439"/>
</g>
<!-- Node4 -->
<g id="node4" class="node">
<title>Node4</title>
<g id="a_node4"><a xlink:href="FileHash_8cpp.html" target="_top" xlink:title="Arquivo de implementação da classe FileHash. ">
<polygon fill="white" stroke="black" points="0,-.5 0,-20.5 90.448,-20.5 90.448,-.5 0,-.5"/>
<text text-anchor="middle" x="45.224" y="-7.5" font-family="Helvetica,sans-Serif" font-size="10.00">src/FileHash.cpp</text>
</a>
</g>
</g>
<!-- Node3&#45;&gt;Node4 -->
<g id="edge3" class="edge">
<title>Node3&#45;&gt;Node4</title>
<path fill="none" stroke="midnightblue" d="M65.1496,-48.3586C60.2584,-39.0653 54.5813,-28.2788 50.541,-20.6022"/>
<polygon fill="midnightblue" stroke="midnightblue" points="62.1059,-50.0905 69.8606,-57.3095 68.3003,-46.8302 62.1059,-50.0905"/>
</g>
<!-- Node5 -->
<g id="node5" class="node">
<title>Node5</title>
<g id="a_node5"><a xlink:href="main_8cpp.html" target="_top" xlink:title="main.cpp">
<polygon fill="white" stroke="black" points="108.9425,-.5 108.9425,-20.5 165.5055,-20.5 165.5055,-.5 108.9425,-.5"/>
<text text-anchor="middle" x="137.224" y="-7.5" font-family="Helvetica,sans-Serif" font-size="10.00">main.cpp</text>
</a>
</g>
</g>
<!-- Node3&#45;&gt;Node5 -->
<g id="edge4" class="edge">
<title>Node3&#45;&gt;Node5</title>
<path fill="none" stroke="midnightblue" d="M93.8385,-50.3867C104.4055,-40.6718 117.2704,-28.8444 126.2356,-20.6022"/>
<polygon fill="midnightblue" stroke="midnightblue" points="91.3013,-47.9649 86.3084,-57.3095 96.0389,-53.1181 91.3013,-47.9649"/>
</g>
<!-- Node6&#45;&gt;Node5 -->
<g id="edge7" class="edge">
<title>Node6&#45;&gt;Node5</title>
<path fill="none" stroke="midnightblue" d="M175.4349,-50.1004C166.1137,-40.4403 154.8468,-28.7636 146.9718,-20.6022"/>
<polygon fill="midnightblue" stroke="midnightblue" points="172.9287,-52.5436 182.3911,-57.3095 177.9661,-47.683 172.9287,-52.5436"/>
</g>
<!-- Node7 -->
<g id="node7" class="node">
<title>Node7</title>
<g id="a_node7"><a xlink:href="FileHeap_8cpp.html" target="_top" xlink:title="Arquivo de implementação da classe FileHeap. ">
<polygon fill="white" stroke="black" points="183.7205,-.5 183.7205,-20.5 274.7275,-20.5 274.7275,-.5 183.7205,-.5"/>
<text text-anchor="middle" x="229.224" y="-7.5" font-family="Helvetica,sans-Serif" font-size="10.00">src/FileHeap.cpp</text>
</a>
</g>
</g>
<!-- Node6&#45;&gt;Node7 -->
<g id="edge6" class="edge">
<title>Node6&#45;&gt;Node7</title>
<path fill="none" stroke="midnightblue" d="M204.459,-48.6515C210.534,-39.2928 217.6309,-28.3596 222.6664,-20.6022"/>
<polygon fill="midnightblue" stroke="midnightblue" points="201.3479,-47.0161 198.8389,-57.3095 207.2193,-50.8274 201.3479,-47.0161"/>
</g>
<!-- Node8&#45;&gt;Node5 -->
<g id="edge10" class="edge">
<title>Node8&#45;&gt;Node5</title>
<path fill="none" stroke="midnightblue" d="M278.1291,-54.3885C243.6148,-43.6381 195.7054,-28.7155 165.5935,-19.3364"/>
<polygon fill="midnightblue" stroke="midnightblue" points="277.3401,-57.8085 287.9285,-57.4408 279.4218,-51.1252 277.3401,-57.8085"/>
</g>
<!-- Node9 -->
<g id="node9" class="node">
<title>Node9</title>
<g id="a_node9"><a xlink:href="FileSequential_8cpp.html" target="_top" xlink:title="Arquivo de implementação da classe FileSequential. ">
<polygon fill="white" stroke="black" points="293.0485,-.5 293.0485,-20.5 407.3995,-20.5 407.3995,-.5 293.0485,-.5"/>
<text text-anchor="middle" x="350.224" y="-7.5" font-family="Helvetica,sans-Serif" font-size="10.00">src/FileSequential.cpp</text>
</a>
</g>
</g>
<!-- Node8&#45;&gt;Node9 -->
<g id="edge9" class="edge">
<title>Node8&#45;&gt;Node9</title>
<path fill="none" stroke="midnightblue" d="M330.2984,-48.3586C335.1896,-39.0653 340.8667,-28.2788 344.907,-20.6022"/>
<polygon fill="midnightblue" stroke="midnightblue" points="327.1477,-46.8302 325.5874,-57.3095 333.3421,-50.0905 327.1477,-46.8302"/>
</g>
</g>
</svg>
