<?xml version="1.0" encoding="UTF-8" standalone="no"?>
<!DOCTYPE svg PUBLIC "-//W3C//DTD SVG 1.1//EN"
 "http://www.w3.org/Graphics/SVG/1.1/DTD/svg11.dtd">
<!-- Generated by graphviz version 2.41.20170704.2329 (20170704.2329)
 -->
<!-- Title: class/FileHash.cpp Pages: 1 -->
<svg width="291pt" height="257pt"
 viewBox="0.00 0.00 290.89 257.00" xmlns="http://www.w3.org/2000/svg" xmlns:xlink="http://www.w3.org/1999/xlink">
<g id="graph0" class="graph" transform="scale(1 1) rotate(0) translate(4 253)">
<title>class/FileHash.cpp</title>
<polygon fill="white" stroke="transparent" points="-4,4 -4,-253 286.8895,-253 286.8895,4 -4,4"/>
<!-- Node1 -->
<g id="node1" class="node">
<title>Node1</title>
<polygon fill="#bfbfbf" stroke="black" points="164.274,-228.5 164.274,-248.5 264.171,-248.5 264.171,-228.5 164.274,-228.5"/>
<text text-anchor="middle" x="214.2225" y="-235.5" font-family="Helvetica,sans-Serif" font-size="10.00">class/FileHash.cpp</text>
</g>
<!-- Node2 -->
<g id="node2" class="node">
<title>Node2</title>
<g id="a_node2"><a xlink:href="FileHash_8h.html" target="_top" xlink:title="Arquivo de declaração da classe FileHash. ">
<polygon fill="white" stroke="black" points="182.332,-171.5 182.332,-191.5 246.113,-191.5 246.113,-171.5 182.332,-171.5"/>
<text text-anchor="middle" x="214.2225" y="-178.5" font-family="Helvetica,sans-Serif" font-size="10.00">FileHash.h</text>
</a>
</g>
</g>
<!-- Node1&#45;&gt;Node2 -->
<g id="edge1" class="edge">
<title>Node1&#45;&gt;Node2</title>
<path fill="none" stroke="midnightblue" d="M214.2225,-228.3095C214.2225,-220.9335 214.2225,-210.72 214.2225,-201.715"/>
<polygon fill="midnightblue" stroke="midnightblue" points="217.7226,-201.6022 214.2225,-191.6022 210.7226,-201.6023 217.7226,-201.6022"/>
</g>
<!-- Node3 -->
<g id="node3" class="node">
<title>Node3</title>
<g id="a_node3"><a xlink:href="File_8h.html" target="_top" xlink:title="Arquivo de declaração da classe File. ">
<polygon fill="white" stroke="black" points="147.0005,-114.5 147.0005,-134.5 187.4445,-134.5 187.4445,-114.5 147.0005,-114.5"/>
<text text-anchor="middle" x="167.2225" y="-121.5" font-family="Helvetica,sans-Serif" font-size="10.00">File.h</text>
</a>
</g>
</g>
<!-- Node2&#45;&gt;Node3 -->
<g id="edge2" class="edge">
<title>Node2&#45;&gt;Node3</title>
<path fill="none" stroke="midnightblue" d="M205.8198,-171.3095C199.2032,-163.2851 189.8173,-151.9022 181.9581,-142.3708"/>
<polygon fill="midnightblue" stroke="midnightblue" points="184.6147,-140.091 175.5524,-134.6022 179.2139,-144.5443 184.6147,-140.091"/>
</g>
<!-- Node4 -->
<g id="node4" class="node">
<title>Node4</title>
<polygon fill="white" stroke="#bfbfbf" points="233.5555,-.5 233.5555,-20.5 282.8895,-20.5 282.8895,-.5 233.5555,-.5"/>
<text text-anchor="middle" x="258.2225" y="-7.5" font-family="Helvetica,sans-Serif" font-size="10.00">fstream</text>
</g>
<!-- Node2&#45;&gt;Node4 -->
<g id="edge10" class="edge">
<title>Node2&#45;&gt;Node4</title>
<path fill="none" stroke="midnightblue" d="M220.1726,-171.3731C230.3837,-153.3409 250.8555,-114.1596 258.2225,-78 261.4027,-62.3905 261.2055,-44.3257 260.321,-30.8145"/>
<polygon fill="midnightblue" stroke="midnightblue" points="263.7957,-30.3639 259.4755,-20.69 256.82,-30.9466 263.7957,-30.3639"/>
</g>
<!-- Node3&#45;&gt;Node4 -->
<g id="edge3" class="edge">
<title>Node3&#45;&gt;Node4</title>
<path fill="none" stroke="midnightblue" d="M187.5418,-116.2693C203.8248,-108.664 226.0553,-95.8383 239.2225,-78 249.3772,-64.2429 254.1085,-45.2631 256.3107,-30.9324"/>
<polygon fill="midnightblue" stroke="midnightblue" points="259.8316,-30.9798 257.5899,-20.6248 252.8849,-30.1176 259.8316,-30.9798"/>
</g>
<!-- Node5 -->
<g id="node5" class="node">
<title>Node5</title>
<polygon fill="white" stroke="#bfbfbf" points="0,-.5 0,-20.5 40.445,-20.5 40.445,-.5 0,-.5"/>
<text text-anchor="middle" x="20.2225" y="-7.5" font-family="Helvetica,sans-Serif" font-size="10.00">string</text>
</g>
<!-- Node3&#45;&gt;Node5 -->
<g id="edge4" class="edge">
<title>Node3&#45;&gt;Node5</title>
<path fill="none" stroke="midnightblue" d="M146.7561,-121.6536C107.3296,-115.7065 23.2285,-100.6127 6.2225,-78 -4.181,-64.1665 1.6384,-44.42 8.6712,-29.8566"/>
<polygon fill="midnightblue" stroke="midnightblue" points="11.918,-31.2072 13.5494,-20.7387 5.7458,-27.905 11.918,-31.2072"/>
</g>
<!-- Node6 -->
<g id="node6" class="node">
<title>Node6</title>
<g id="a_node6"><a xlink:href="FileHeader_8h.html" target="_top" xlink:title="Arquivo de declaração da classe FileHeader. ">
<polygon fill="white" stroke="black" points="15.6085,-57.5 15.6085,-77.5 88.8365,-77.5 88.8365,-57.5 15.6085,-57.5"/>
<text text-anchor="middle" x="52.2225" y="-64.5" font-family="Helvetica,sans-Serif" font-size="10.00">FileHeader.h</text>
</a>
</g>
</g>
<!-- Node3&#45;&gt;Node6 -->
<g id="edge5" class="edge">
<title>Node3&#45;&gt;Node6</title>
<path fill="none" stroke="midnightblue" d="M146.9275,-114.4408C128.892,-105.5014 102.2983,-92.3202 81.8795,-82.1996"/>
<polygon fill="midnightblue" stroke="midnightblue" points="83.2156,-78.9555 72.7014,-77.6504 80.1069,-85.2273 83.2156,-78.9555"/>
</g>
<!-- Node7 -->
<g id="node7" class="node">
<title>Node7</title>
<g id="a_node7"><a xlink:href="Block_8h.html" target="_top" xlink:title="Arquivo de declaração da classe Block. ">
<polygon fill="white" stroke="black" points="106.83,-57.5 106.83,-77.5 155.615,-77.5 155.615,-57.5 106.83,-57.5"/>
<text text-anchor="middle" x="131.2225" y="-64.5" font-family="Helvetica,sans-Serif" font-size="10.00">Block.h</text>
</a>
</g>
</g>
<!-- Node3&#45;&gt;Node7 -->
<g id="edge8" class="edge">
<title>Node3&#45;&gt;Node7</title>
<path fill="none" stroke="midnightblue" d="M160.7864,-114.3095C155.8719,-106.5282 148.9629,-95.589 143.0597,-86.2423"/>
<polygon fill="midnightblue" stroke="midnightblue" points="145.9021,-84.1881 137.6029,-77.6022 139.9836,-87.9261 145.9021,-84.1881"/>
</g>
<!-- Node8 -->
<g id="node8" class="node">
<title>Node8</title>
<g id="a_node8"><a xlink:href="Record_8h.html" target="_top" xlink:title="Arquivo de declaração da classe Record. ">
<polygon fill="white" stroke="black" points="173.941,-57.5 173.941,-77.5 230.504,-77.5 230.504,-57.5 173.941,-57.5"/>
<text text-anchor="middle" x="202.2225" y="-64.5" font-family="Helvetica,sans-Serif" font-size="10.00">Record.h</text>
</a>
</g>
</g>
<!-- Node3&#45;&gt;Node8 -->
<g id="edge9" class="edge">
<title>Node3&#45;&gt;Node8</title>
<path fill="none" stroke="midnightblue" d="M173.4798,-114.3095C178.2578,-106.5282 184.9748,-95.589 190.7141,-86.2423"/>
<polygon fill="midnightblue" stroke="midnightblue" points="193.7693,-87.9554 196.0194,-77.6022 187.8041,-84.2925 193.7693,-87.9554"/>
</g>
<!-- Node6&#45;&gt;Node4 -->
<g id="edge6" class="edge">
<title>Node6&#45;&gt;Node4</title>
<path fill="none" stroke="midnightblue" d="M88.577,-57.4408C126.6909,-46.8947 186.1413,-30.4448 223.595,-20.0814"/>
<polygon fill="midnightblue" stroke="midnightblue" points="224.8351,-23.3698 233.5396,-17.3297 222.9683,-16.6233 224.8351,-23.3698"/>
</g>
<!-- Node6&#45;&gt;Node5 -->
<g id="edge7" class="edge">
<title>Node6&#45;&gt;Node5</title>
<path fill="none" stroke="midnightblue" d="M46.5015,-57.3095C42.1786,-49.6093 36.1195,-38.8166 30.9087,-29.5349"/>
<polygon fill="midnightblue" stroke="midnightblue" points="33.8413,-27.6087 25.8939,-20.6022 27.7374,-31.0355 33.8413,-27.6087"/>
</g>
</g>
</svg>
