<?xml version="1.0" encoding="UTF-8" standalone="no"?>
<!DOCTYPE svg PUBLIC "-//W3C//DTD SVG 1.1//EN"
 "http://www.w3.org/Graphics/SVG/1.1/DTD/svg11.dtd">
<!-- Generated by graphviz version 2.41.20170704.2329 (20170704.2329)
 -->
<!-- Title: class/FileHeader.h Pages: 1 -->
<svg width="479pt" height="200pt"
 viewBox="0.00 0.00 479.23 200.00" xmlns="http://www.w3.org/2000/svg" xmlns:xlink="http://www.w3.org/1999/xlink">
<g id="graph0" class="graph" transform="scale(1 1) rotate(0) translate(4 196)">
<title>class/FileHeader.h</title>
<polygon fill="white" stroke="transparent" points="-4,4 -4,-196 475.2285,-196 475.2285,4 -4,4"/>
<!-- Node1 -->
<g id="node1" class="node">
<title>Node1</title>
<polygon fill="#bfbfbf" stroke="black" points="263.556,-171.5 263.556,-191.5 362.341,-191.5 362.341,-171.5 263.556,-171.5"/>
<text text-anchor="middle" x="312.9485" y="-178.5" font-family="Helvetica,sans-Serif" font-size="10.00">class/FileHeader.h</text>
</g>
<!-- Node2 -->
<g id="node2" class="node">
<title>Node2</title>
<g id="a_node2"><a xlink:href="File_8h.html" target="_top" xlink:title="Arquivo de declaração da classe File. ">
<polygon fill="white" stroke="black" points="226.948,-114.5 226.948,-134.5 292.949,-134.5 292.949,-114.5 226.948,-114.5"/>
<text text-anchor="middle" x="259.9485" y="-121.5" font-family="Helvetica,sans-Serif" font-size="10.00">class/File.h</text>
</a>
</g>
</g>
<!-- Node1&#45;&gt;Node2 -->
<g id="edge1" class="edge">
<title>Node1&#45;&gt;Node2</title>
<path fill="none" stroke="midnightblue" d="M296.5025,-163.8128C287.573,-154.2094 276.8553,-142.6828 269.3418,-134.6022"/>
<polygon fill="midnightblue" stroke="midnightblue" points="294.1005,-166.3695 303.4732,-171.3095 299.2269,-161.6028 294.1005,-166.3695"/>
</g>
<!-- Node11 -->
<g id="node11" class="node">
<title>Node11</title>
<g id="a_node11"><a xlink:href="FileHeader_8cpp.html" target="_top" xlink:title="Arquivo de implementação da classe FileHeader. ">
<polygon fill="white" stroke="black" points="311.2765,-114.5 311.2765,-134.5 420.6205,-134.5 420.6205,-114.5 311.2765,-114.5"/>
<text text-anchor="middle" x="365.9485" y="-121.5" font-family="Helvetica,sans-Serif" font-size="10.00">class/FileHeader.cpp</text>
</a>
</g>
</g>
<!-- Node1&#45;&gt;Node11 -->
<g id="edge12" class="edge">
<title>Node1&#45;&gt;Node11</title>
<path fill="none" stroke="midnightblue" d="M329.3945,-163.8128C338.324,-154.2094 349.0417,-142.6828 356.5552,-134.6022"/>
<polygon fill="midnightblue" stroke="midnightblue" points="326.6701,-161.6028 322.4238,-171.3095 331.7965,-166.3695 326.6701,-161.6028"/>
</g>
<!-- Node3 -->
<g id="node3" class="node">
<title>Node3</title>
<g id="a_node3"><a xlink:href="FileSequential_8h.html" target="_top" xlink:title="Arquivo de declaração da classe FileSequential. ">
<polygon fill="white" stroke="black" points="263.328,-57.5 263.328,-77.5 376.569,-77.5 376.569,-57.5 263.328,-57.5"/>
<text text-anchor="middle" x="319.9485" y="-64.5" font-family="Helvetica,sans-Serif" font-size="10.00">class/FileSequential.h</text>
</a>
</g>
</g>
<!-- Node2&#45;&gt;Node3 -->
<g id="edge2" class="edge">
<title>Node2&#45;&gt;Node3</title>
<path fill="none" stroke="midnightblue" d="M277.9625,-107.3867C288.1887,-97.6718 300.6386,-85.8444 309.3146,-77.6022"/>
<polygon fill="midnightblue" stroke="midnightblue" points="275.5147,-104.8845 270.6753,-114.3095 280.336,-109.9595 275.5147,-104.8845"/>
</g>
<!-- Node6 -->
<g id="node6" class="node">
<title>Node6</title>
<g id="a_node6"><a xlink:href="FileHash_8h.html" target="_top" xlink:title="Arquivo de declaração da classe FileHash. ">
<polygon fill="white" stroke="black" points="47.2795,-57.5 47.2795,-77.5 136.6175,-77.5 136.6175,-57.5 47.2795,-57.5"/>
<text text-anchor="middle" x="91.9485" y="-64.5" font-family="Helvetica,sans-Serif" font-size="10.00">class/FileHash.h</text>
</a>
</g>
</g>
<!-- Node2&#45;&gt;Node6 -->
<g id="edge5" class="edge">
<title>Node2&#45;&gt;Node6</title>
<path fill="none" stroke="midnightblue" d="M220.4854,-111.1107C190.2127,-100.8396 149.0829,-86.8849 121.5825,-77.5544"/>
<polygon fill="midnightblue" stroke="midnightblue" points="219.7058,-114.5422 230.3002,-114.4408 221.955,-107.9133 219.7058,-114.5422"/>
</g>
<!-- Node8 -->
<g id="node8" class="node">
<title>Node8</title>
<g id="a_node8"><a xlink:href="FileHeap_8h.html" target="_top" xlink:title="Arquivo de declaração da classe FileHeap. ">
<polygon fill="white" stroke="black" points="155,-57.5 155,-77.5 244.897,-77.5 244.897,-57.5 155,-57.5"/>
<text text-anchor="middle" x="199.9485" y="-64.5" font-family="Helvetica,sans-Serif" font-size="10.00">class/FileHeap.h</text>
</a>
</g>
</g>
<!-- Node2&#45;&gt;Node8 -->
<g id="edge8" class="edge">
<title>Node2&#45;&gt;Node8</title>
<path fill="none" stroke="midnightblue" d="M241.9345,-107.3867C231.7083,-97.6718 219.2584,-85.8444 210.5824,-77.6022"/>
<polygon fill="midnightblue" stroke="midnightblue" points="239.561,-109.9595 249.2217,-114.3095 244.3823,-104.8845 239.561,-109.9595"/>
</g>
<!-- Node10 -->
<g id="node10" class="node">
<title>Node10</title>
<g id="a_node10"><a xlink:href="File_8cpp.html" target="_top" xlink:title="Arquivo de implementação da classe File. ">
<polygon fill="white" stroke="black" points="394.6685,-57.5 394.6685,-77.5 471.2285,-77.5 471.2285,-57.5 394.6685,-57.5"/>
<text text-anchor="middle" x="432.9485" y="-64.5" font-family="Helvetica,sans-Serif" font-size="10.00">class/File.cpp</text>
</a>
</g>
</g>
<!-- Node2&#45;&gt;Node10 -->
<g id="edge11" class="edge">
<title>Node2&#45;&gt;Node10</title>
<path fill="none" stroke="midnightblue" d="M300.1801,-111.2445C331.3912,-100.9611 373.9906,-86.9255 402.4325,-77.5544"/>
<polygon fill="midnightblue" stroke="midnightblue" points="298.8817,-107.9872 290.4792,-114.4408 301.0722,-114.6356 298.8817,-107.9872"/>
</g>
<!-- Node4 -->
<g id="node4" class="node">
<title>Node4</title>
<g id="a_node4"><a xlink:href="main_8cpp.html" target="_top" xlink:title="main.cpp">
<polygon fill="white" stroke="black" points="117.667,-.5 117.667,-20.5 174.23,-20.5 174.23,-.5 117.667,-.5"/>
<text text-anchor="middle" x="145.9485" y="-7.5" font-family="Helvetica,sans-Serif" font-size="10.00">main.cpp</text>
</a>
</g>
</g>
<!-- Node3&#45;&gt;Node4 -->
<g id="edge3" class="edge">
<title>Node3&#45;&gt;Node4</title>
<path fill="none" stroke="midnightblue" d="M279.6511,-54.2991C247.3894,-43.7307 202.9504,-29.173 174.3321,-19.7981"/>
<polygon fill="midnightblue" stroke="midnightblue" points="278.6486,-57.6537 289.2413,-57.4408 280.8278,-51.0015 278.6486,-57.6537"/>
</g>
<!-- Node5 -->
<g id="node5" class="node">
<title>Node5</title>
<g id="a_node5"><a xlink:href="FileSequential_8cpp.html" target="_top" xlink:title="Arquivo de implementação da classe FileSequential. ">
<polygon fill="white" stroke="black" points="311.0485,-.5 311.0485,-20.5 434.8485,-20.5 434.8485,-.5 311.0485,-.5"/>
<text text-anchor="middle" x="372.9485" y="-7.5" font-family="Helvetica,sans-Serif" font-size="10.00">class/FileSequential.cpp</text>
</a>
</g>
</g>
<!-- Node3&#45;&gt;Node5 -->
<g id="edge4" class="edge">
<title>Node3&#45;&gt;Node5</title>
<path fill="none" stroke="midnightblue" d="M336.3945,-49.8128C345.324,-40.2094 356.0417,-28.6828 363.5552,-20.6022"/>
<polygon fill="midnightblue" stroke="midnightblue" points="333.6701,-47.6028 329.4238,-57.3095 338.7965,-52.3695 333.6701,-47.6028"/>
</g>
<!-- Node6&#45;&gt;Node4 -->
<g id="edge6" class="edge">
<title>Node6&#45;&gt;Node4</title>
<path fill="none" stroke="midnightblue" d="M108.7048,-49.8128C117.8028,-40.2094 128.7227,-28.6828 136.378,-20.6022"/>
<polygon fill="midnightblue" stroke="midnightblue" points="105.9393,-47.6429 101.6026,-57.3095 111.0209,-52.4571 105.9393,-47.6429"/>
</g>
<!-- Node7 -->
<g id="node7" class="node">
<title>Node7</title>
<g id="a_node7"><a xlink:href="FileHash_8cpp.html" target="_top" xlink:title="Arquivo de implementação da classe FileHash. ">
<polygon fill="white" stroke="black" points="0,-.5 0,-20.5 99.897,-20.5 99.897,-.5 0,-.5"/>
<text text-anchor="middle" x="49.9485" y="-7.5" font-family="Helvetica,sans-Serif" font-size="10.00">class/FileHash.cpp</text>
</a>
</g>
</g>
<!-- Node6&#45;&gt;Node7 -->
<g id="edge7" class="edge">
<title>Node6&#45;&gt;Node7</title>
<path fill="none" stroke="midnightblue" d="M78.4896,-49.2344C71.5009,-39.7497 63.2273,-28.5212 57.3923,-20.6022"/>
<polygon fill="midnightblue" stroke="midnightblue" points="75.69,-51.3352 84.4397,-57.3095 81.3254,-47.1828 75.69,-51.3352"/>
</g>
<!-- Node8&#45;&gt;Node4 -->
<g id="edge9" class="edge">
<title>Node8&#45;&gt;Node4</title>
<path fill="none" stroke="midnightblue" d="M183.1922,-49.8128C174.0942,-40.2094 163.1743,-28.6828 155.519,-20.6022"/>
<polygon fill="midnightblue" stroke="midnightblue" points="180.8761,-52.4571 190.2944,-57.3095 185.9577,-47.6429 180.8761,-52.4571"/>
</g>
<!-- Node9 -->
<g id="node9" class="node">
<title>Node9</title>
<g id="a_node9"><a xlink:href="FileHeap_8cpp.html" target="_top" xlink:title="Arquivo de implementação da classe FileHeap. ">
<polygon fill="white" stroke="black" points="192.7205,-.5 192.7205,-20.5 293.1765,-20.5 293.1765,-.5 192.7205,-.5"/>
<text text-anchor="middle" x="242.9485" y="-7.5" font-family="Helvetica,sans-Serif" font-size="10.00">class/FileHeap.cpp</text>
</a>
</g>
</g>
<!-- Node8&#45;&gt;Node9 -->
<g id="edge10" class="edge">
<title>Node8&#45;&gt;Node9</title>
<path fill="none" stroke="midnightblue" d="M213.7278,-49.2344C220.8829,-39.7497 229.3536,-28.5212 235.3275,-20.6022"/>
<polygon fill="midnightblue" stroke="midnightblue" points="210.8643,-47.2185 207.636,-57.3095 216.4526,-51.4342 210.8643,-47.2185"/>
</g>
</g>
</svg>
