<?xml version="1.0" encoding="UTF-8" standalone="no"?>
<!DOCTYPE svg PUBLIC "-//W3C//DTD SVG 1.1//EN"
 "http://www.w3.org/Graphics/SVG/1.1/DTD/svg11.dtd">
<!-- Generated by graphviz version 2.41.20170704.2329 (20170704.2329)
 -->
<!-- Title: include/File.h Pages: 1 -->
<svg width="314pt" height="143pt"
 viewBox="0.00 0.00 313.95 143.00" xmlns="http://www.w3.org/2000/svg" xmlns:xlink="http://www.w3.org/1999/xlink">
<g id="graph0" class="graph" transform="scale(1 1) rotate(0) translate(4 139)">
<title>include/File.h</title>
<polygon fill="white" stroke="transparent" points="-4,4 -4,-139 309.9485,-139 309.9485,4 -4,4"/>
<!-- Node1 -->
<g id="node1" class="node">
<title>Node1</title>
<polygon fill="#bfbfbf" stroke="black" points="117.2185,-114.5 117.2185,-134.5 192.1155,-134.5 192.1155,-114.5 117.2185,-114.5"/>
<text text-anchor="middle" x="154.667" y="-121.5" font-family="Helvetica,sans-Serif" font-size="10.00">include/File.h</text>
</g>
<!-- Node2 -->
<g id="node2" class="node">
<title>Node2</title>
<polygon fill="white" stroke="#bfbfbf" points="0,-.5 0,-20.5 49.334,-20.5 49.334,-.5 0,-.5"/>
<text text-anchor="middle" x="24.667" y="-7.5" font-family="Helvetica,sans-Serif" font-size="10.00">fstream</text>
</g>
<!-- Node1&#45;&gt;Node2 -->
<g id="edge1" class="edge">
<title>Node1&#45;&gt;Node2</title>
<path fill="none" stroke="midnightblue" d="M117.0395,-117.5264C92.8661,-111.163 62.563,-99.3614 43.667,-78 32.2257,-65.066 27.6301,-45.7422 25.8066,-31.0803"/>
<polygon fill="midnightblue" stroke="midnightblue" points="29.2776,-30.6014 24.885,-20.9601 22.3064,-31.2363 29.2776,-30.6014"/>
</g>
<!-- Node3 -->
<g id="node3" class="node">
<title>Node3</title>
<polygon fill="white" stroke="#bfbfbf" points="132.4445,-.5 132.4445,-20.5 172.8895,-20.5 172.8895,-.5 132.4445,-.5"/>
<text text-anchor="middle" x="152.667" y="-7.5" font-family="Helvetica,sans-Serif" font-size="10.00">string</text>
</g>
<!-- Node1&#45;&gt;Node3 -->
<g id="edge2" class="edge">
<title>Node1&#45;&gt;Node3</title>
<path fill="none" stroke="midnightblue" d="M154.4895,-114.3833C154.1612,-95.6703 153.4534,-55.3266 153.0229,-30.7866"/>
<polygon fill="midnightblue" stroke="midnightblue" points="156.5219,-30.695 152.847,-20.7579 149.523,-30.8178 156.5219,-30.695"/>
</g>
<!-- Node4 -->
<g id="node4" class="node">
<title>Node4</title>
<g id="a_node4"><a xlink:href="FileHeader_8h.html" target="_top" xlink:title="Arquivo de declaração da classe FileHeader. ">
<polygon fill="white" stroke="black" points="53.053,-57.5 53.053,-77.5 126.281,-77.5 126.281,-57.5 53.053,-57.5"/>
<text text-anchor="middle" x="89.667" y="-64.5" font-family="Helvetica,sans-Serif" font-size="10.00">FileHeader.h</text>
</a>
</g>
</g>
<!-- Node1&#45;&gt;Node4 -->
<g id="edge3" class="edge">
<title>Node1&#45;&gt;Node4</title>
<path fill="none" stroke="midnightblue" d="M143.0463,-114.3095C133.5258,-105.9608 119.86,-93.9769 108.7393,-84.2249"/>
<polygon fill="midnightblue" stroke="midnightblue" points="111.0134,-81.564 101.1871,-77.6022 106.3981,-86.827 111.0134,-81.564"/>
</g>
<!-- Node6 -->
<g id="node6" class="node">
<title>Node6</title>
<g id="a_node6"><a xlink:href="Block_8h.html" target="_top" xlink:title="Arquivo de declaração da classe Block. ">
<polygon fill="white" stroke="black" points="182.2745,-57.5 182.2745,-77.5 231.0595,-77.5 231.0595,-57.5 182.2745,-57.5"/>
<text text-anchor="middle" x="206.667" y="-64.5" font-family="Helvetica,sans-Serif" font-size="10.00">Block.h</text>
</a>
</g>
</g>
<!-- Node1&#45;&gt;Node6 -->
<g id="edge7" class="edge">
<title>Node1&#45;&gt;Node6</title>
<path fill="none" stroke="midnightblue" d="M163.9636,-114.3095C171.3581,-106.204 181.8786,-94.672 190.6268,-85.0826"/>
<polygon fill="midnightblue" stroke="midnightblue" points="193.297,-87.3488 197.4509,-77.6022 188.1256,-82.631 193.297,-87.3488"/>
</g>
<!-- Node7 -->
<g id="node7" class="node">
<title>Node7</title>
<g id="a_node7"><a xlink:href="Record_8h.html" target="_top" xlink:title="Arquivo de declaração da classe Record. ">
<polygon fill="white" stroke="black" points="249.3855,-57.5 249.3855,-77.5 305.9485,-77.5 305.9485,-57.5 249.3855,-57.5"/>
<text text-anchor="middle" x="277.667" y="-64.5" font-family="Helvetica,sans-Serif" font-size="10.00">Record.h</text>
</a>
</g>
</g>
<!-- Node1&#45;&gt;Node7 -->
<g id="edge8" class="edge">
<title>Node1&#45;&gt;Node7</title>
<path fill="none" stroke="midnightblue" d="M176.3738,-114.4408C195.8385,-105.4205 224.6232,-92.0813 246.5382,-81.9255"/>
<polygon fill="midnightblue" stroke="midnightblue" points="248.162,-85.0307 255.7635,-77.6504 245.2187,-78.6795 248.162,-85.0307"/>
</g>
<!-- Node4&#45;&gt;Node2 -->
<g id="edge4" class="edge">
<title>Node4&#45;&gt;Node2</title>
<path fill="none" stroke="midnightblue" d="M78.0463,-57.3095C68.5258,-48.9608 54.86,-36.9769 43.7393,-27.2249"/>
<polygon fill="midnightblue" stroke="midnightblue" points="46.0134,-24.564 36.1871,-20.6022 41.3981,-29.827 46.0134,-24.564"/>
</g>
<!-- Node4&#45;&gt;Node3 -->
<g id="edge5" class="edge">
<title>Node4&#45;&gt;Node3</title>
<path fill="none" stroke="midnightblue" d="M100.9301,-57.3095C110.0681,-49.0419 123.1462,-37.2093 133.867,-27.5096"/>
<polygon fill="midnightblue" stroke="midnightblue" points="136.4342,-29.9068 141.5014,-20.6022 131.7378,-24.716 136.4342,-29.9068"/>
</g>
<!-- Node5 -->
<g id="node5" class="node">
<title>Node5</title>
<g id="a_node5"><a xlink:href="Date_8h.html" target="_top" xlink:title="Arquivo de declaração da classe Date. ">
<polygon fill="white" stroke="black" points="66.94,-.5 66.94,-20.5 112.394,-20.5 112.394,-.5 66.94,-.5"/>
<text text-anchor="middle" x="89.667" y="-7.5" font-family="Helvetica,sans-Serif" font-size="10.00">Date.h</text>
</a>
</g>
</g>
<!-- Node4&#45;&gt;Node5 -->
<g id="edge6" class="edge">
<title>Node4&#45;&gt;Node5</title>
<path fill="none" stroke="midnightblue" d="M89.667,-57.3095C89.667,-49.9335 89.667,-39.72 89.667,-30.715"/>
<polygon fill="midnightblue" stroke="midnightblue" points="93.1671,-30.6022 89.667,-20.6022 86.1671,-30.6023 93.1671,-30.6022"/>
</g>
</g>
</svg>
