<?xml version="1.0" encoding="UTF-8" standalone="no"?>
<!DOCTYPE svg PUBLIC "-//W3C//DTD SVG 1.1//EN"
 "http://www.w3.org/Graphics/SVG/1.1/DTD/svg11.dtd">
<!-- Generated by graphviz version 2.41.20170704.2329 (20170704.2329)
 -->
<!-- Title: src/FileSequential.cpp Pages: 1 -->
<svg width="347pt" height="257pt"
 viewBox="0.00 0.00 347.40 257.00" xmlns="http://www.w3.org/2000/svg" xmlns:xlink="http://www.w3.org/1999/xlink">
<g id="graph0" class="graph" transform="scale(1 1) rotate(0) translate(4 253)">
<title>src/FileSequential.cpp</title>
<polygon fill="white" stroke="transparent" points="-4,4 -4,-253 343.398,-253 343.398,4 -4,4"/>
<!-- Node1 -->
<g id="node1" class="node">
<title>Node1</title>
<polygon fill="#bfbfbf" stroke="black" points="0,-228.5 0,-248.5 114.351,-248.5 114.351,-228.5 0,-228.5"/>
<text text-anchor="middle" x="57.1755" y="-235.5" font-family="Helvetica,sans-Serif" font-size="10.00">src/FileSequential.cpp</text>
</g>
<!-- Node2 -->
<g id="node2" class="node">
<title>Node2</title>
<g id="a_node2"><a xlink:href="FileSequential_8h.html" target="_top" xlink:title="Arquivo de declaração da classe FileSequential. ">
<polygon fill="white" stroke="black" points="13.3335,-171.5 13.3335,-191.5 101.0175,-191.5 101.0175,-171.5 13.3335,-171.5"/>
<text text-anchor="middle" x="57.1755" y="-178.5" font-family="Helvetica,sans-Serif" font-size="10.00">FileSequential.h</text>
</a>
</g>
</g>
<!-- Node1&#45;&gt;Node2 -->
<g id="edge1" class="edge">
<title>Node1&#45;&gt;Node2</title>
<path fill="none" stroke="midnightblue" d="M57.1755,-228.3095C57.1755,-220.9335 57.1755,-210.72 57.1755,-201.715"/>
<polygon fill="midnightblue" stroke="midnightblue" points="60.6756,-201.6022 57.1755,-191.6022 53.6756,-201.6023 60.6756,-201.6022"/>
</g>
<!-- Node3 -->
<g id="node3" class="node">
<title>Node3</title>
<g id="a_node3"><a xlink:href="File_8h.html" target="_top" xlink:title="Arquivo de declaração da classe File. ">
<polygon fill="white" stroke="black" points="116.9535,-114.5 116.9535,-134.5 157.3975,-134.5 157.3975,-114.5 116.9535,-114.5"/>
<text text-anchor="middle" x="137.1755" y="-121.5" font-family="Helvetica,sans-Serif" font-size="10.00">File.h</text>
</a>
</g>
</g>
<!-- Node2&#45;&gt;Node3 -->
<g id="edge2" class="edge">
<title>Node2&#45;&gt;Node3</title>
<path fill="none" stroke="midnightblue" d="M71.4779,-171.3095C83.4229,-162.7987 100.67,-150.5102 114.4957,-140.6594"/>
<polygon fill="midnightblue" stroke="midnightblue" points="116.8837,-143.2555 122.9969,-134.6022 112.8217,-137.5545 116.8837,-143.2555"/>
</g>
<!-- Node4 -->
<g id="node4" class="node">
<title>Node4</title>
<polygon fill="white" stroke="#bfbfbf" points="25.5085,-.5 25.5085,-20.5 74.8425,-20.5 74.8425,-.5 25.5085,-.5"/>
<text text-anchor="middle" x="50.1755" y="-7.5" font-family="Helvetica,sans-Serif" font-size="10.00">fstream</text>
</g>
<!-- Node2&#45;&gt;Node4 -->
<g id="edge11" class="edge">
<title>Node2&#45;&gt;Node4</title>
<path fill="none" stroke="midnightblue" d="M56.7586,-171.3153C55.633,-143.8178 52.516,-67.6748 51.0106,-30.8993"/>
<polygon fill="midnightblue" stroke="midnightblue" points="54.5053,-30.696 50.5991,-20.8476 47.5111,-30.9824 54.5053,-30.696"/>
</g>
<!-- Node3&#45;&gt;Node4 -->
<g id="edge3" class="edge">
<title>Node3&#45;&gt;Node4</title>
<path fill="none" stroke="midnightblue" d="M116.7307,-115.3556C101.4794,-107.5261 81.2703,-94.8454 69.1755,-78 59.2029,-64.1103 54.4539,-45.1434 52.1986,-30.8514"/>
<polygon fill="midnightblue" stroke="midnightblue" points="55.624,-30.0476 50.8723,-20.578 48.6816,-30.9439 55.624,-30.0476"/>
</g>
<!-- Node5 -->
<g id="node5" class="node">
<title>Node5</title>
<polygon fill="white" stroke="#bfbfbf" points="298.953,-.5 298.953,-20.5 339.398,-20.5 339.398,-.5 298.953,-.5"/>
<text text-anchor="middle" x="319.1755" y="-7.5" font-family="Helvetica,sans-Serif" font-size="10.00">string</text>
</g>
<!-- Node3&#45;&gt;Node5 -->
<g id="edge4" class="edge">
<title>Node3&#45;&gt;Node5</title>
<path fill="none" stroke="midnightblue" d="M157.6744,-121.3311C197.2355,-114.8116 281.9978,-98.7502 302.1755,-78 314.2598,-65.5728 318.1394,-45.8807 319.2147,-30.9662"/>
<polygon fill="midnightblue" stroke="midnightblue" points="322.7224,-30.8097 319.5798,-20.6916 315.7268,-30.561 322.7224,-30.8097"/>
</g>
<!-- Node6 -->
<g id="node6" class="node">
<title>Node6</title>
<g id="a_node6"><a xlink:href="FileHeader_8h.html" target="_top" xlink:title="Arquivo de declaração da classe FileHeader. ">
<polygon fill="white" stroke="black" points="219.5615,-57.5 219.5615,-77.5 292.7895,-77.5 292.7895,-57.5 219.5615,-57.5"/>
<text text-anchor="middle" x="256.1755" y="-64.5" font-family="Helvetica,sans-Serif" font-size="10.00">FileHeader.h</text>
</a>
</g>
</g>
<!-- Node3&#45;&gt;Node6 -->
<g id="edge5" class="edge">
<title>Node3&#45;&gt;Node6</title>
<path fill="none" stroke="midnightblue" d="M157.6323,-114.7014C176.4188,-105.7028 204.5025,-92.2509 225.8889,-82.007"/>
<polygon fill="midnightblue" stroke="midnightblue" points="227.6796,-85.0302 235.1864,-77.5536 224.6556,-78.717 227.6796,-85.0302"/>
</g>
<!-- Node8 -->
<g id="node8" class="node">
<title>Node8</title>
<g id="a_node8"><a xlink:href="Block_8h.html" target="_top" xlink:title="Arquivo de declaração da classe Block. ">
<polygon fill="white" stroke="black" points="77.783,-57.5 77.783,-77.5 126.568,-77.5 126.568,-57.5 77.783,-57.5"/>
<text text-anchor="middle" x="102.1755" y="-64.5" font-family="Helvetica,sans-Serif" font-size="10.00">Block.h</text>
</a>
</g>
</g>
<!-- Node3&#45;&gt;Node8 -->
<g id="edge9" class="edge">
<title>Node3&#45;&gt;Node8</title>
<path fill="none" stroke="midnightblue" d="M130.9182,-114.3095C126.1402,-106.5282 119.4232,-95.589 113.6839,-86.2423"/>
<polygon fill="midnightblue" stroke="midnightblue" points="116.5939,-84.2925 108.3786,-77.6022 110.6287,-87.9554 116.5939,-84.2925"/>
</g>
<!-- Node9 -->
<g id="node9" class="node">
<title>Node9</title>
<g id="a_node9"><a xlink:href="Record_8h.html" target="_top" xlink:title="Arquivo de declaração da classe Record. ">
<polygon fill="white" stroke="black" points="144.894,-57.5 144.894,-77.5 201.457,-77.5 201.457,-57.5 144.894,-57.5"/>
<text text-anchor="middle" x="173.1755" y="-64.5" font-family="Helvetica,sans-Serif" font-size="10.00">Record.h</text>
</a>
</g>
</g>
<!-- Node3&#45;&gt;Node9 -->
<g id="edge10" class="edge">
<title>Node3&#45;&gt;Node9</title>
<path fill="none" stroke="midnightblue" d="M143.6116,-114.3095C148.5261,-106.5282 155.4351,-95.589 161.3383,-86.2423"/>
<polygon fill="midnightblue" stroke="midnightblue" points="164.4144,-87.9261 166.7951,-77.6022 158.4959,-84.1881 164.4144,-87.9261"/>
</g>
<!-- Node6&#45;&gt;Node4 -->
<g id="edge6" class="edge">
<title>Node6&#45;&gt;Node4</title>
<path fill="none" stroke="midnightblue" d="M219.821,-57.4408C181.7071,-46.8947 122.2567,-30.4448 84.803,-20.0814"/>
<polygon fill="midnightblue" stroke="midnightblue" points="85.4297,-16.6233 74.8584,-17.3297 83.5629,-23.3698 85.4297,-16.6233"/>
</g>
<!-- Node6&#45;&gt;Node5 -->
<g id="edge7" class="edge">
<title>Node6&#45;&gt;Node5</title>
<path fill="none" stroke="midnightblue" d="M267.4386,-57.3095C276.5766,-49.0419 289.6547,-37.2093 300.3755,-27.5096"/>
<polygon fill="midnightblue" stroke="midnightblue" points="302.9427,-29.9068 308.0099,-20.6022 298.2463,-24.716 302.9427,-29.9068"/>
</g>
<!-- Node7 -->
<g id="node7" class="node">
<title>Node7</title>
<g id="a_node7"><a xlink:href="Date_8h.html" target="_top" xlink:title="Arquivo de declaração da classe Date. ">
<polygon fill="white" stroke="black" points="233.4485,-.5 233.4485,-20.5 278.9025,-20.5 278.9025,-.5 233.4485,-.5"/>
<text text-anchor="middle" x="256.1755" y="-7.5" font-family="Helvetica,sans-Serif" font-size="10.00">Date.h</text>
</a>
</g>
</g>
<!-- Node6&#45;&gt;Node7 -->
<g id="edge8" class="edge">
<title>Node6&#45;&gt;Node7</title>
<path fill="none" stroke="midnightblue" d="M256.1755,-57.3095C256.1755,-49.9335 256.1755,-39.72 256.1755,-30.715"/>
<polygon fill="midnightblue" stroke="midnightblue" points="259.6756,-30.6022 256.1755,-20.6022 252.6756,-30.6023 259.6756,-30.6022"/>
</g>
</g>
</svg>
