<?xml version="1.0" encoding="UTF-8" standalone="no"?>
<!DOCTYPE svg PUBLIC "-//W3C//DTD SVG 1.1//EN"
 "http://www.w3.org/Graphics/SVG/1.1/DTD/svg11.dtd">
<!-- Generated by graphviz version 2.41.20170704.2329 (20170704.2329)
 -->
<!-- Title: class/FileHash.h Pages: 1 -->
<svg width="182pt" height="86pt"
 viewBox="0.00 0.00 182.23 86.00" xmlns="http://www.w3.org/2000/svg" xmlns:xlink="http://www.w3.org/1999/xlink">
<g id="graph0" class="graph" transform="scale(1 1) rotate(0) translate(4 82)">
<title>class/FileHash.h</title>
<polygon fill="white" stroke="transparent" points="-4,4 -4,-82 178.23,-82 178.23,4 -4,4"/>
<!-- Node1 -->
<g id="node1" class="node">
<title>Node1</title>
<polygon fill="#bfbfbf" stroke="black" points="31.6125,-57.5 31.6125,-77.5 120.9505,-77.5 120.9505,-57.5 31.6125,-57.5"/>
<text text-anchor="middle" x="76.2815" y="-64.5" font-family="Helvetica,sans-Serif" font-size="10.00">class/FileHash.h</text>
</g>
<!-- Node2 -->
<g id="node2" class="node">
<title>Node2</title>
<g id="a_node2"><a xlink:href="main_8cpp.html" target="_top" xlink:title="main.cpp">
<polygon fill="white" stroke="black" points="0,-.5 0,-20.5 56.563,-20.5 56.563,-.5 0,-.5"/>
<text text-anchor="middle" x="28.2815" y="-7.5" font-family="Helvetica,sans-Serif" font-size="10.00">main.cpp</text>
</a>
</g>
</g>
<!-- Node1&#45;&gt;Node2 -->
<g id="edge1" class="edge">
<title>Node1&#45;&gt;Node2</title>
<path fill="none" stroke="midnightblue" d="M61.1439,-49.5242C53.1061,-39.9792 43.5253,-28.602 36.7886,-20.6022"/>
<polygon fill="midnightblue" stroke="midnightblue" points="58.5815,-51.9149 67.7001,-57.3095 63.9359,-47.4059 58.5815,-51.9149"/>
</g>
<!-- Node3 -->
<g id="node3" class="node">
<title>Node3</title>
<g id="a_node3"><a xlink:href="FileHash_8cpp.html" target="_top" xlink:title="Arquivo de implementação da classe FileHash. ">
<polygon fill="white" stroke="black" points="74.333,-.5 74.333,-20.5 174.23,-20.5 174.23,-.5 74.333,-.5"/>
<text text-anchor="middle" x="124.2815" y="-7.5" font-family="Helvetica,sans-Serif" font-size="10.00">class/FileHash.cpp</text>
</a>
</g>
</g>
<!-- Node1&#45;&gt;Node3 -->
<g id="edge2" class="edge">
<title>Node1&#45;&gt;Node3</title>
<path fill="none" stroke="midnightblue" d="M91.4191,-49.5242C99.4569,-39.9792 109.0377,-28.602 115.7744,-20.6022"/>
<polygon fill="midnightblue" stroke="midnightblue" points="88.6271,-47.4059 84.8629,-57.3095 93.9815,-51.9149 88.6271,-47.4059"/>
</g>
</g>
</svg>
