<?xml version="1.0" encoding="UTF-8" standalone="no"?>
<!DOCTYPE svg PUBLIC "-//W3C//DTD SVG 1.1//EN"
 "http://www.w3.org/Graphics/SVG/1.1/DTD/svg11.dtd">
<!-- Generated by graphviz version 2.41.20170704.2329 (20170704.2329)
 -->
<!-- Title: class/File.h Pages: 1 -->
<svg width="281pt" height="143pt"
 viewBox="0.00 0.00 280.95 143.00" xmlns="http://www.w3.org/2000/svg" xmlns:xlink="http://www.w3.org/1999/xlink">
<g id="graph0" class="graph" transform="scale(1 1) rotate(0) translate(4 139)">
<title>class/File.h</title>
<polygon fill="white" stroke="transparent" points="-4,4 -4,-139 276.9485,-139 276.9485,4 -4,4"/>
<!-- Node1 -->
<g id="node1" class="node">
<title>Node1</title>
<polygon fill="#bfbfbf" stroke="black" points="88.6665,-114.5 88.6665,-134.5 154.6675,-134.5 154.6675,-114.5 88.6665,-114.5"/>
<text text-anchor="middle" x="121.667" y="-121.5" font-family="Helvetica,sans-Serif" font-size="10.00">class/File.h</text>
</g>
<!-- Node2 -->
<g id="node2" class="node">
<title>Node2</title>
<polygon fill="white" stroke="#bfbfbf" points="0,-.5 0,-20.5 49.334,-20.5 49.334,-.5 0,-.5"/>
<text text-anchor="middle" x="24.667" y="-7.5" font-family="Helvetica,sans-Serif" font-size="10.00">fstream</text>
</g>
<!-- Node1&#45;&gt;Node2 -->
<g id="edge1" class="edge">
<title>Node1&#45;&gt;Node2</title>
<path fill="none" stroke="midnightblue" d="M88.4774,-120.4531C62.4509,-115.3419 27.8528,-103.8323 10.667,-78 1.0795,-63.5889 6.793,-43.9174 13.5791,-29.5286"/>
<polygon fill="midnightblue" stroke="midnightblue" points="16.7462,-31.0249 18.2736,-20.5407 10.5416,-27.784 16.7462,-31.0249"/>
</g>
<!-- Node3 -->
<g id="node3" class="node">
<title>Node3</title>
<polygon fill="white" stroke="#bfbfbf" points="68.4445,-.5 68.4445,-20.5 108.8895,-20.5 108.8895,-.5 68.4445,-.5"/>
<text text-anchor="middle" x="88.667" y="-7.5" font-family="Helvetica,sans-Serif" font-size="10.00">string</text>
</g>
<!-- Node1&#45;&gt;Node3 -->
<g id="edge2" class="edge">
<title>Node1&#45;&gt;Node3</title>
<path fill="none" stroke="midnightblue" d="M118.8909,-114.4202C115.2393,-101.2123 108.5905,-77.338 102.667,-57 100.1426,-48.3325 97.2806,-38.7805 94.8051,-30.6003"/>
<polygon fill="midnightblue" stroke="midnightblue" points="98.0914,-29.3765 91.8344,-20.8266 91.3939,-31.4123 98.0914,-29.3765"/>
</g>
<!-- Node4 -->
<g id="node4" class="node">
<title>Node4</title>
<g id="a_node4"><a xlink:href="FileHeader_8h.html" target="_top" xlink:title="Arquivo de declaração da classe FileHeader. ">
<polygon fill="white" stroke="black" points="20.053,-57.5 20.053,-77.5 93.281,-77.5 93.281,-57.5 20.053,-57.5"/>
<text text-anchor="middle" x="56.667" y="-64.5" font-family="Helvetica,sans-Serif" font-size="10.00">FileHeader.h</text>
</a>
</g>
</g>
<!-- Node1&#45;&gt;Node4 -->
<g id="edge3" class="edge">
<title>Node1&#45;&gt;Node4</title>
<path fill="none" stroke="midnightblue" d="M110.0463,-114.3095C100.5258,-105.9608 86.86,-93.9769 75.7393,-84.2249"/>
<polygon fill="midnightblue" stroke="midnightblue" points="78.0134,-81.564 68.1871,-77.6022 73.3981,-86.827 78.0134,-81.564"/>
</g>
<!-- Node5 -->
<g id="node5" class="node">
<title>Node5</title>
<g id="a_node5"><a xlink:href="Block_8h.html" target="_top" xlink:title="Arquivo de declaração da classe Block. ">
<polygon fill="white" stroke="black" points="149.2745,-57.5 149.2745,-77.5 198.0595,-77.5 198.0595,-57.5 149.2745,-57.5"/>
<text text-anchor="middle" x="173.667" y="-64.5" font-family="Helvetica,sans-Serif" font-size="10.00">Block.h</text>
</a>
</g>
</g>
<!-- Node1&#45;&gt;Node5 -->
<g id="edge6" class="edge">
<title>Node1&#45;&gt;Node5</title>
<path fill="none" stroke="midnightblue" d="M130.9636,-114.3095C138.3581,-106.204 148.8786,-94.672 157.6268,-85.0826"/>
<polygon fill="midnightblue" stroke="midnightblue" points="160.297,-87.3488 164.4509,-77.6022 155.1256,-82.631 160.297,-87.3488"/>
</g>
<!-- Node6 -->
<g id="node6" class="node">
<title>Node6</title>
<g id="a_node6"><a xlink:href="Record_8h.html" target="_top" xlink:title="Arquivo de declaração da classe Record. ">
<polygon fill="white" stroke="black" points="216.3855,-57.5 216.3855,-77.5 272.9485,-77.5 272.9485,-57.5 216.3855,-57.5"/>
<text text-anchor="middle" x="244.667" y="-64.5" font-family="Helvetica,sans-Serif" font-size="10.00">Record.h</text>
</a>
</g>
</g>
<!-- Node1&#45;&gt;Node6 -->
<g id="edge7" class="edge">
<title>Node1&#45;&gt;Node6</title>
<path fill="none" stroke="midnightblue" d="M143.3738,-114.4408C162.8385,-105.4205 191.6232,-92.0813 213.5382,-81.9255"/>
<polygon fill="midnightblue" stroke="midnightblue" points="215.162,-85.0307 222.7635,-77.6504 212.2187,-78.6795 215.162,-85.0307"/>
</g>
<!-- Node4&#45;&gt;Node2 -->
<g id="edge4" class="edge">
<title>Node4&#45;&gt;Node2</title>
<path fill="none" stroke="midnightblue" d="M50.946,-57.3095C46.6231,-49.6093 40.564,-38.8166 35.3532,-29.5349"/>
<polygon fill="midnightblue" stroke="midnightblue" points="38.2858,-27.6087 30.3384,-20.6022 32.1819,-31.0355 38.2858,-27.6087"/>
</g>
<!-- Node4&#45;&gt;Node3 -->
<g id="edge5" class="edge">
<title>Node4&#45;&gt;Node3</title>
<path fill="none" stroke="midnightblue" d="M62.388,-57.3095C66.7109,-49.6093 72.77,-38.8166 77.9808,-29.5349"/>
<polygon fill="midnightblue" stroke="midnightblue" points="81.1521,-31.0355 82.9956,-20.6022 75.0482,-27.6087 81.1521,-31.0355"/>
</g>
</g>
</svg>
