<?xml version="1.0" encoding="UTF-8" standalone="no"?>
<!DOCTYPE svg PUBLIC "-//W3C//DTD SVG 1.1//EN"
 "http://www.w3.org/Graphics/SVG/1.1/DTD/svg11.dtd">
<!-- Generated by graphviz version 2.41.20170704.2329 (20170704.2329)
 -->
<!-- Title: include/FileHash.h Pages: 1 -->
<svg width="339pt" height="200pt"
 viewBox="0.00 0.00 339.34 200.00" xmlns="http://www.w3.org/2000/svg" xmlns:xlink="http://www.w3.org/1999/xlink">
<g id="graph0" class="graph" transform="scale(1 1) rotate(0) translate(4 196)">
<title>include/FileHash.h</title>
<polygon fill="white" stroke="transparent" points="-4,4 -4,-196 335.3395,-196 335.3395,4 -4,4"/>
<!-- Node1 -->
<g id="node1" class="node">
<title>Node1</title>
<polygon fill="#bfbfbf" stroke="black" points="0,-171.5 0,-191.5 98.234,-191.5 98.234,-171.5 0,-171.5"/>
<text text-anchor="middle" x="49.117" y="-178.5" font-family="Helvetica,sans-Serif" font-size="10.00">include/FileHash.h</text>
</g>
<!-- Node2 -->
<g id="node2" class="node">
<title>Node2</title>
<g id="a_node2"><a xlink:href="File_8h.html" target="_top" xlink:title="Arquivo de declaração da classe File. ">
<polygon fill="white" stroke="black" points="108.895,-114.5 108.895,-134.5 149.339,-134.5 149.339,-114.5 108.895,-114.5"/>
<text text-anchor="middle" x="129.117" y="-121.5" font-family="Helvetica,sans-Serif" font-size="10.00">File.h</text>
</a>
</g>
</g>
<!-- Node1&#45;&gt;Node2 -->
<g id="edge1" class="edge">
<title>Node1&#45;&gt;Node2</title>
<path fill="none" stroke="midnightblue" d="M63.4194,-171.3095C75.3644,-162.7987 92.6115,-150.5102 106.4372,-140.6594"/>
<polygon fill="midnightblue" stroke="midnightblue" points="108.8252,-143.2555 114.9384,-134.6022 104.7632,-137.5545 108.8252,-143.2555"/>
</g>
<!-- Node3 -->
<g id="node3" class="node">
<title>Node3</title>
<polygon fill="white" stroke="#bfbfbf" points="17.45,-.5 17.45,-20.5 66.784,-20.5 66.784,-.5 17.45,-.5"/>
<text text-anchor="middle" x="42.117" y="-7.5" font-family="Helvetica,sans-Serif" font-size="10.00">fstream</text>
</g>
<!-- Node1&#45;&gt;Node3 -->
<g id="edge10" class="edge">
<title>Node1&#45;&gt;Node3</title>
<path fill="none" stroke="midnightblue" d="M48.7001,-171.3153C47.5745,-143.8178 44.4575,-67.6748 42.9521,-30.8993"/>
<polygon fill="midnightblue" stroke="midnightblue" points="46.4468,-30.696 42.5406,-20.8476 39.4526,-30.9824 46.4468,-30.696"/>
</g>
<!-- Node2&#45;&gt;Node3 -->
<g id="edge2" class="edge">
<title>Node2&#45;&gt;Node3</title>
<path fill="none" stroke="midnightblue" d="M108.6722,-115.3556C93.4209,-107.5261 73.2118,-94.8454 61.117,-78 51.1444,-64.1103 46.3954,-45.1434 44.1401,-30.8514"/>
<polygon fill="midnightblue" stroke="midnightblue" points="47.5655,-30.0476 42.8138,-20.578 40.6231,-30.9439 47.5655,-30.0476"/>
</g>
<!-- Node4 -->
<g id="node4" class="node">
<title>Node4</title>
<polygon fill="white" stroke="#bfbfbf" points="290.8945,-.5 290.8945,-20.5 331.3395,-20.5 331.3395,-.5 290.8945,-.5"/>
<text text-anchor="middle" x="311.117" y="-7.5" font-family="Helvetica,sans-Serif" font-size="10.00">string</text>
</g>
<!-- Node2&#45;&gt;Node4 -->
<g id="edge3" class="edge">
<title>Node2&#45;&gt;Node4</title>
<path fill="none" stroke="midnightblue" d="M149.6159,-121.3311C189.177,-114.8116 273.9393,-98.7502 294.117,-78 306.2013,-65.5728 310.0809,-45.8807 311.1562,-30.9662"/>
<polygon fill="midnightblue" stroke="midnightblue" points="314.6639,-30.8097 311.5213,-20.6916 307.6683,-30.561 314.6639,-30.8097"/>
</g>
<!-- Node5 -->
<g id="node5" class="node">
<title>Node5</title>
<g id="a_node5"><a xlink:href="FileHeader_8h.html" target="_top" xlink:title="Arquivo de declaração da classe FileHeader. ">
<polygon fill="white" stroke="black" points="211.503,-57.5 211.503,-77.5 284.731,-77.5 284.731,-57.5 211.503,-57.5"/>
<text text-anchor="middle" x="248.117" y="-64.5" font-family="Helvetica,sans-Serif" font-size="10.00">FileHeader.h</text>
</a>
</g>
</g>
<!-- Node2&#45;&gt;Node5 -->
<g id="edge4" class="edge">
<title>Node2&#45;&gt;Node5</title>
<path fill="none" stroke="midnightblue" d="M149.5738,-114.7014C168.3603,-105.7028 196.444,-92.2509 217.8304,-82.007"/>
<polygon fill="midnightblue" stroke="midnightblue" points="219.6211,-85.0302 227.1279,-77.5536 216.5971,-78.717 219.6211,-85.0302"/>
</g>
<!-- Node7 -->
<g id="node7" class="node">
<title>Node7</title>
<g id="a_node7"><a xlink:href="Block_8h.html" target="_top" xlink:title="Arquivo de declaração da classe Block. ">
<polygon fill="white" stroke="black" points="69.7245,-57.5 69.7245,-77.5 118.5095,-77.5 118.5095,-57.5 69.7245,-57.5"/>
<text text-anchor="middle" x="94.117" y="-64.5" font-family="Helvetica,sans-Serif" font-size="10.00">Block.h</text>
</a>
</g>
</g>
<!-- Node2&#45;&gt;Node7 -->
<g id="edge8" class="edge">
<title>Node2&#45;&gt;Node7</title>
<path fill="none" stroke="midnightblue" d="M122.8597,-114.3095C118.0817,-106.5282 111.3647,-95.589 105.6254,-86.2423"/>
<polygon fill="midnightblue" stroke="midnightblue" points="108.5354,-84.2925 100.3201,-77.6022 102.5702,-87.9554 108.5354,-84.2925"/>
</g>
<!-- Node8 -->
<g id="node8" class="node">
<title>Node8</title>
<g id="a_node8"><a xlink:href="Record_8h.html" target="_top" xlink:title="Arquivo de declaração da classe Record. ">
<polygon fill="white" stroke="black" points="136.8355,-57.5 136.8355,-77.5 193.3985,-77.5 193.3985,-57.5 136.8355,-57.5"/>
<text text-anchor="middle" x="165.117" y="-64.5" font-family="Helvetica,sans-Serif" font-size="10.00">Record.h</text>
</a>
</g>
</g>
<!-- Node2&#45;&gt;Node8 -->
<g id="edge9" class="edge">
<title>Node2&#45;&gt;Node8</title>
<path fill="none" stroke="midnightblue" d="M135.5531,-114.3095C140.4676,-106.5282 147.3766,-95.589 153.2798,-86.2423"/>
<polygon fill="midnightblue" stroke="midnightblue" points="156.3559,-87.9261 158.7366,-77.6022 150.4374,-84.1881 156.3559,-87.9261"/>
</g>
<!-- Node5&#45;&gt;Node3 -->
<g id="edge5" class="edge">
<title>Node5&#45;&gt;Node3</title>
<path fill="none" stroke="midnightblue" d="M211.7625,-57.4408C173.6486,-46.8947 114.1982,-30.4448 76.7445,-20.0814"/>
<polygon fill="midnightblue" stroke="midnightblue" points="77.3712,-16.6233 66.7999,-17.3297 75.5044,-23.3698 77.3712,-16.6233"/>
</g>
<!-- Node5&#45;&gt;Node4 -->
<g id="edge6" class="edge">
<title>Node5&#45;&gt;Node4</title>
<path fill="none" stroke="midnightblue" d="M259.3801,-57.3095C268.5181,-49.0419 281.5962,-37.2093 292.317,-27.5096"/>
<polygon fill="midnightblue" stroke="midnightblue" points="294.8842,-29.9068 299.9514,-20.6022 290.1878,-24.716 294.8842,-29.9068"/>
</g>
<!-- Node6 -->
<g id="node6" class="node">
<title>Node6</title>
<g id="a_node6"><a xlink:href="Date_8h.html" target="_top" xlink:title="Arquivo de declaração da classe Date. ">
<polygon fill="white" stroke="black" points="225.39,-.5 225.39,-20.5 270.844,-20.5 270.844,-.5 225.39,-.5"/>
<text text-anchor="middle" x="248.117" y="-7.5" font-family="Helvetica,sans-Serif" font-size="10.00">Date.h</text>
</a>
</g>
</g>
<!-- Node5&#45;&gt;Node6 -->
<g id="edge7" class="edge">
<title>Node5&#45;&gt;Node6</title>
<path fill="none" stroke="midnightblue" d="M248.117,-57.3095C248.117,-49.9335 248.117,-39.72 248.117,-30.715"/>
<polygon fill="midnightblue" stroke="midnightblue" points="251.6171,-30.6022 248.117,-20.6022 244.6171,-30.6023 251.6171,-30.6022"/>
</g>
</g>
</svg>
