<?xml version="1.0" encoding="UTF-8" standalone="no"?>
<!DOCTYPE svg PUBLIC "-//W3C//DTD SVG 1.1//EN"
 "http://www.w3.org/Graphics/SVG/1.1/DTD/svg11.dtd">
<!-- Generated by graphviz version 2.41.20170704.2329 (20170704.2329)
 -->
<!-- Title: include/FileSequential.h Pages: 1 -->
<svg width="351pt" height="200pt"
 viewBox="0.00 0.00 351.29 200.00" xmlns="http://www.w3.org/2000/svg" xmlns:xlink="http://www.w3.org/1999/xlink">
<g id="graph0" class="graph" transform="scale(1 1) rotate(0) translate(4 196)">
<title>include/FileSequential.h</title>
<polygon fill="white" stroke="transparent" points="-4,4 -4,-196 347.291,-196 347.291,4 -4,4"/>
<!-- Node1 -->
<g id="node1" class="node">
<title>Node1</title>
<polygon fill="#bfbfbf" stroke="black" points="0,-171.5 0,-191.5 122.137,-191.5 122.137,-171.5 0,-171.5"/>
<text text-anchor="middle" x="61.0685" y="-178.5" font-family="Helvetica,sans-Serif" font-size="10.00">include/FileSequential.h</text>
</g>
<!-- Node2 -->
<g id="node2" class="node">
<title>Node2</title>
<g id="a_node2"><a xlink:href="File_8h.html" target="_top" xlink:title="Arquivo de declaração da classe File. ">
<polygon fill="white" stroke="black" points="120.8465,-114.5 120.8465,-134.5 161.2905,-134.5 161.2905,-114.5 120.8465,-114.5"/>
<text text-anchor="middle" x="141.0685" y="-121.5" font-family="Helvetica,sans-Serif" font-size="10.00">File.h</text>
</a>
</g>
</g>
<!-- Node1&#45;&gt;Node2 -->
<g id="edge1" class="edge">
<title>Node1&#45;&gt;Node2</title>
<path fill="none" stroke="midnightblue" d="M75.3709,-171.3095C87.3159,-162.7987 104.563,-150.5102 118.3887,-140.6594"/>
<polygon fill="midnightblue" stroke="midnightblue" points="120.7767,-143.2555 126.8899,-134.6022 116.7147,-137.5545 120.7767,-143.2555"/>
</g>
<!-- Node3 -->
<g id="node3" class="node">
<title>Node3</title>
<polygon fill="white" stroke="#bfbfbf" points="29.4015,-.5 29.4015,-20.5 78.7355,-20.5 78.7355,-.5 29.4015,-.5"/>
<text text-anchor="middle" x="54.0685" y="-7.5" font-family="Helvetica,sans-Serif" font-size="10.00">fstream</text>
</g>
<!-- Node1&#45;&gt;Node3 -->
<g id="edge10" class="edge">
<title>Node1&#45;&gt;Node3</title>
<path fill="none" stroke="midnightblue" d="M60.6516,-171.3153C59.526,-143.8178 56.409,-67.6748 54.9036,-30.8993"/>
<polygon fill="midnightblue" stroke="midnightblue" points="58.3983,-30.696 54.4921,-20.8476 51.4041,-30.9824 58.3983,-30.696"/>
</g>
<!-- Node2&#45;&gt;Node3 -->
<g id="edge2" class="edge">
<title>Node2&#45;&gt;Node3</title>
<path fill="none" stroke="midnightblue" d="M120.6237,-115.3556C105.3724,-107.5261 85.1633,-94.8454 73.0685,-78 63.0959,-64.1103 58.3469,-45.1434 56.0916,-30.8514"/>
<polygon fill="midnightblue" stroke="midnightblue" points="59.517,-30.0476 54.7653,-20.578 52.5746,-30.9439 59.517,-30.0476"/>
</g>
<!-- Node4 -->
<g id="node4" class="node">
<title>Node4</title>
<polygon fill="white" stroke="#bfbfbf" points="302.846,-.5 302.846,-20.5 343.291,-20.5 343.291,-.5 302.846,-.5"/>
<text text-anchor="middle" x="323.0685" y="-7.5" font-family="Helvetica,sans-Serif" font-size="10.00">string</text>
</g>
<!-- Node2&#45;&gt;Node4 -->
<g id="edge3" class="edge">
<title>Node2&#45;&gt;Node4</title>
<path fill="none" stroke="midnightblue" d="M161.5674,-121.3311C201.1285,-114.8116 285.8908,-98.7502 306.0685,-78 318.1528,-65.5728 322.0324,-45.8807 323.1077,-30.9662"/>
<polygon fill="midnightblue" stroke="midnightblue" points="326.6154,-30.8097 323.4728,-20.6916 319.6198,-30.561 326.6154,-30.8097"/>
</g>
<!-- Node5 -->
<g id="node5" class="node">
<title>Node5</title>
<g id="a_node5"><a xlink:href="FileHeader_8h.html" target="_top" xlink:title="Arquivo de declaração da classe FileHeader. ">
<polygon fill="white" stroke="black" points="223.4545,-57.5 223.4545,-77.5 296.6825,-77.5 296.6825,-57.5 223.4545,-57.5"/>
<text text-anchor="middle" x="260.0685" y="-64.5" font-family="Helvetica,sans-Serif" font-size="10.00">FileHeader.h</text>
</a>
</g>
</g>
<!-- Node2&#45;&gt;Node5 -->
<g id="edge4" class="edge">
<title>Node2&#45;&gt;Node5</title>
<path fill="none" stroke="midnightblue" d="M161.5253,-114.7014C180.3118,-105.7028 208.3955,-92.2509 229.7819,-82.007"/>
<polygon fill="midnightblue" stroke="midnightblue" points="231.5726,-85.0302 239.0794,-77.5536 228.5486,-78.717 231.5726,-85.0302"/>
</g>
<!-- Node7 -->
<g id="node7" class="node">
<title>Node7</title>
<g id="a_node7"><a xlink:href="Block_8h.html" target="_top" xlink:title="Arquivo de declaração da classe Block. ">
<polygon fill="white" stroke="black" points="81.676,-57.5 81.676,-77.5 130.461,-77.5 130.461,-57.5 81.676,-57.5"/>
<text text-anchor="middle" x="106.0685" y="-64.5" font-family="Helvetica,sans-Serif" font-size="10.00">Block.h</text>
</a>
</g>
</g>
<!-- Node2&#45;&gt;Node7 -->
<g id="edge8" class="edge">
<title>Node2&#45;&gt;Node7</title>
<path fill="none" stroke="midnightblue" d="M134.8112,-114.3095C130.0332,-106.5282 123.3162,-95.589 117.5769,-86.2423"/>
<polygon fill="midnightblue" stroke="midnightblue" points="120.4869,-84.2925 112.2716,-77.6022 114.5217,-87.9554 120.4869,-84.2925"/>
</g>
<!-- Node8 -->
<g id="node8" class="node">
<title>Node8</title>
<g id="a_node8"><a xlink:href="Record_8h.html" target="_top" xlink:title="Arquivo de declaração da classe Record. ">
<polygon fill="white" stroke="black" points="148.787,-57.5 148.787,-77.5 205.35,-77.5 205.35,-57.5 148.787,-57.5"/>
<text text-anchor="middle" x="177.0685" y="-64.5" font-family="Helvetica,sans-Serif" font-size="10.00">Record.h</text>
</a>
</g>
</g>
<!-- Node2&#45;&gt;Node8 -->
<g id="edge9" class="edge">
<title>Node2&#45;&gt;Node8</title>
<path fill="none" stroke="midnightblue" d="M147.5046,-114.3095C152.4191,-106.5282 159.3281,-95.589 165.2313,-86.2423"/>
<polygon fill="midnightblue" stroke="midnightblue" points="168.3074,-87.9261 170.6881,-77.6022 162.3889,-84.1881 168.3074,-87.9261"/>
</g>
<!-- Node5&#45;&gt;Node3 -->
<g id="edge5" class="edge">
<title>Node5&#45;&gt;Node3</title>
<path fill="none" stroke="midnightblue" d="M223.714,-57.4408C185.6001,-46.8947 126.1497,-30.4448 88.696,-20.0814"/>
<polygon fill="midnightblue" stroke="midnightblue" points="89.3227,-16.6233 78.7514,-17.3297 87.4559,-23.3698 89.3227,-16.6233"/>
</g>
<!-- Node5&#45;&gt;Node4 -->
<g id="edge6" class="edge">
<title>Node5&#45;&gt;Node4</title>
<path fill="none" stroke="midnightblue" d="M271.3316,-57.3095C280.4696,-49.0419 293.5477,-37.2093 304.2685,-27.5096"/>
<polygon fill="midnightblue" stroke="midnightblue" points="306.8357,-29.9068 311.9029,-20.6022 302.1393,-24.716 306.8357,-29.9068"/>
</g>
<!-- Node6 -->
<g id="node6" class="node">
<title>Node6</title>
<g id="a_node6"><a xlink:href="Date_8h.html" target="_top" xlink:title="Arquivo de declaração da classe Date. ">
<polygon fill="white" stroke="black" points="237.3415,-.5 237.3415,-20.5 282.7955,-20.5 282.7955,-.5 237.3415,-.5"/>
<text text-anchor="middle" x="260.0685" y="-7.5" font-family="Helvetica,sans-Serif" font-size="10.00">Date.h</text>
</a>
</g>
</g>
<!-- Node5&#45;&gt;Node6 -->
<g id="edge7" class="edge">
<title>Node5&#45;&gt;Node6</title>
<path fill="none" stroke="midnightblue" d="M260.0685,-57.3095C260.0685,-49.9335 260.0685,-39.72 260.0685,-30.715"/>
<polygon fill="midnightblue" stroke="midnightblue" points="263.5686,-30.6022 260.0685,-20.6022 256.5686,-30.6023 263.5686,-30.6022"/>
</g>
</g>
</svg>
