<?xml version="1.0" encoding="UTF-8" standalone="no"?>
<!DOCTYPE svg PUBLIC "-//W3C//DTD SVG 1.1//EN"
 "http://www.w3.org/Graphics/SVG/1.1/DTD/svg11.dtd">
<!-- Generated by graphviz version 2.41.20170704.2329 (20170704.2329)
 -->
<!-- Title: class/FileHeader.cpp Pages: 1 -->
<svg width="118pt" height="143pt"
 viewBox="0.00 0.00 118.34 143.00" xmlns="http://www.w3.org/2000/svg" xmlns:xlink="http://www.w3.org/1999/xlink">
<g id="graph0" class="graph" transform="scale(1 1) rotate(0) translate(4 139)">
<title>class/FileHeader.cpp</title>
<polygon fill="white" stroke="transparent" points="-4,4 -4,-139 114.339,-139 114.339,4 -4,4"/>
<!-- Node1 -->
<g id="node1" class="node">
<title>Node1</title>
<polygon fill="#bfbfbf" stroke="black" points=".995,-114.5 .995,-134.5 110.339,-134.5 110.339,-114.5 .995,-114.5"/>
<text text-anchor="middle" x="55.667" y="-121.5" font-family="Helvetica,sans-Serif" font-size="10.00">class/FileHeader.cpp</text>
</g>
<!-- Node2 -->
<g id="node2" class="node">
<title>Node2</title>
<g id="a_node2"><a xlink:href="FileHeader_8h.html" target="_top" xlink:title="Arquivo de declaração da classe FileHeader. ">
<polygon fill="white" stroke="black" points="19.053,-57.5 19.053,-77.5 92.281,-77.5 92.281,-57.5 19.053,-57.5"/>
<text text-anchor="middle" x="55.667" y="-64.5" font-family="Helvetica,sans-Serif" font-size="10.00">FileHeader.h</text>
</a>
</g>
</g>
<!-- Node1&#45;&gt;Node2 -->
<g id="edge1" class="edge">
<title>Node1&#45;&gt;Node2</title>
<path fill="none" stroke="midnightblue" d="M55.667,-114.3095C55.667,-106.9335 55.667,-96.72 55.667,-87.715"/>
<polygon fill="midnightblue" stroke="midnightblue" points="59.1671,-87.6022 55.667,-77.6022 52.1671,-87.6023 59.1671,-87.6022"/>
</g>
<!-- Node3 -->
<g id="node3" class="node">
<title>Node3</title>
<polygon fill="white" stroke="#bfbfbf" points="0,-.5 0,-20.5 49.334,-20.5 49.334,-.5 0,-.5"/>
<text text-anchor="middle" x="24.667" y="-7.5" font-family="Helvetica,sans-Serif" font-size="10.00">fstream</text>
</g>
<!-- Node2&#45;&gt;Node3 -->
<g id="edge2" class="edge">
<title>Node2&#45;&gt;Node3</title>
<path fill="none" stroke="midnightblue" d="M50.1248,-57.3095C45.937,-49.6093 40.0673,-38.8166 35.0193,-29.5349"/>
<polygon fill="midnightblue" stroke="midnightblue" points="38.0137,-27.7149 30.1612,-20.6022 31.8643,-31.0593 38.0137,-27.7149"/>
</g>
<!-- Node4 -->
<g id="node4" class="node">
<title>Node4</title>
<polygon fill="white" stroke="#bfbfbf" points="67.4445,-.5 67.4445,-20.5 107.8895,-20.5 107.8895,-.5 67.4445,-.5"/>
<text text-anchor="middle" x="87.667" y="-7.5" font-family="Helvetica,sans-Serif" font-size="10.00">string</text>
</g>
<!-- Node2&#45;&gt;Node4 -->
<g id="edge3" class="edge">
<title>Node2&#45;&gt;Node4</title>
<path fill="none" stroke="midnightblue" d="M61.388,-57.3095C65.7109,-49.6093 71.77,-38.8166 76.9808,-29.5349"/>
<polygon fill="midnightblue" stroke="midnightblue" points="80.1521,-31.0355 81.9956,-20.6022 74.0482,-27.6087 80.1521,-31.0355"/>
</g>
</g>
</svg>
