<?xml version="1.0" encoding="UTF-8" standalone="no"?>
<!DOCTYPE svg PUBLIC "-//W3C//DTD SVG 1.1//EN"
 "http://www.w3.org/Graphics/SVG/1.1/DTD/svg11.dtd">
<!-- Generated by graphviz version 2.41.20170704.2329 (20170704.2329)
 -->
<!-- Title: src/FileHeap.cpp Pages: 1 -->
<svg width="336pt" height="257pt"
 viewBox="0.00 0.00 335.73 257.00" xmlns="http://www.w3.org/2000/svg" xmlns:xlink="http://www.w3.org/1999/xlink">
<g id="graph0" class="graph" transform="scale(1 1) rotate(0) translate(4 253)">
<title>src/FileHeap.cpp</title>
<polygon fill="white" stroke="transparent" points="-4,4 -4,-253 331.726,-253 331.726,4 -4,4"/>
<!-- Node1 -->
<g id="node1" class="node">
<title>Node1</title>
<polygon fill="#bfbfbf" stroke="black" points="0,-228.5 0,-248.5 91.007,-248.5 91.007,-228.5 0,-228.5"/>
<text text-anchor="middle" x="45.5035" y="-235.5" font-family="Helvetica,sans-Serif" font-size="10.00">src/FileHeap.cpp</text>
</g>
<!-- Node2 -->
<g id="node2" class="node">
<title>Node2</title>
<g id="a_node2"><a xlink:href="FileHeap_8h.html" target="_top" xlink:title="Arquivo de declaração da classe FileHeap. ">
<polygon fill="white" stroke="black" points="13.3335,-171.5 13.3335,-191.5 77.6735,-191.5 77.6735,-171.5 13.3335,-171.5"/>
<text text-anchor="middle" x="45.5035" y="-178.5" font-family="Helvetica,sans-Serif" font-size="10.00">FileHeap.h</text>
</a>
</g>
</g>
<!-- Node1&#45;&gt;Node2 -->
<g id="edge1" class="edge">
<title>Node1&#45;&gt;Node2</title>
<path fill="none" stroke="midnightblue" d="M45.5035,-228.3095C45.5035,-220.9335 45.5035,-210.72 45.5035,-201.715"/>
<polygon fill="midnightblue" stroke="midnightblue" points="49.0036,-201.6022 45.5035,-191.6022 42.0036,-201.6023 49.0036,-201.6022"/>
</g>
<!-- Node3 -->
<g id="node3" class="node">
<title>Node3</title>
<g id="a_node3"><a xlink:href="File_8h.html" target="_top" xlink:title="Arquivo de declaração da classe File. ">
<polygon fill="white" stroke="black" points="105.2815,-114.5 105.2815,-134.5 145.7255,-134.5 145.7255,-114.5 105.2815,-114.5"/>
<text text-anchor="middle" x="125.5035" y="-121.5" font-family="Helvetica,sans-Serif" font-size="10.00">File.h</text>
</a>
</g>
</g>
<!-- Node2&#45;&gt;Node3 -->
<g id="edge2" class="edge">
<title>Node2&#45;&gt;Node3</title>
<path fill="none" stroke="midnightblue" d="M59.8059,-171.3095C71.7509,-162.7987 88.998,-150.5102 102.8237,-140.6594"/>
<polygon fill="midnightblue" stroke="midnightblue" points="105.2117,-143.2555 111.3249,-134.6022 101.1497,-137.5545 105.2117,-143.2555"/>
</g>
<!-- Node4 -->
<g id="node4" class="node">
<title>Node4</title>
<polygon fill="white" stroke="#bfbfbf" points="13.8365,-.5 13.8365,-20.5 63.1705,-20.5 63.1705,-.5 13.8365,-.5"/>
<text text-anchor="middle" x="38.5035" y="-7.5" font-family="Helvetica,sans-Serif" font-size="10.00">fstream</text>
</g>
<!-- Node2&#45;&gt;Node4 -->
<g id="edge11" class="edge">
<title>Node2&#45;&gt;Node4</title>
<path fill="none" stroke="midnightblue" d="M45.0866,-171.3153C43.961,-143.8178 40.844,-67.6748 39.3386,-30.8993"/>
<polygon fill="midnightblue" stroke="midnightblue" points="42.8333,-30.696 38.9271,-20.8476 35.8391,-30.9824 42.8333,-30.696"/>
</g>
<!-- Node3&#45;&gt;Node4 -->
<g id="edge3" class="edge">
<title>Node3&#45;&gt;Node4</title>
<path fill="none" stroke="midnightblue" d="M105.0587,-115.3556C89.8074,-107.5261 69.5983,-94.8454 57.5035,-78 47.5309,-64.1103 42.7819,-45.1434 40.5266,-30.8514"/>
<polygon fill="midnightblue" stroke="midnightblue" points="43.952,-30.0476 39.2003,-20.578 37.0096,-30.9439 43.952,-30.0476"/>
</g>
<!-- Node5 -->
<g id="node5" class="node">
<title>Node5</title>
<polygon fill="white" stroke="#bfbfbf" points="287.281,-.5 287.281,-20.5 327.726,-20.5 327.726,-.5 287.281,-.5"/>
<text text-anchor="middle" x="307.5035" y="-7.5" font-family="Helvetica,sans-Serif" font-size="10.00">string</text>
</g>
<!-- Node3&#45;&gt;Node5 -->
<g id="edge4" class="edge">
<title>Node3&#45;&gt;Node5</title>
<path fill="none" stroke="midnightblue" d="M146.0024,-121.3311C185.5635,-114.8116 270.3258,-98.7502 290.5035,-78 302.5878,-65.5728 306.4674,-45.8807 307.5427,-30.9662"/>
<polygon fill="midnightblue" stroke="midnightblue" points="311.0504,-30.8097 307.9078,-20.6916 304.0548,-30.561 311.0504,-30.8097"/>
</g>
<!-- Node6 -->
<g id="node6" class="node">
<title>Node6</title>
<g id="a_node6"><a xlink:href="FileHeader_8h.html" target="_top" xlink:title="Arquivo de declaração da classe FileHeader. ">
<polygon fill="white" stroke="black" points="207.8895,-57.5 207.8895,-77.5 281.1175,-77.5 281.1175,-57.5 207.8895,-57.5"/>
<text text-anchor="middle" x="244.5035" y="-64.5" font-family="Helvetica,sans-Serif" font-size="10.00">FileHeader.h</text>
</a>
</g>
</g>
<!-- Node3&#45;&gt;Node6 -->
<g id="edge5" class="edge">
<title>Node3&#45;&gt;Node6</title>
<path fill="none" stroke="midnightblue" d="M145.9603,-114.7014C164.7468,-105.7028 192.8305,-92.2509 214.2169,-82.007"/>
<polygon fill="midnightblue" stroke="midnightblue" points="216.0076,-85.0302 223.5144,-77.5536 212.9836,-78.717 216.0076,-85.0302"/>
</g>
<!-- Node8 -->
<g id="node8" class="node">
<title>Node8</title>
<g id="a_node8"><a xlink:href="Block_8h.html" target="_top" xlink:title="Arquivo de declaração da classe Block. ">
<polygon fill="white" stroke="black" points="66.111,-57.5 66.111,-77.5 114.896,-77.5 114.896,-57.5 66.111,-57.5"/>
<text text-anchor="middle" x="90.5035" y="-64.5" font-family="Helvetica,sans-Serif" font-size="10.00">Block.h</text>
</a>
</g>
</g>
<!-- Node3&#45;&gt;Node8 -->
<g id="edge9" class="edge">
<title>Node3&#45;&gt;Node8</title>
<path fill="none" stroke="midnightblue" d="M119.2462,-114.3095C114.4682,-106.5282 107.7512,-95.589 102.0119,-86.2423"/>
<polygon fill="midnightblue" stroke="midnightblue" points="104.9219,-84.2925 96.7066,-77.6022 98.9567,-87.9554 104.9219,-84.2925"/>
</g>
<!-- Node9 -->
<g id="node9" class="node">
<title>Node9</title>
<g id="a_node9"><a xlink:href="Record_8h.html" target="_top" xlink:title="Arquivo de declaração da classe Record. ">
<polygon fill="white" stroke="black" points="133.222,-57.5 133.222,-77.5 189.785,-77.5 189.785,-57.5 133.222,-57.5"/>
<text text-anchor="middle" x="161.5035" y="-64.5" font-family="Helvetica,sans-Serif" font-size="10.00">Record.h</text>
</a>
</g>
</g>
<!-- Node3&#45;&gt;Node9 -->
<g id="edge10" class="edge">
<title>Node3&#45;&gt;Node9</title>
<path fill="none" stroke="midnightblue" d="M131.9396,-114.3095C136.8541,-106.5282 143.7631,-95.589 149.6663,-86.2423"/>
<polygon fill="midnightblue" stroke="midnightblue" points="152.7424,-87.9261 155.1231,-77.6022 146.8239,-84.1881 152.7424,-87.9261"/>
</g>
<!-- Node6&#45;&gt;Node4 -->
<g id="edge6" class="edge">
<title>Node6&#45;&gt;Node4</title>
<path fill="none" stroke="midnightblue" d="M208.149,-57.4408C170.0351,-46.8947 110.5847,-30.4448 73.131,-20.0814"/>
<polygon fill="midnightblue" stroke="midnightblue" points="73.7577,-16.6233 63.1864,-17.3297 71.8909,-23.3698 73.7577,-16.6233"/>
</g>
<!-- Node6&#45;&gt;Node5 -->
<g id="edge7" class="edge">
<title>Node6&#45;&gt;Node5</title>
<path fill="none" stroke="midnightblue" d="M255.7666,-57.3095C264.9046,-49.0419 277.9827,-37.2093 288.7035,-27.5096"/>
<polygon fill="midnightblue" stroke="midnightblue" points="291.2707,-29.9068 296.3379,-20.6022 286.5743,-24.716 291.2707,-29.9068"/>
</g>
<!-- Node7 -->
<g id="node7" class="node">
<title>Node7</title>
<g id="a_node7"><a xlink:href="Date_8h.html" target="_top" xlink:title="Arquivo de declaração da classe Date. ">
<polygon fill="white" stroke="black" points="221.7765,-.5 221.7765,-20.5 267.2305,-20.5 267.2305,-.5 221.7765,-.5"/>
<text text-anchor="middle" x="244.5035" y="-7.5" font-family="Helvetica,sans-Serif" font-size="10.00">Date.h</text>
</a>
</g>
</g>
<!-- Node6&#45;&gt;Node7 -->
<g id="edge8" class="edge">
<title>Node6&#45;&gt;Node7</title>
<path fill="none" stroke="midnightblue" d="M244.5035,-57.3095C244.5035,-49.9335 244.5035,-39.72 244.5035,-30.715"/>
<polygon fill="midnightblue" stroke="midnightblue" points="248.0036,-30.6022 244.5035,-20.6022 241.0036,-30.6023 248.0036,-30.6022"/>
</g>
</g>
</svg>
