<?xml version="1.0" encoding="UTF-8" standalone="no"?>
<!DOCTYPE svg PUBLIC "-//W3C//DTD SVG 1.1//EN"
 "http://www.w3.org/Graphics/SVG/1.1/DTD/svg11.dtd">
<!-- Generated by graphviz version 2.41.20170704.2329 (20170704.2329)
 -->
<!-- Title: src/FileSequential.cpp Pages: 1 -->
<svg width="386pt" height="257pt"
 viewBox="0.00 0.00 385.89 257.00" xmlns="http://www.w3.org/2000/svg" xmlns:xlink="http://www.w3.org/1999/xlink">
<g id="graph0" class="graph" transform="scale(1 1) rotate(0) translate(4 253)">
<title>src/FileSequential.cpp</title>
<polygon fill="white" stroke="transparent" points="-4,4 -4,-253 381.8895,-253 381.8895,4 -4,4"/>
<!-- Node1 -->
<g id="node1" class="node">
<title>Node1</title>
<polygon fill="#bfbfbf" stroke="black" points="9.4915,-228.5 9.4915,-248.5 123.8425,-248.5 123.8425,-228.5 9.4915,-228.5"/>
<text text-anchor="middle" x="66.667" y="-235.5" font-family="Helvetica,sans-Serif" font-size="10.00">src/FileSequential.cpp</text>
</g>
<!-- Node2 -->
<g id="node2" class="node">
<title>Node2</title>
<g id="a_node2"><a xlink:href="FileSequential_8h.html" target="_top" xlink:title="Arquivo de declaração da classe FileSequential. ">
<polygon fill="white" stroke="black" points="22.825,-171.5 22.825,-191.5 110.509,-191.5 110.509,-171.5 22.825,-171.5"/>
<text text-anchor="middle" x="66.667" y="-178.5" font-family="Helvetica,sans-Serif" font-size="10.00">FileSequential.h</text>
</a>
</g>
</g>
<!-- Node1&#45;&gt;Node2 -->
<g id="edge1" class="edge">
<title>Node1&#45;&gt;Node2</title>
<path fill="none" stroke="midnightblue" d="M66.667,-228.3095C66.667,-220.9335 66.667,-210.72 66.667,-201.715"/>
<polygon fill="midnightblue" stroke="midnightblue" points="70.1671,-201.6022 66.667,-191.6022 63.1671,-201.6023 70.1671,-201.6022"/>
</g>
<!-- Node3 -->
<g id="node3" class="node">
<title>Node3</title>
<g id="a_node3"><a xlink:href="File_8h.html" target="_top" xlink:title="Arquivo de declaração da classe File. ">
<polygon fill="white" stroke="black" points="127.445,-114.5 127.445,-134.5 167.889,-134.5 167.889,-114.5 127.445,-114.5"/>
<text text-anchor="middle" x="147.667" y="-121.5" font-family="Helvetica,sans-Serif" font-size="10.00">File.h</text>
</a>
</g>
</g>
<!-- Node2&#45;&gt;Node3 -->
<g id="edge2" class="edge">
<title>Node2&#45;&gt;Node3</title>
<path fill="none" stroke="midnightblue" d="M81.1482,-171.3095C93.3577,-162.7177 111.0383,-150.2758 125.1027,-140.3786"/>
<polygon fill="midnightblue" stroke="midnightblue" points="127.1474,-143.2195 133.3112,-134.6022 123.1189,-137.4949 127.1474,-143.2195"/>
</g>
<!-- Node4 -->
<g id="node4" class="node">
<title>Node4</title>
<polygon fill="white" stroke="#bfbfbf" points="0,-.5 0,-20.5 49.334,-20.5 49.334,-.5 0,-.5"/>
<text text-anchor="middle" x="24.667" y="-7.5" font-family="Helvetica,sans-Serif" font-size="10.00">fstream</text>
</g>
<!-- Node2&#45;&gt;Node4 -->
<g id="edge12" class="edge">
<title>Node2&#45;&gt;Node4</title>
<path fill="none" stroke="midnightblue" d="M61.738,-171.2203C53.244,-152.9518 36.0503,-113.4161 28.667,-78 25.4102,-62.3778 24.4843,-44.3137 24.3321,-30.8061"/>
<polygon fill="midnightblue" stroke="midnightblue" points="27.8323,-30.6919 24.3521,-20.6849 20.8323,-30.678 27.8323,-30.6919"/>
</g>
<!-- Node3&#45;&gt;Node4 -->
<g id="edge3" class="edge">
<title>Node3&#45;&gt;Node4</title>
<path fill="none" stroke="midnightblue" d="M127.3666,-120.8037C103.8403,-115.4589 65.5144,-103.2967 43.667,-78 32.38,-64.931 27.7677,-45.6219 25.8987,-30.9999"/>
<polygon fill="midnightblue" stroke="midnightblue" points="29.3705,-30.5364 24.939,-20.9129 22.4019,-31.1995 29.3705,-30.5364"/>
</g>
<!-- Node5 -->
<g id="node5" class="node">
<title>Node5</title>
<polygon fill="white" stroke="#bfbfbf" points="337.4445,-.5 337.4445,-20.5 377.8895,-20.5 377.8895,-.5 337.4445,-.5"/>
<text text-anchor="middle" x="357.667" y="-7.5" font-family="Helvetica,sans-Serif" font-size="10.00">string</text>
</g>
<!-- Node3&#45;&gt;Node5 -->
<g id="edge4" class="edge">
<title>Node3&#45;&gt;Node5</title>
<path fill="none" stroke="midnightblue" d="M168.1497,-122.2388C212.6717,-116.9148 316.2322,-102.1846 340.667,-78 352.9869,-65.8063 356.838,-46.086 357.8428,-31.1016"/>
<polygon fill="midnightblue" stroke="midnightblue" points="361.3512,-30.8686 358.1495,-20.7691 354.3543,-30.6608 361.3512,-30.8686"/>
</g>
<!-- Node6 -->
<g id="node6" class="node">
<title>Node6</title>
<g id="a_node6"><a xlink:href="FileHeader_8h.html" target="_top" xlink:title="Arquivo de declaração da classe FileHeader. ">
<polygon fill="white" stroke="black" points="258.053,-57.5 258.053,-77.5 331.281,-77.5 331.281,-57.5 258.053,-57.5"/>
<text text-anchor="middle" x="294.667" y="-64.5" font-family="Helvetica,sans-Serif" font-size="10.00">FileHeader.h</text>
</a>
</g>
</g>
<!-- Node3&#45;&gt;Node6 -->
<g id="edge5" class="edge">
<title>Node3&#45;&gt;Node6</title>
<path fill="none" stroke="midnightblue" d="M168.1067,-116.5744C191.6063,-107.4623 230.6008,-92.342 259.1062,-81.2889"/>
<polygon fill="midnightblue" stroke="midnightblue" points="260.6507,-84.444 268.7089,-77.5654 258.1199,-77.9175 260.6507,-84.444"/>
</g>
<!-- Node8 -->
<g id="node8" class="node">
<title>Node8</title>
<g id="a_node8"><a xlink:href="Block_8h.html" target="_top" xlink:title="Arquivo de declaração da classe Block. ">
<polygon fill="white" stroke="black" points="52.2745,-57.5 52.2745,-77.5 101.0595,-77.5 101.0595,-57.5 52.2745,-57.5"/>
<text text-anchor="middle" x="76.667" y="-64.5" font-family="Helvetica,sans-Serif" font-size="10.00">Block.h</text>
</a>
</g>
</g>
<!-- Node3&#45;&gt;Node8 -->
<g id="edge9" class="edge">
<title>Node3&#45;&gt;Node8</title>
<path fill="none" stroke="midnightblue" d="M134.9736,-114.3095C124.4734,-105.8798 109.3568,-93.7439 97.1468,-83.9415"/>
<polygon fill="midnightblue" stroke="midnightblue" points="99.2396,-81.1333 89.2505,-77.6022 94.8573,-86.5919 99.2396,-81.1333"/>
</g>
<!-- Node9 -->
<g id="node9" class="node">
<title>Node9</title>
<g id="a_node9"><a xlink:href="Record_8h.html" target="_top" xlink:title="Arquivo de declaração da classe Record. ">
<polygon fill="white" stroke="black" points="119.3855,-57.5 119.3855,-77.5 175.9485,-77.5 175.9485,-57.5 119.3855,-57.5"/>
<text text-anchor="middle" x="147.667" y="-64.5" font-family="Helvetica,sans-Serif" font-size="10.00">Record.h</text>
</a>
</g>
</g>
<!-- Node3&#45;&gt;Node9 -->
<g id="edge10" class="edge">
<title>Node3&#45;&gt;Node9</title>
<path fill="none" stroke="midnightblue" d="M147.667,-114.3095C147.667,-106.9335 147.667,-96.72 147.667,-87.715"/>
<polygon fill="midnightblue" stroke="midnightblue" points="151.1671,-87.6022 147.667,-77.6022 144.1671,-87.6023 151.1671,-87.6022"/>
</g>
<!-- Node10 -->
<g id="node10" class="node">
<title>Node10</title>
<g id="a_node10"><a xlink:href="Field_8h.html" target="_top" xlink:title="Arquivo de declaração da classe Field. ">
<polygon fill="white" stroke="black" points="193.6655,-57.5 193.6655,-77.5 239.6685,-77.5 239.6685,-57.5 193.6655,-57.5"/>
<text text-anchor="middle" x="216.667" y="-64.5" font-family="Helvetica,sans-Serif" font-size="10.00">Field.h</text>
</a>
</g>
</g>
<!-- Node3&#45;&gt;Node10 -->
<g id="edge11" class="edge">
<title>Node3&#45;&gt;Node10</title>
<path fill="none" stroke="midnightblue" d="M160.0028,-114.3095C170.1092,-105.9608 184.616,-93.9769 196.4211,-84.2249"/>
<polygon fill="midnightblue" stroke="midnightblue" points="198.9574,-86.6695 204.438,-77.6022 194.4992,-81.2727 198.9574,-86.6695"/>
</g>
<!-- Node6&#45;&gt;Node4 -->
<g id="edge6" class="edge">
<title>Node6&#45;&gt;Node4</title>
<path fill="none" stroke="midnightblue" d="M258.0233,-59.0671C254.8604,-58.3601 251.7084,-57.6627 248.667,-57 181.8426,-42.4388 103.5685,-26.4279 59.4818,-17.5056"/>
<polygon fill="midnightblue" stroke="midnightblue" points="60.0566,-14.0511 49.5614,-15.5008 58.6699,-20.9124 60.0566,-14.0511"/>
</g>
<!-- Node6&#45;&gt;Node5 -->
<g id="edge7" class="edge">
<title>Node6&#45;&gt;Node5</title>
<path fill="none" stroke="midnightblue" d="M305.9301,-57.3095C315.0681,-49.0419 328.1462,-37.2093 338.867,-27.5096"/>
<polygon fill="midnightblue" stroke="midnightblue" points="341.4342,-29.9068 346.5014,-20.6022 336.7378,-24.716 341.4342,-29.9068"/>
</g>
<!-- Node7 -->
<g id="node7" class="node">
<title>Node7</title>
<g id="a_node7"><a xlink:href="Date_8h.html" target="_top" xlink:title="Arquivo de declaração da classe Date. ">
<polygon fill="white" stroke="black" points="271.94,-.5 271.94,-20.5 317.394,-20.5 317.394,-.5 271.94,-.5"/>
<text text-anchor="middle" x="294.667" y="-7.5" font-family="Helvetica,sans-Serif" font-size="10.00">Date.h</text>
</a>
</g>
</g>
<!-- Node6&#45;&gt;Node7 -->
<g id="edge8" class="edge">
<title>Node6&#45;&gt;Node7</title>
<path fill="none" stroke="midnightblue" d="M294.667,-57.3095C294.667,-49.9335 294.667,-39.72 294.667,-30.715"/>
<polygon fill="midnightblue" stroke="midnightblue" points="298.1671,-30.6022 294.667,-20.6022 291.1671,-30.6023 298.1671,-30.6022"/>
</g>
</g>
</svg>
