<?xml version="1.0" encoding="UTF-8" standalone="no"?>
<!DOCTYPE svg PUBLIC "-//W3C//DTD SVG 1.1//EN"
 "http://www.w3.org/Graphics/SVG/1.1/DTD/svg11.dtd">
<!-- Generated by graphviz version 2.41.20170704.2329 (20170704.2329)
 -->
<!-- Title: include/File.h Pages: 1 -->
<svg width="378pt" height="143pt"
 viewBox="0.00 0.00 377.67 143.00" xmlns="http://www.w3.org/2000/svg" xmlns:xlink="http://www.w3.org/1999/xlink">
<g id="graph0" class="graph" transform="scale(1 1) rotate(0) translate(4 139)">
<title>include/File.h</title>
<polygon fill="white" stroke="transparent" points="-4,4 -4,-139 373.6685,-139 373.6685,4 -4,4"/>
<!-- Node1 -->
<g id="node1" class="node">
<title>Node1</title>
<polygon fill="#bfbfbf" stroke="black" points="143.2185,-114.5 143.2185,-134.5 218.1155,-134.5 218.1155,-114.5 143.2185,-114.5"/>
<text text-anchor="middle" x="180.667" y="-121.5" font-family="Helvetica,sans-Serif" font-size="10.00">include/File.h</text>
</g>
<!-- Node2 -->
<g id="node2" class="node">
<title>Node2</title>
<polygon fill="white" stroke="#bfbfbf" points="0,-.5 0,-20.5 49.334,-20.5 49.334,-.5 0,-.5"/>
<text text-anchor="middle" x="24.667" y="-7.5" font-family="Helvetica,sans-Serif" font-size="10.00">fstream</text>
</g>
<!-- Node1&#45;&gt;Node2 -->
<g id="edge1" class="edge">
<title>Node1&#45;&gt;Node2</title>
<path fill="none" stroke="midnightblue" d="M143.1532,-115.9376C107.5539,-107.0982 57.4953,-92.5789 43.667,-78 31.6497,-65.3305 27.1342,-45.6676 25.4867,-30.8256"/>
<polygon fill="midnightblue" stroke="midnightblue" points="28.9582,-30.3167 24.7091,-20.6112 21.9784,-30.8481 28.9582,-30.3167"/>
</g>
<!-- Node3 -->
<g id="node3" class="node">
<title>Node3</title>
<polygon fill="white" stroke="#bfbfbf" points="132.4445,-.5 132.4445,-20.5 172.8895,-20.5 172.8895,-.5 132.4445,-.5"/>
<text text-anchor="middle" x="152.667" y="-7.5" font-family="Helvetica,sans-Serif" font-size="10.00">string</text>
</g>
<!-- Node1&#45;&gt;Node3 -->
<g id="edge2" class="edge">
<title>Node1&#45;&gt;Node3</title>
<path fill="none" stroke="midnightblue" d="M178.1822,-114.3833C173.586,-95.6703 163.677,-55.3266 157.6497,-30.7866"/>
<polygon fill="midnightblue" stroke="midnightblue" points="160.9708,-29.6344 155.1865,-20.7579 154.1728,-31.3042 160.9708,-29.6344"/>
</g>
<!-- Node4 -->
<g id="node4" class="node">
<title>Node4</title>
<g id="a_node4"><a xlink:href="FileHeader_8h.html" target="_top" xlink:title="Arquivo de declaração da classe FileHeader. ">
<polygon fill="white" stroke="black" points="53.053,-57.5 53.053,-77.5 126.281,-77.5 126.281,-57.5 53.053,-57.5"/>
<text text-anchor="middle" x="89.667" y="-64.5" font-family="Helvetica,sans-Serif" font-size="10.00">FileHeader.h</text>
</a>
</g>
</g>
<!-- Node1&#45;&gt;Node4 -->
<g id="edge3" class="edge">
<title>Node1&#45;&gt;Node4</title>
<path fill="none" stroke="midnightblue" d="M164.398,-114.3095C150.5518,-105.6366 130.4425,-93.0407 114.571,-83.0992"/>
<polygon fill="midnightblue" stroke="midnightblue" points="116.1278,-79.9445 105.7951,-77.6022 112.4119,-85.8768 116.1278,-79.9445"/>
</g>
<!-- Node6 -->
<g id="node6" class="node">
<title>Node6</title>
<g id="a_node6"><a xlink:href="Block_8h.html" target="_top" xlink:title="Arquivo de declaração da classe Block. ">
<polygon fill="white" stroke="black" points="182.2745,-57.5 182.2745,-77.5 231.0595,-77.5 231.0595,-57.5 182.2745,-57.5"/>
<text text-anchor="middle" x="206.667" y="-64.5" font-family="Helvetica,sans-Serif" font-size="10.00">Block.h</text>
</a>
</g>
</g>
<!-- Node1&#45;&gt;Node6 -->
<g id="edge7" class="edge">
<title>Node1&#45;&gt;Node6</title>
<path fill="none" stroke="midnightblue" d="M185.3153,-114.3095C188.7907,-106.6903 193.6472,-96.0435 197.8505,-86.8285"/>
<polygon fill="midnightblue" stroke="midnightblue" points="201.0932,-88.153 202.059,-77.6022 194.7245,-85.2479 201.0932,-88.153"/>
</g>
<!-- Node7 -->
<g id="node7" class="node">
<title>Node7</title>
<g id="a_node7"><a xlink:href="Record_8h.html" target="_top" xlink:title="Arquivo de declaração da classe Record. ">
<polygon fill="white" stroke="black" points="249.3855,-57.5 249.3855,-77.5 305.9485,-77.5 305.9485,-57.5 249.3855,-57.5"/>
<text text-anchor="middle" x="277.667" y="-64.5" font-family="Helvetica,sans-Serif" font-size="10.00">Record.h</text>
</a>
</g>
</g>
<!-- Node1&#45;&gt;Node7 -->
<g id="edge8" class="edge">
<title>Node1&#45;&gt;Node7</title>
<path fill="none" stroke="midnightblue" d="M198.0087,-114.3095C212.9058,-105.5556 234.6043,-92.8049 251.5942,-82.8211"/>
<polygon fill="midnightblue" stroke="midnightblue" points="253.6271,-85.6862 260.4755,-77.6022 250.0806,-79.651 253.6271,-85.6862"/>
</g>
<!-- Node8 -->
<g id="node8" class="node">
<title>Node8</title>
<g id="a_node8"><a xlink:href="Field_8h.html" target="_top" xlink:title="Arquivo de declaração da classe Field. ">
<polygon fill="white" stroke="black" points="323.6655,-57.5 323.6655,-77.5 369.6685,-77.5 369.6685,-57.5 323.6655,-57.5"/>
<text text-anchor="middle" x="346.667" y="-64.5" font-family="Helvetica,sans-Serif" font-size="10.00">Field.h</text>
</a>
</g>
</g>
<!-- Node1&#45;&gt;Node8 -->
<g id="edge9" class="edge">
<title>Node1&#45;&gt;Node8</title>
<path fill="none" stroke="midnightblue" d="M209.9624,-114.4408C239.0634,-104.4482 283.6003,-89.1554 313.8693,-78.7619"/>
<polygon fill="midnightblue" stroke="midnightblue" points="315.2232,-81.9976 323.5445,-75.4397 312.9498,-75.377 315.2232,-81.9976"/>
</g>
<!-- Node4&#45;&gt;Node2 -->
<g id="edge4" class="edge">
<title>Node4&#45;&gt;Node2</title>
<path fill="none" stroke="midnightblue" d="M78.0463,-57.3095C68.5258,-48.9608 54.86,-36.9769 43.7393,-27.2249"/>
<polygon fill="midnightblue" stroke="midnightblue" points="46.0134,-24.564 36.1871,-20.6022 41.3981,-29.827 46.0134,-24.564"/>
</g>
<!-- Node4&#45;&gt;Node3 -->
<g id="edge5" class="edge">
<title>Node4&#45;&gt;Node3</title>
<path fill="none" stroke="midnightblue" d="M100.9301,-57.3095C110.0681,-49.0419 123.1462,-37.2093 133.867,-27.5096"/>
<polygon fill="midnightblue" stroke="midnightblue" points="136.4342,-29.9068 141.5014,-20.6022 131.7378,-24.716 136.4342,-29.9068"/>
</g>
<!-- Node5 -->
<g id="node5" class="node">
<title>Node5</title>
<g id="a_node5"><a xlink:href="Date_8h.html" target="_top" xlink:title="Arquivo de declaração da classe Date. ">
<polygon fill="white" stroke="black" points="66.94,-.5 66.94,-20.5 112.394,-20.5 112.394,-.5 66.94,-.5"/>
<text text-anchor="middle" x="89.667" y="-7.5" font-family="Helvetica,sans-Serif" font-size="10.00">Date.h</text>
</a>
</g>
</g>
<!-- Node4&#45;&gt;Node5 -->
<g id="edge6" class="edge">
<title>Node4&#45;&gt;Node5</title>
<path fill="none" stroke="midnightblue" d="M89.667,-57.3095C89.667,-49.9335 89.667,-39.72 89.667,-30.715"/>
<polygon fill="midnightblue" stroke="midnightblue" points="93.1671,-30.6022 89.667,-20.6022 86.1671,-30.6023 93.1671,-30.6022"/>
</g>
</g>
</svg>
