<?xml version="1.0" encoding="UTF-8" standalone="no"?>
<!DOCTYPE svg PUBLIC "-//W3C//DTD SVG 1.1//EN"
 "http://www.w3.org/Graphics/SVG/1.1/DTD/svg11.dtd">
<!-- Generated by graphviz version 2.41.20170704.2329 (20170704.2329)
 -->
<!-- Title: include/FileHeap.h Pages: 1 -->
<svg width="174pt" height="86pt"
 viewBox="0.00 0.00 173.78 86.00" xmlns="http://www.w3.org/2000/svg" xmlns:xlink="http://www.w3.org/1999/xlink">
<g id="graph0" class="graph" transform="scale(1 1) rotate(0) translate(4 82)">
<title>include/FileHeap.h</title>
<polygon fill="white" stroke="transparent" points="-4,4 -4,-82 169.785,-82 169.785,4 -4,4"/>
<!-- Node1 -->
<g id="node1" class="node">
<title>Node1</title>
<polygon fill="#bfbfbf" stroke="black" points="42.107,-57.5 42.107,-77.5 140.9,-77.5 140.9,-57.5 42.107,-57.5"/>
<text text-anchor="middle" x="91.5035" y="-64.5" font-family="Helvetica,sans-Serif" font-size="10.00">include/FileHeap.h</text>
</g>
<!-- Node2 -->
<g id="node2" class="node">
<title>Node2</title>
<g id="a_node2"><a xlink:href="FileHeap_8cpp.html" target="_top" xlink:title="Arquivo de implementação da classe FileHeap. ">
<polygon fill="white" stroke="black" points="0,-.5 0,-20.5 91.007,-20.5 91.007,-.5 0,-.5"/>
<text text-anchor="middle" x="45.5035" y="-7.5" font-family="Helvetica,sans-Serif" font-size="10.00">src/FileHeap.cpp</text>
</a>
</g>
</g>
<!-- Node1&#45;&gt;Node2 -->
<g id="edge1" class="edge">
<title>Node1&#45;&gt;Node2</title>
<path fill="none" stroke="midnightblue" d="M76.9967,-49.5242C69.2937,-39.9792 60.1121,-28.602 53.6562,-20.6022"/>
<polygon fill="midnightblue" stroke="midnightblue" points="74.2757,-51.7256 83.2796,-57.3095 79.7231,-47.3295 74.2757,-51.7256"/>
</g>
<!-- Node3 -->
<g id="node3" class="node">
<title>Node3</title>
<g id="a_node3"><a xlink:href="main_8cpp.html" target="_top" xlink:title="main.cpp">
<polygon fill="white" stroke="black" points="109.222,-.5 109.222,-20.5 165.785,-20.5 165.785,-.5 109.222,-.5"/>
<text text-anchor="middle" x="137.5035" y="-7.5" font-family="Helvetica,sans-Serif" font-size="10.00">main.cpp</text>
</a>
</g>
</g>
<!-- Node1&#45;&gt;Node3 -->
<g id="edge2" class="edge">
<title>Node1&#45;&gt;Node3</title>
<path fill="none" stroke="midnightblue" d="M106.0103,-49.5242C113.7133,-39.9792 122.8949,-28.602 129.3508,-20.6022"/>
<polygon fill="midnightblue" stroke="midnightblue" points="103.2839,-47.3295 99.7274,-57.3095 108.7313,-51.7256 103.2839,-47.3295"/>
</g>
</g>
</svg>
