<?xml version="1.0" encoding="UTF-8" standalone="no"?>
<!DOCTYPE svg PUBLIC "-//W3C//DTD SVG 1.1//EN"
 "http://www.w3.org/Graphics/SVG/1.1/DTD/svg11.dtd">
<!-- Generated by graphviz version 2.41.20170704.2329 (20170704.2329)
 -->
<!-- Title: src/FileHeader.cpp Pages: 1 -->
<svg width="179pt" height="143pt"
 viewBox="0.00 0.00 179.39 143.00" xmlns="http://www.w3.org/2000/svg" xmlns:xlink="http://www.w3.org/1999/xlink">
<g id="graph0" class="graph" transform="scale(1 1) rotate(0) translate(4 139)">
<title>src/FileHeader.cpp</title>
<polygon fill="white" stroke="transparent" points="-4,4 -4,-139 175.394,-139 175.394,4 -4,4"/>
<!-- Node1 -->
<g id="node1" class="node">
<title>Node1</title>
<polygon fill="#bfbfbf" stroke="black" points="37.7195,-114.5 37.7195,-134.5 137.6145,-134.5 137.6145,-114.5 37.7195,-114.5"/>
<text text-anchor="middle" x="87.667" y="-121.5" font-family="Helvetica,sans-Serif" font-size="10.00">src/FileHeader.cpp</text>
</g>
<!-- Node2 -->
<g id="node2" class="node">
<title>Node2</title>
<g id="a_node2"><a xlink:href="FileHeader_8h.html" target="_top" xlink:title="Arquivo de declaração da classe FileHeader. ">
<polygon fill="white" stroke="black" points="51.053,-57.5 51.053,-77.5 124.281,-77.5 124.281,-57.5 51.053,-57.5"/>
<text text-anchor="middle" x="87.667" y="-64.5" font-family="Helvetica,sans-Serif" font-size="10.00">FileHeader.h</text>
</a>
</g>
</g>
<!-- Node1&#45;&gt;Node2 -->
<g id="edge1" class="edge">
<title>Node1&#45;&gt;Node2</title>
<path fill="none" stroke="midnightblue" d="M87.667,-114.3095C87.667,-106.9335 87.667,-96.72 87.667,-87.715"/>
<polygon fill="midnightblue" stroke="midnightblue" points="91.1671,-87.6022 87.667,-77.6022 84.1671,-87.6023 91.1671,-87.6022"/>
</g>
<!-- Node3 -->
<g id="node3" class="node">
<title>Node3</title>
<polygon fill="white" stroke="#bfbfbf" points="0,-.5 0,-20.5 49.334,-20.5 49.334,-.5 0,-.5"/>
<text text-anchor="middle" x="24.667" y="-7.5" font-family="Helvetica,sans-Serif" font-size="10.00">fstream</text>
</g>
<!-- Node2&#45;&gt;Node3 -->
<g id="edge2" class="edge">
<title>Node2&#45;&gt;Node3</title>
<path fill="none" stroke="midnightblue" d="M76.4039,-57.3095C67.2659,-49.0419 54.1878,-37.2093 43.467,-27.5096"/>
<polygon fill="midnightblue" stroke="midnightblue" points="45.5962,-24.716 35.8326,-20.6022 40.8998,-29.9068 45.5962,-24.716"/>
</g>
<!-- Node4 -->
<g id="node4" class="node">
<title>Node4</title>
<polygon fill="white" stroke="#bfbfbf" points="67.4445,-.5 67.4445,-20.5 107.8895,-20.5 107.8895,-.5 67.4445,-.5"/>
<text text-anchor="middle" x="87.667" y="-7.5" font-family="Helvetica,sans-Serif" font-size="10.00">string</text>
</g>
<!-- Node2&#45;&gt;Node4 -->
<g id="edge3" class="edge">
<title>Node2&#45;&gt;Node4</title>
<path fill="none" stroke="midnightblue" d="M87.667,-57.3095C87.667,-49.9335 87.667,-39.72 87.667,-30.715"/>
<polygon fill="midnightblue" stroke="midnightblue" points="91.1671,-30.6022 87.667,-20.6022 84.1671,-30.6023 91.1671,-30.6022"/>
</g>
<!-- Node5 -->
<g id="node5" class="node">
<title>Node5</title>
<g id="a_node5"><a xlink:href="Date_8h.html" target="_top" xlink:title="Arquivo de declaração da classe Date. ">
<polygon fill="white" stroke="black" points="125.94,-.5 125.94,-20.5 171.394,-20.5 171.394,-.5 125.94,-.5"/>
<text text-anchor="middle" x="148.667" y="-7.5" font-family="Helvetica,sans-Serif" font-size="10.00">Date.h</text>
</a>
</g>
</g>
<!-- Node2&#45;&gt;Node5 -->
<g id="edge4" class="edge">
<title>Node2&#45;&gt;Node5</title>
<path fill="none" stroke="midnightblue" d="M98.5726,-57.3095C107.4204,-49.0419 120.0834,-37.2093 130.4638,-27.5096"/>
<polygon fill="midnightblue" stroke="midnightblue" points="132.9389,-29.987 137.8558,-20.6022 128.1596,-24.8724 132.9389,-29.987"/>
</g>
</g>
</svg>
