<?xml version="1.0" encoding="UTF-8" standalone="no"?>
<!DOCTYPE svg PUBLIC "-//W3C//DTD SVG 1.1//EN"
 "http://www.w3.org/Graphics/SVG/1.1/DTD/svg11.dtd">
<!-- Generated by graphviz version 2.41.20170704.2329 (20170704.2329)
 -->
<!-- Title: class/FileSequential.h Pages: 1 -->
<svg width="206pt" height="86pt"
 viewBox="0.00 0.00 206.18 86.00" xmlns="http://www.w3.org/2000/svg" xmlns:xlink="http://www.w3.org/1999/xlink">
<g id="graph0" class="graph" transform="scale(1 1) rotate(0) translate(4 82)">
<title>class/FileSequential.h</title>
<polygon fill="white" stroke="transparent" points="-4,4 -4,-82 202.1815,-82 202.1815,4 -4,4"/>
<!-- Node1 -->
<g id="node1" class="node">
<title>Node1</title>
<polygon fill="#bfbfbf" stroke="black" points="25.661,-57.5 25.661,-77.5 138.902,-77.5 138.902,-57.5 25.661,-57.5"/>
<text text-anchor="middle" x="82.2815" y="-64.5" font-family="Helvetica,sans-Serif" font-size="10.00">class/FileSequential.h</text>
</g>
<!-- Node2 -->
<g id="node2" class="node">
<title>Node2</title>
<g id="a_node2"><a xlink:href="main_8cpp.html" target="_top" xlink:title="main.cpp">
<polygon fill="white" stroke="black" points="0,-.5 0,-20.5 56.563,-20.5 56.563,-.5 0,-.5"/>
<text text-anchor="middle" x="28.2815" y="-7.5" font-family="Helvetica,sans-Serif" font-size="10.00">main.cpp</text>
</a>
</g>
</g>
<!-- Node1&#45;&gt;Node2 -->
<g id="edge1" class="edge">
<title>Node1&#45;&gt;Node2</title>
<path fill="none" stroke="midnightblue" d="M65.5252,-49.8128C56.4272,-40.2094 45.5073,-28.6828 37.852,-20.6022"/>
<polygon fill="midnightblue" stroke="midnightblue" points="63.2091,-52.4571 72.6274,-57.3095 68.2907,-47.6429 63.2091,-52.4571"/>
</g>
<!-- Node3 -->
<g id="node3" class="node">
<title>Node3</title>
<g id="a_node3"><a xlink:href="FileSequential_8cpp.html" target="_top" xlink:title="Arquivo de implementação da classe FileSequential. ">
<polygon fill="white" stroke="black" points="74.3815,-.5 74.3815,-20.5 198.1815,-20.5 198.1815,-.5 74.3815,-.5"/>
<text text-anchor="middle" x="136.2815" y="-7.5" font-family="Helvetica,sans-Serif" font-size="10.00">class/FileSequential.cpp</text>
</a>
</g>
</g>
<!-- Node1&#45;&gt;Node3 -->
<g id="edge2" class="edge">
<title>Node1&#45;&gt;Node3</title>
<path fill="none" stroke="midnightblue" d="M99.0378,-49.8128C108.1358,-40.2094 119.0557,-28.6828 126.711,-20.6022"/>
<polygon fill="midnightblue" stroke="midnightblue" points="96.2723,-47.6429 91.9356,-57.3095 101.3539,-52.4571 96.2723,-47.6429"/>
</g>
</g>
</svg>
