<?xml version="1.0" encoding="UTF-8" standalone="no"?>
<!DOCTYPE svg PUBLIC "-//W3C//DTD SVG 1.1//EN"
 "http://www.w3.org/Graphics/SVG/1.1/DTD/svg11.dtd">
<!-- Generated by graphviz version 2.41.20170704.2329 (20170704.2329)
 -->
<!-- Title: include/FileHeap.h Pages: 1 -->
<svg width="340pt" height="200pt"
 viewBox="0.00 0.00 339.62 200.00" xmlns="http://www.w3.org/2000/svg" xmlns:xlink="http://www.w3.org/1999/xlink">
<g id="graph0" class="graph" transform="scale(1 1) rotate(0) translate(4 196)">
<title>include/FileHeap.h</title>
<polygon fill="white" stroke="transparent" points="-4,4 -4,-196 335.619,-196 335.619,4 -4,4"/>
<!-- Node1 -->
<g id="node1" class="node">
<title>Node1</title>
<polygon fill="#bfbfbf" stroke="black" points="0,-171.5 0,-191.5 98.793,-191.5 98.793,-171.5 0,-171.5"/>
<text text-anchor="middle" x="49.3965" y="-178.5" font-family="Helvetica,sans-Serif" font-size="10.00">include/FileHeap.h</text>
</g>
<!-- Node2 -->
<g id="node2" class="node">
<title>Node2</title>
<g id="a_node2"><a xlink:href="File_8h.html" target="_top" xlink:title="Arquivo de declaração da classe File. ">
<polygon fill="white" stroke="black" points="109.1745,-114.5 109.1745,-134.5 149.6185,-134.5 149.6185,-114.5 109.1745,-114.5"/>
<text text-anchor="middle" x="129.3965" y="-121.5" font-family="Helvetica,sans-Serif" font-size="10.00">File.h</text>
</a>
</g>
</g>
<!-- Node1&#45;&gt;Node2 -->
<g id="edge1" class="edge">
<title>Node1&#45;&gt;Node2</title>
<path fill="none" stroke="midnightblue" d="M63.6989,-171.3095C75.6439,-162.7987 92.891,-150.5102 106.7167,-140.6594"/>
<polygon fill="midnightblue" stroke="midnightblue" points="109.1047,-143.2555 115.2179,-134.6022 105.0427,-137.5545 109.1047,-143.2555"/>
</g>
<!-- Node3 -->
<g id="node3" class="node">
<title>Node3</title>
<polygon fill="white" stroke="#bfbfbf" points="17.7295,-.5 17.7295,-20.5 67.0635,-20.5 67.0635,-.5 17.7295,-.5"/>
<text text-anchor="middle" x="42.3965" y="-7.5" font-family="Helvetica,sans-Serif" font-size="10.00">fstream</text>
</g>
<!-- Node1&#45;&gt;Node3 -->
<g id="edge10" class="edge">
<title>Node1&#45;&gt;Node3</title>
<path fill="none" stroke="midnightblue" d="M48.9796,-171.3153C47.854,-143.8178 44.737,-67.6748 43.2316,-30.8993"/>
<polygon fill="midnightblue" stroke="midnightblue" points="46.7263,-30.696 42.8201,-20.8476 39.7321,-30.9824 46.7263,-30.696"/>
</g>
<!-- Node2&#45;&gt;Node3 -->
<g id="edge2" class="edge">
<title>Node2&#45;&gt;Node3</title>
<path fill="none" stroke="midnightblue" d="M108.9517,-115.3556C93.7004,-107.5261 73.4913,-94.8454 61.3965,-78 51.4239,-64.1103 46.6749,-45.1434 44.4196,-30.8514"/>
<polygon fill="midnightblue" stroke="midnightblue" points="47.845,-30.0476 43.0933,-20.578 40.9026,-30.9439 47.845,-30.0476"/>
</g>
<!-- Node4 -->
<g id="node4" class="node">
<title>Node4</title>
<polygon fill="white" stroke="#bfbfbf" points="291.174,-.5 291.174,-20.5 331.619,-20.5 331.619,-.5 291.174,-.5"/>
<text text-anchor="middle" x="311.3965" y="-7.5" font-family="Helvetica,sans-Serif" font-size="10.00">string</text>
</g>
<!-- Node2&#45;&gt;Node4 -->
<g id="edge3" class="edge">
<title>Node2&#45;&gt;Node4</title>
<path fill="none" stroke="midnightblue" d="M149.8954,-121.3311C189.4565,-114.8116 274.2188,-98.7502 294.3965,-78 306.4808,-65.5728 310.3604,-45.8807 311.4357,-30.9662"/>
<polygon fill="midnightblue" stroke="midnightblue" points="314.9434,-30.8097 311.8008,-20.6916 307.9478,-30.561 314.9434,-30.8097"/>
</g>
<!-- Node5 -->
<g id="node5" class="node">
<title>Node5</title>
<g id="a_node5"><a xlink:href="FileHeader_8h.html" target="_top" xlink:title="Arquivo de declaração da classe FileHeader. ">
<polygon fill="white" stroke="black" points="211.7825,-57.5 211.7825,-77.5 285.0105,-77.5 285.0105,-57.5 211.7825,-57.5"/>
<text text-anchor="middle" x="248.3965" y="-64.5" font-family="Helvetica,sans-Serif" font-size="10.00">FileHeader.h</text>
</a>
</g>
</g>
<!-- Node2&#45;&gt;Node5 -->
<g id="edge4" class="edge">
<title>Node2&#45;&gt;Node5</title>
<path fill="none" stroke="midnightblue" d="M149.8533,-114.7014C168.6398,-105.7028 196.7235,-92.2509 218.1099,-82.007"/>
<polygon fill="midnightblue" stroke="midnightblue" points="219.9006,-85.0302 227.4074,-77.5536 216.8766,-78.717 219.9006,-85.0302"/>
</g>
<!-- Node7 -->
<g id="node7" class="node">
<title>Node7</title>
<g id="a_node7"><a xlink:href="Block_8h.html" target="_top" xlink:title="Arquivo de declaração da classe Block. ">
<polygon fill="white" stroke="black" points="70.004,-57.5 70.004,-77.5 118.789,-77.5 118.789,-57.5 70.004,-57.5"/>
<text text-anchor="middle" x="94.3965" y="-64.5" font-family="Helvetica,sans-Serif" font-size="10.00">Block.h</text>
</a>
</g>
</g>
<!-- Node2&#45;&gt;Node7 -->
<g id="edge8" class="edge">
<title>Node2&#45;&gt;Node7</title>
<path fill="none" stroke="midnightblue" d="M123.1392,-114.3095C118.3612,-106.5282 111.6442,-95.589 105.9049,-86.2423"/>
<polygon fill="midnightblue" stroke="midnightblue" points="108.8149,-84.2925 100.5996,-77.6022 102.8497,-87.9554 108.8149,-84.2925"/>
</g>
<!-- Node8 -->
<g id="node8" class="node">
<title>Node8</title>
<g id="a_node8"><a xlink:href="Record_8h.html" target="_top" xlink:title="Arquivo de declaração da classe Record. ">
<polygon fill="white" stroke="black" points="137.115,-57.5 137.115,-77.5 193.678,-77.5 193.678,-57.5 137.115,-57.5"/>
<text text-anchor="middle" x="165.3965" y="-64.5" font-family="Helvetica,sans-Serif" font-size="10.00">Record.h</text>
</a>
</g>
</g>
<!-- Node2&#45;&gt;Node8 -->
<g id="edge9" class="edge">
<title>Node2&#45;&gt;Node8</title>
<path fill="none" stroke="midnightblue" d="M135.8326,-114.3095C140.7471,-106.5282 147.6561,-95.589 153.5593,-86.2423"/>
<polygon fill="midnightblue" stroke="midnightblue" points="156.6354,-87.9261 159.0161,-77.6022 150.7169,-84.1881 156.6354,-87.9261"/>
</g>
<!-- Node5&#45;&gt;Node3 -->
<g id="edge5" class="edge">
<title>Node5&#45;&gt;Node3</title>
<path fill="none" stroke="midnightblue" d="M212.042,-57.4408C173.9281,-46.8947 114.4777,-30.4448 77.024,-20.0814"/>
<polygon fill="midnightblue" stroke="midnightblue" points="77.6507,-16.6233 67.0794,-17.3297 75.7839,-23.3698 77.6507,-16.6233"/>
</g>
<!-- Node5&#45;&gt;Node4 -->
<g id="edge6" class="edge">
<title>Node5&#45;&gt;Node4</title>
<path fill="none" stroke="midnightblue" d="M259.6596,-57.3095C268.7976,-49.0419 281.8757,-37.2093 292.5965,-27.5096"/>
<polygon fill="midnightblue" stroke="midnightblue" points="295.1637,-29.9068 300.2309,-20.6022 290.4673,-24.716 295.1637,-29.9068"/>
</g>
<!-- Node6 -->
<g id="node6" class="node">
<title>Node6</title>
<g id="a_node6"><a xlink:href="Date_8h.html" target="_top" xlink:title="Arquivo de declaração da classe Date. ">
<polygon fill="white" stroke="black" points="225.6695,-.5 225.6695,-20.5 271.1235,-20.5 271.1235,-.5 225.6695,-.5"/>
<text text-anchor="middle" x="248.3965" y="-7.5" font-family="Helvetica,sans-Serif" font-size="10.00">Date.h</text>
</a>
</g>
</g>
<!-- Node5&#45;&gt;Node6 -->
<g id="edge7" class="edge">
<title>Node5&#45;&gt;Node6</title>
<path fill="none" stroke="midnightblue" d="M248.3965,-57.3095C248.3965,-49.9335 248.3965,-39.72 248.3965,-30.715"/>
<polygon fill="midnightblue" stroke="midnightblue" points="251.8966,-30.6022 248.3965,-20.6022 244.8966,-30.6023 251.8966,-30.6022"/>
</g>
</g>
</svg>
