<?xml version="1.0" encoding="UTF-8" standalone="no"?>
<!DOCTYPE svg PUBLIC "-//W3C//DTD SVG 1.1//EN"
 "http://www.w3.org/Graphics/SVG/1.1/DTD/svg11.dtd">
<!-- Generated by graphviz version 2.41.20170704.2329 (20170704.2329)
 -->
<!-- Title: src/FileHash.cpp Pages: 1 -->
<svg width="335pt" height="257pt"
 viewBox="0.00 0.00 335.45 257.00" xmlns="http://www.w3.org/2000/svg" xmlns:xlink="http://www.w3.org/1999/xlink">
<g id="graph0" class="graph" transform="scale(1 1) rotate(0) translate(4 253)">
<title>src/FileHash.cpp</title>
<polygon fill="white" stroke="transparent" points="-4,4 -4,-253 331.4465,-253 331.4465,4 -4,4"/>
<!-- Node1 -->
<g id="node1" class="node">
<title>Node1</title>
<polygon fill="#bfbfbf" stroke="black" points="0,-228.5 0,-248.5 90.448,-248.5 90.448,-228.5 0,-228.5"/>
<text text-anchor="middle" x="45.224" y="-235.5" font-family="Helvetica,sans-Serif" font-size="10.00">src/FileHash.cpp</text>
</g>
<!-- Node2 -->
<g id="node2" class="node">
<title>Node2</title>
<g id="a_node2"><a xlink:href="FileHash_8h.html" target="_top" xlink:title="Arquivo de declaração da classe FileHash. ">
<polygon fill="white" stroke="black" points="13.3335,-171.5 13.3335,-191.5 77.1145,-191.5 77.1145,-171.5 13.3335,-171.5"/>
<text text-anchor="middle" x="45.224" y="-178.5" font-family="Helvetica,sans-Serif" font-size="10.00">FileHash.h</text>
</a>
</g>
</g>
<!-- Node1&#45;&gt;Node2 -->
<g id="edge1" class="edge">
<title>Node1&#45;&gt;Node2</title>
<path fill="none" stroke="midnightblue" d="M45.224,-228.3095C45.224,-220.9335 45.224,-210.72 45.224,-201.715"/>
<polygon fill="midnightblue" stroke="midnightblue" points="48.7241,-201.6022 45.224,-191.6022 41.7241,-201.6023 48.7241,-201.6022"/>
</g>
<!-- Node3 -->
<g id="node3" class="node">
<title>Node3</title>
<g id="a_node3"><a xlink:href="File_8h.html" target="_top" xlink:title="Arquivo de declaração da classe File. ">
<polygon fill="white" stroke="black" points="105.002,-114.5 105.002,-134.5 145.446,-134.5 145.446,-114.5 105.002,-114.5"/>
<text text-anchor="middle" x="125.224" y="-121.5" font-family="Helvetica,sans-Serif" font-size="10.00">File.h</text>
</a>
</g>
</g>
<!-- Node2&#45;&gt;Node3 -->
<g id="edge2" class="edge">
<title>Node2&#45;&gt;Node3</title>
<path fill="none" stroke="midnightblue" d="M59.5264,-171.3095C71.4714,-162.7987 88.7185,-150.5102 102.5442,-140.6594"/>
<polygon fill="midnightblue" stroke="midnightblue" points="104.9322,-143.2555 111.0454,-134.6022 100.8702,-137.5545 104.9322,-143.2555"/>
</g>
<!-- Node4 -->
<g id="node4" class="node">
<title>Node4</title>
<polygon fill="white" stroke="#bfbfbf" points="13.557,-.5 13.557,-20.5 62.891,-20.5 62.891,-.5 13.557,-.5"/>
<text text-anchor="middle" x="38.224" y="-7.5" font-family="Helvetica,sans-Serif" font-size="10.00">fstream</text>
</g>
<!-- Node2&#45;&gt;Node4 -->
<g id="edge11" class="edge">
<title>Node2&#45;&gt;Node4</title>
<path fill="none" stroke="midnightblue" d="M44.8071,-171.3153C43.6815,-143.8178 40.5645,-67.6748 39.0591,-30.8993"/>
<polygon fill="midnightblue" stroke="midnightblue" points="42.5538,-30.696 38.6476,-20.8476 35.5596,-30.9824 42.5538,-30.696"/>
</g>
<!-- Node3&#45;&gt;Node4 -->
<g id="edge3" class="edge">
<title>Node3&#45;&gt;Node4</title>
<path fill="none" stroke="midnightblue" d="M104.7792,-115.3556C89.5279,-107.5261 69.3188,-94.8454 57.224,-78 47.2514,-64.1103 42.5024,-45.1434 40.2471,-30.8514"/>
<polygon fill="midnightblue" stroke="midnightblue" points="43.6725,-30.0476 38.9208,-20.578 36.7301,-30.9439 43.6725,-30.0476"/>
</g>
<!-- Node5 -->
<g id="node5" class="node">
<title>Node5</title>
<polygon fill="white" stroke="#bfbfbf" points="287.0015,-.5 287.0015,-20.5 327.4465,-20.5 327.4465,-.5 287.0015,-.5"/>
<text text-anchor="middle" x="307.224" y="-7.5" font-family="Helvetica,sans-Serif" font-size="10.00">string</text>
</g>
<!-- Node3&#45;&gt;Node5 -->
<g id="edge4" class="edge">
<title>Node3&#45;&gt;Node5</title>
<path fill="none" stroke="midnightblue" d="M145.7229,-121.3311C185.284,-114.8116 270.0463,-98.7502 290.224,-78 302.3083,-65.5728 306.1879,-45.8807 307.2632,-30.9662"/>
<polygon fill="midnightblue" stroke="midnightblue" points="310.7709,-30.8097 307.6283,-20.6916 303.7753,-30.561 310.7709,-30.8097"/>
</g>
<!-- Node6 -->
<g id="node6" class="node">
<title>Node6</title>
<g id="a_node6"><a xlink:href="FileHeader_8h.html" target="_top" xlink:title="Arquivo de declaração da classe FileHeader. ">
<polygon fill="white" stroke="black" points="207.61,-57.5 207.61,-77.5 280.838,-77.5 280.838,-57.5 207.61,-57.5"/>
<text text-anchor="middle" x="244.224" y="-64.5" font-family="Helvetica,sans-Serif" font-size="10.00">FileHeader.h</text>
</a>
</g>
</g>
<!-- Node3&#45;&gt;Node6 -->
<g id="edge5" class="edge">
<title>Node3&#45;&gt;Node6</title>
<path fill="none" stroke="midnightblue" d="M145.6808,-114.7014C164.4673,-105.7028 192.551,-92.2509 213.9374,-82.007"/>
<polygon fill="midnightblue" stroke="midnightblue" points="215.7281,-85.0302 223.2349,-77.5536 212.7041,-78.717 215.7281,-85.0302"/>
</g>
<!-- Node8 -->
<g id="node8" class="node">
<title>Node8</title>
<g id="a_node8"><a xlink:href="Block_8h.html" target="_top" xlink:title="Arquivo de declaração da classe Block. ">
<polygon fill="white" stroke="black" points="65.8315,-57.5 65.8315,-77.5 114.6165,-77.5 114.6165,-57.5 65.8315,-57.5"/>
<text text-anchor="middle" x="90.224" y="-64.5" font-family="Helvetica,sans-Serif" font-size="10.00">Block.h</text>
</a>
</g>
</g>
<!-- Node3&#45;&gt;Node8 -->
<g id="edge9" class="edge">
<title>Node3&#45;&gt;Node8</title>
<path fill="none" stroke="midnightblue" d="M118.9667,-114.3095C114.1887,-106.5282 107.4717,-95.589 101.7324,-86.2423"/>
<polygon fill="midnightblue" stroke="midnightblue" points="104.6424,-84.2925 96.4271,-77.6022 98.6772,-87.9554 104.6424,-84.2925"/>
</g>
<!-- Node9 -->
<g id="node9" class="node">
<title>Node9</title>
<g id="a_node9"><a xlink:href="Record_8h.html" target="_top" xlink:title="Arquivo de declaração da classe Record. ">
<polygon fill="white" stroke="black" points="132.9425,-57.5 132.9425,-77.5 189.5055,-77.5 189.5055,-57.5 132.9425,-57.5"/>
<text text-anchor="middle" x="161.224" y="-64.5" font-family="Helvetica,sans-Serif" font-size="10.00">Record.h</text>
</a>
</g>
</g>
<!-- Node3&#45;&gt;Node9 -->
<g id="edge10" class="edge">
<title>Node3&#45;&gt;Node9</title>
<path fill="none" stroke="midnightblue" d="M131.6601,-114.3095C136.5746,-106.5282 143.4836,-95.589 149.3868,-86.2423"/>
<polygon fill="midnightblue" stroke="midnightblue" points="152.4629,-87.9261 154.8436,-77.6022 146.5444,-84.1881 152.4629,-87.9261"/>
</g>
<!-- Node6&#45;&gt;Node4 -->
<g id="edge6" class="edge">
<title>Node6&#45;&gt;Node4</title>
<path fill="none" stroke="midnightblue" d="M207.8695,-57.4408C169.7556,-46.8947 110.3052,-30.4448 72.8515,-20.0814"/>
<polygon fill="midnightblue" stroke="midnightblue" points="73.4782,-16.6233 62.9069,-17.3297 71.6114,-23.3698 73.4782,-16.6233"/>
</g>
<!-- Node6&#45;&gt;Node5 -->
<g id="edge7" class="edge">
<title>Node6&#45;&gt;Node5</title>
<path fill="none" stroke="midnightblue" d="M255.4871,-57.3095C264.6251,-49.0419 277.7032,-37.2093 288.424,-27.5096"/>
<polygon fill="midnightblue" stroke="midnightblue" points="290.9912,-29.9068 296.0584,-20.6022 286.2948,-24.716 290.9912,-29.9068"/>
</g>
<!-- Node7 -->
<g id="node7" class="node">
<title>Node7</title>
<g id="a_node7"><a xlink:href="Date_8h.html" target="_top" xlink:title="Arquivo de declaração da classe Date. ">
<polygon fill="white" stroke="black" points="221.497,-.5 221.497,-20.5 266.951,-20.5 266.951,-.5 221.497,-.5"/>
<text text-anchor="middle" x="244.224" y="-7.5" font-family="Helvetica,sans-Serif" font-size="10.00">Date.h</text>
</a>
</g>
</g>
<!-- Node6&#45;&gt;Node7 -->
<g id="edge8" class="edge">
<title>Node6&#45;&gt;Node7</title>
<path fill="none" stroke="midnightblue" d="M244.224,-57.3095C244.224,-49.9335 244.224,-39.72 244.224,-30.715"/>
<polygon fill="midnightblue" stroke="midnightblue" points="247.7241,-30.6022 244.224,-20.6022 240.7241,-30.6023 247.7241,-30.6022"/>
</g>
</g>
</svg>
