<?xml version="1.0" encoding="UTF-8" standalone="no"?>
<!DOCTYPE svg PUBLIC "-//W3C//DTD SVG 1.1//EN"
 "http://www.w3.org/Graphics/SVG/1.1/DTD/svg11.dtd">
<!-- Generated by graphviz version 2.41.20170704.2329 (20170704.2329)
 -->
<!-- Title: include/FileSequential.h Pages: 1 -->
<svg width="196pt" height="86pt"
 viewBox="0.00 0.00 196.46 86.00" xmlns="http://www.w3.org/2000/svg" xmlns:xlink="http://www.w3.org/1999/xlink">
<g id="graph0" class="graph" transform="scale(1 1) rotate(0) translate(4 82)">
<title>include/FileSequential.h</title>
<polygon fill="white" stroke="transparent" points="-4,4 -4,-82 192.457,-82 192.457,4 -4,4"/>
<!-- Node1 -->
<g id="node1" class="node">
<title>Node1</title>
<polygon fill="#bfbfbf" stroke="black" points="47.107,-57.5 47.107,-77.5 169.244,-77.5 169.244,-57.5 47.107,-57.5"/>
<text text-anchor="middle" x="108.1755" y="-64.5" font-family="Helvetica,sans-Serif" font-size="10.00">include/FileSequential.h</text>
</g>
<!-- Node2 -->
<g id="node2" class="node">
<title>Node2</title>
<g id="a_node2"><a xlink:href="FileSequential_8cpp.html" target="_top" xlink:title="Arquivo de implementação da classe FileSequential. ">
<polygon fill="white" stroke="black" points="0,-.5 0,-20.5 114.351,-20.5 114.351,-.5 0,-.5"/>
<text text-anchor="middle" x="57.1755" y="-7.5" font-family="Helvetica,sans-Serif" font-size="10.00">src/FileSequential.cpp</text>
</a>
</g>
</g>
<!-- Node1&#45;&gt;Node2 -->
<g id="edge1" class="edge">
<title>Node1&#45;&gt;Node2</title>
<path fill="none" stroke="midnightblue" d="M92.3501,-49.8128C83.7576,-40.2094 73.4443,-28.6828 66.2143,-20.6022"/>
<polygon fill="midnightblue" stroke="midnightblue" points="89.7814,-52.1909 99.0577,-57.3095 94.9981,-47.5233 89.7814,-52.1909"/>
</g>
<!-- Node3 -->
<g id="node3" class="node">
<title>Node3</title>
<g id="a_node3"><a xlink:href="main_8cpp.html" target="_top" xlink:title="main.cpp">
<polygon fill="white" stroke="black" points="131.894,-.5 131.894,-20.5 188.457,-20.5 188.457,-.5 131.894,-.5"/>
<text text-anchor="middle" x="160.1755" y="-7.5" font-family="Helvetica,sans-Serif" font-size="10.00">main.cpp</text>
</a>
</g>
</g>
<!-- Node1&#45;&gt;Node3 -->
<g id="edge2" class="edge">
<title>Node1&#45;&gt;Node3</title>
<path fill="none" stroke="midnightblue" d="M124.3112,-49.8128C133.0722,-40.2094 143.5877,-28.6828 150.9594,-20.6022"/>
<polygon fill="midnightblue" stroke="midnightblue" points="121.626,-47.563 117.4721,-57.3095 126.7974,-52.2807 121.626,-47.563"/>
</g>
</g>
</svg>
