<?xml version="1.0" encoding="UTF-8" standalone="no"?>
<!DOCTYPE svg PUBLIC "-//W3C//DTD SVG 1.1//EN"
 "http://www.w3.org/Graphics/SVG/1.1/DTD/svg11.dtd">
<!-- Generated by graphviz version 2.41.20170704.2329 (20170704.2329)
 -->
<!-- Title: include/FileHash.h Pages: 1 -->
<svg width="174pt" height="86pt"
 viewBox="0.00 0.00 173.51 86.00" xmlns="http://www.w3.org/2000/svg" xmlns:xlink="http://www.w3.org/1999/xlink">
<g id="graph0" class="graph" transform="scale(1 1) rotate(0) translate(4 82)">
<title>include/FileHash.h</title>
<polygon fill="white" stroke="transparent" points="-4,4 -4,-82 169.5055,-82 169.5055,4 -4,4"/>
<!-- Node1 -->
<g id="node1" class="node">
<title>Node1</title>
<polygon fill="#bfbfbf" stroke="black" points="42.107,-57.5 42.107,-77.5 140.341,-77.5 140.341,-57.5 42.107,-57.5"/>
<text text-anchor="middle" x="91.224" y="-64.5" font-family="Helvetica,sans-Serif" font-size="10.00">include/FileHash.h</text>
</g>
<!-- Node2 -->
<g id="node2" class="node">
<title>Node2</title>
<g id="a_node2"><a xlink:href="FileHash_8cpp.html" target="_top" xlink:title="Arquivo de implementação da classe FileHash. ">
<polygon fill="white" stroke="black" points="0,-.5 0,-20.5 90.448,-20.5 90.448,-.5 0,-.5"/>
<text text-anchor="middle" x="45.224" y="-7.5" font-family="Helvetica,sans-Serif" font-size="10.00">src/FileHash.cpp</text>
</a>
</g>
</g>
<!-- Node1&#45;&gt;Node2 -->
<g id="edge1" class="edge">
<title>Node1&#45;&gt;Node2</title>
<path fill="none" stroke="midnightblue" d="M76.7172,-49.5242C69.0142,-39.9792 59.8326,-28.602 53.3767,-20.6022"/>
<polygon fill="midnightblue" stroke="midnightblue" points="73.9962,-51.7256 83.0001,-57.3095 79.4436,-47.3295 73.9962,-51.7256"/>
</g>
<!-- Node3 -->
<g id="node3" class="node">
<title>Node3</title>
<g id="a_node3"><a xlink:href="main_8cpp.html" target="_top" xlink:title="main.cpp">
<polygon fill="white" stroke="black" points="108.9425,-.5 108.9425,-20.5 165.5055,-20.5 165.5055,-.5 108.9425,-.5"/>
<text text-anchor="middle" x="137.224" y="-7.5" font-family="Helvetica,sans-Serif" font-size="10.00">main.cpp</text>
</a>
</g>
</g>
<!-- Node1&#45;&gt;Node3 -->
<g id="edge2" class="edge">
<title>Node1&#45;&gt;Node3</title>
<path fill="none" stroke="midnightblue" d="M105.7308,-49.5242C113.4338,-39.9792 122.6154,-28.602 129.0713,-20.6022"/>
<polygon fill="midnightblue" stroke="midnightblue" points="103.0044,-47.3295 99.4479,-57.3095 108.4518,-51.7256 103.0044,-47.3295"/>
</g>
</g>
</svg>
