<?xml version="1.0" encoding="UTF-8" standalone="no"?>
<!DOCTYPE svg PUBLIC "-//W3C//DTD SVG 1.1//EN"
 "http://www.w3.org/Graphics/SVG/1.1/DTD/svg11.dtd">
<!-- Generated by graphviz version 2.41.20170704.2329 (20170704.2329)
 -->
<!-- Title: Representação gráfica da hiearquia da classe Pages: 1 -->
<svg width="155pt" height="107pt"
 viewBox="0.00 0.00 155.45 107.00" xmlns="http://www.w3.org/2000/svg" xmlns:xlink="http://www.w3.org/1999/xlink">
<g id="graph0" class="graph" transform="scale(1 1) rotate(0) translate(4 103)">
<title>Representação gráfica da hiearquia da classe</title>
<polygon fill="white" stroke="transparent" points="-4,4 -4,-103 151.452,-103 151.452,4 -4,4"/>
<!-- Node1 -->
<g id="node1" class="node">
<title>Node1</title>
<g id="a_node1"><a xlink:href="classFile.html" target="_top" xlink:title="File">
<polygon fill="white" stroke="black" points="0,-39.5 0,-59.5 32.106,-59.5 32.106,-39.5 0,-39.5"/>
<text text-anchor="middle" x="16.053" y="-46.5" font-family="Helvetica,sans-Serif" font-size="10.00">File</text>
</a>
</g>
</g>
<!-- Node2 -->
<g id="node2" class="node">
<title>Node2</title>
<g id="a_node2"><a xlink:href="classFileHash.html" target="_top" xlink:title="FileHash">
<polygon fill="white" stroke="black" points="80.0575,-78.5 80.0575,-98.5 135.5005,-98.5 135.5005,-78.5 80.0575,-78.5"/>
<text text-anchor="middle" x="107.779" y="-85.5" font-family="Helvetica,sans-Serif" font-size="10.00">FileHash</text>
</a>
</g>
</g>
<!-- Node1&#45;&gt;Node2 -->
<g id="edge1" class="edge">
<title>Node1&#45;&gt;Node2</title>
<path fill="none" stroke="midnightblue" d="M41.9087,-60.4933C55.1011,-66.1025 71.0407,-72.8796 83.9353,-78.3622"/>
<polygon fill="midnightblue" stroke="midnightblue" points="43.024,-57.1643 32.4518,-56.4724 40.285,-63.6062 43.024,-57.1643"/>
</g>
<!-- Node3 -->
<g id="node3" class="node">
<title>Node3</title>
<g id="a_node3"><a xlink:href="classFileHeap.html" target="_top" xlink:title="FileHeap">
<polygon fill="white" stroke="black" points="79.778,-39.5 79.778,-59.5 135.78,-59.5 135.78,-39.5 79.778,-39.5"/>
<text text-anchor="middle" x="107.779" y="-46.5" font-family="Helvetica,sans-Serif" font-size="10.00">FileHeap</text>
</a>
</g>
</g>
<!-- Node1&#45;&gt;Node3 -->
<g id="edge2" class="edge">
<title>Node1&#45;&gt;Node3</title>
<path fill="none" stroke="midnightblue" d="M42.4574,-49.5C54.1039,-49.5 67.8057,-49.5 79.6446,-49.5"/>
<polygon fill="midnightblue" stroke="midnightblue" points="42.4518,-46.0001 32.4518,-49.5 42.4517,-53.0001 42.4518,-46.0001"/>
</g>
<!-- Node4 -->
<g id="node4" class="node">
<title>Node4</title>
<g id="a_node4"><a xlink:href="classFileSequential.html" target="_top" xlink:title="FileSequential">
<polygon fill="white" stroke="black" points="68.106,-.5 68.106,-20.5 147.452,-20.5 147.452,-.5 68.106,-.5"/>
<text text-anchor="middle" x="107.779" y="-7.5" font-family="Helvetica,sans-Serif" font-size="10.00">FileSequential</text>
</a>
</g>
</g>
<!-- Node1&#45;&gt;Node4 -->
<g id="edge3" class="edge">
<title>Node1&#45;&gt;Node4</title>
<path fill="none" stroke="midnightblue" d="M41.9087,-38.5067C55.1011,-32.8975 71.0407,-26.1204 83.9353,-20.6378"/>
<polygon fill="midnightblue" stroke="midnightblue" points="40.285,-35.3938 32.4518,-42.5276 43.024,-41.8357 40.285,-35.3938"/>
</g>
</g>
</svg>
