<?xml version="1.0" encoding="UTF-8" standalone="no"?>
<!DOCTYPE svg PUBLIC "-//W3C//DTD SVG 1.1//EN"
 "http://www.w3.org/Graphics/SVG/1.1/DTD/svg11.dtd">
<!-- Generated by graphviz version 2.41.20170704.2329 (20170704.2329)
 -->
<!-- Title: main.cpp Pages: 1 -->
<svg width="409pt" height="257pt"
 viewBox="0.00 0.00 409.12 257.00" xmlns="http://www.w3.org/2000/svg" xmlns:xlink="http://www.w3.org/1999/xlink">
<g id="graph0" class="graph" transform="scale(1 1) rotate(0) translate(4 253)">
<title>main.cpp</title>
<polygon fill="white" stroke="transparent" points="-4,4 -4,-253 405.115,-253 405.115,4 -4,4"/>
<!-- Node1 -->
<g id="node1" class="node">
<title>Node1</title>
<polygon fill="#bfbfbf" stroke="black" points="159.885,-228.5 159.885,-248.5 216.448,-248.5 216.448,-228.5 159.885,-228.5"/>
<text text-anchor="middle" x="188.1665" y="-235.5" font-family="Helvetica,sans-Serif" font-size="10.00">main.cpp</text>
</g>
<!-- Node2 -->
<g id="node2" class="node">
<title>Node2</title>
<polygon fill="white" stroke="#bfbfbf" points="0,-171.5 0,-191.5 54.333,-191.5 54.333,-171.5 0,-171.5"/>
<text text-anchor="middle" x="27.1665" y="-178.5" font-family="Helvetica,sans-Serif" font-size="10.00">iostream</text>
</g>
<!-- Node1&#45;&gt;Node2 -->
<g id="edge1" class="edge">
<title>Node1&#45;&gt;Node2</title>
<path fill="none" stroke="midnightblue" d="M159.7535,-228.4408C133.186,-219.0349 93.3538,-204.9328 64.2841,-194.641"/>
<polygon fill="midnightblue" stroke="midnightblue" points="65.0848,-191.2117 54.4901,-191.1736 62.7486,-197.8103 65.0848,-191.2117"/>
</g>
<!-- Node3 -->
<g id="node3" class="node">
<title>Node3</title>
<g id="a_node3"><a xlink:href="FileSequential_8h.html" target="_top" xlink:title="Arquivo de declaração da classe FileSequential. ">
<polygon fill="white" stroke="black" points="72.546,-171.5 72.546,-191.5 185.787,-191.5 185.787,-171.5 72.546,-171.5"/>
<text text-anchor="middle" x="129.1665" y="-178.5" font-family="Helvetica,sans-Serif" font-size="10.00">class/FileSequential.h</text>
</a>
</g>
</g>
<!-- Node1&#45;&gt;Node3 -->
<g id="edge2" class="edge">
<title>Node1&#45;&gt;Node3</title>
<path fill="none" stroke="midnightblue" d="M177.6185,-228.3095C169.1446,-220.1229 157.0528,-208.441 147.0688,-198.7955"/>
<polygon fill="midnightblue" stroke="midnightblue" points="149.247,-196.0332 139.6232,-191.6022 144.3833,-201.0676 149.247,-196.0332"/>
</g>
<!-- Node10 -->
<g id="node10" class="node">
<title>Node10</title>
<g id="a_node10"><a xlink:href="FileHash_8h.html" target="_top" xlink:title="Arquivo de declaração da classe FileHash. ">
<polygon fill="white" stroke="black" points="203.4975,-171.5 203.4975,-191.5 292.8355,-191.5 292.8355,-171.5 203.4975,-171.5"/>
<text text-anchor="middle" x="248.1665" y="-178.5" font-family="Helvetica,sans-Serif" font-size="10.00">class/FileHash.h</text>
</a>
</g>
</g>
<!-- Node1&#45;&gt;Node10 -->
<g id="edge12" class="edge">
<title>Node1&#45;&gt;Node10</title>
<path fill="none" stroke="midnightblue" d="M198.8933,-228.3095C207.5961,-220.0419 220.0514,-208.2093 230.2617,-198.5096"/>
<polygon fill="midnightblue" stroke="midnightblue" points="232.6932,-201.0273 237.5326,-191.6022 227.8719,-195.9523 232.6932,-201.0273"/>
</g>
<!-- Node11 -->
<g id="node11" class="node">
<title>Node11</title>
<g id="a_node11"><a xlink:href="FileHeap_8h.html" target="_top" xlink:title="Arquivo de declaração da classe FileHeap. ">
<polygon fill="white" stroke="black" points="311.218,-171.5 311.218,-191.5 401.115,-191.5 401.115,-171.5 311.218,-171.5"/>
<text text-anchor="middle" x="356.1665" y="-178.5" font-family="Helvetica,sans-Serif" font-size="10.00">class/FileHeap.h</text>
</a>
</g>
</g>
<!-- Node1&#45;&gt;Node11 -->
<g id="edge15" class="edge">
<title>Node1&#45;&gt;Node11</title>
<path fill="none" stroke="midnightblue" d="M216.6654,-228.8307C244.2882,-219.4587 286.4045,-205.1693 317.1348,-194.7429"/>
<polygon fill="midnightblue" stroke="midnightblue" points="318.3341,-198.032 326.6793,-191.5046 316.085,-191.4032 318.3341,-198.032"/>
</g>
<!-- Node4 -->
<g id="node4" class="node">
<title>Node4</title>
<g id="a_node4"><a xlink:href="File_8h.html" target="_top" xlink:title="Arquivo de declaração da classe File. ">
<polygon fill="white" stroke="black" points="193.9445,-114.5 193.9445,-134.5 234.3885,-134.5 234.3885,-114.5 193.9445,-114.5"/>
<text text-anchor="middle" x="214.1665" y="-121.5" font-family="Helvetica,sans-Serif" font-size="10.00">File.h</text>
</a>
</g>
</g>
<!-- Node3&#45;&gt;Node4 -->
<g id="edge3" class="edge">
<title>Node3&#45;&gt;Node4</title>
<path fill="none" stroke="midnightblue" d="M144.3628,-171.3095C157.1752,-162.7177 175.7289,-150.2758 190.4879,-140.3786"/>
<polygon fill="midnightblue" stroke="midnightblue" points="192.7457,-143.0787 199.1018,-134.6022 188.847,-137.2649 192.7457,-143.0787"/>
</g>
<!-- Node5 -->
<g id="node5" class="node">
<title>Node5</title>
<polygon fill="white" stroke="#bfbfbf" points="215.4995,-.5 215.4995,-20.5 264.8335,-20.5 264.8335,-.5 215.4995,-.5"/>
<text text-anchor="middle" x="240.1665" y="-7.5" font-family="Helvetica,sans-Serif" font-size="10.00">fstream</text>
</g>
<!-- Node3&#45;&gt;Node5 -->
<g id="edge11" class="edge">
<title>Node3&#45;&gt;Node5</title>
<path fill="none" stroke="midnightblue" d="M116.3858,-171.4655C89.8084,-149.3977 33.4356,-95.5504 63.1665,-57 80.3936,-34.6626 158.8818,-20.9407 205.3571,-14.6294"/>
<polygon fill="midnightblue" stroke="midnightblue" points="205.8521,-18.0946 215.3122,-13.3241 204.942,-11.154 205.8521,-18.0946"/>
</g>
<!-- Node4&#45;&gt;Node5 -->
<g id="edge4" class="edge">
<title>Node4&#45;&gt;Node5</title>
<path fill="none" stroke="midnightblue" d="M216.4738,-114.3833C220.7417,-95.6703 229.9429,-55.3266 235.5397,-30.7866"/>
<polygon fill="midnightblue" stroke="midnightblue" points="239.0157,-31.2859 237.827,-20.7579 232.1909,-29.7293 239.0157,-31.2859"/>
</g>
<!-- Node6 -->
<g id="node6" class="node">
<title>Node6</title>
<polygon fill="white" stroke="#bfbfbf" points="37.944,-.5 37.944,-20.5 78.389,-20.5 78.389,-.5 37.944,-.5"/>
<text text-anchor="middle" x="58.1665" y="-7.5" font-family="Helvetica,sans-Serif" font-size="10.00">string</text>
</g>
<!-- Node4&#45;&gt;Node6 -->
<g id="edge5" class="edge">
<title>Node4&#45;&gt;Node6</title>
<path fill="none" stroke="midnightblue" d="M193.9413,-121.1469C156.7112,-114.5344 79.6235,-98.6448 63.1665,-78 52.7768,-64.9665 52.3655,-45.6535 54.0646,-31.021"/>
<polygon fill="midnightblue" stroke="midnightblue" points="57.5563,-31.3463 55.645,-20.9253 50.6405,-30.2637 57.5563,-31.3463"/>
</g>
<!-- Node7 -->
<g id="node7" class="node">
<title>Node7</title>
<g id="a_node7"><a xlink:href="FileHeader_8h.html" target="_top" xlink:title="Arquivo de declaração da classe FileHeader. ">
<polygon fill="white" stroke="black" points="72.5525,-57.5 72.5525,-77.5 145.7805,-77.5 145.7805,-57.5 72.5525,-57.5"/>
<text text-anchor="middle" x="109.1665" y="-64.5" font-family="Helvetica,sans-Serif" font-size="10.00">FileHeader.h</text>
</a>
</g>
</g>
<!-- Node4&#45;&gt;Node7 -->
<g id="edge6" class="edge">
<title>Node4&#45;&gt;Node7</title>
<path fill="none" stroke="midnightblue" d="M195.3946,-114.3095C179.0449,-105.434 155.1269,-92.4499 136.6264,-82.4068"/>
<polygon fill="midnightblue" stroke="midnightblue" points="138.2343,-79.2972 127.7759,-77.6022 134.8946,-85.4492 138.2343,-79.2972"/>
</g>
<!-- Node8 -->
<g id="node8" class="node">
<title>Node8</title>
<g id="a_node8"><a xlink:href="Block_8h.html" target="_top" xlink:title="Arquivo de declaração da classe Block. ">
<polygon fill="white" stroke="black" points="163.774,-57.5 163.774,-77.5 212.559,-77.5 212.559,-57.5 163.774,-57.5"/>
<text text-anchor="middle" x="188.1665" y="-64.5" font-family="Helvetica,sans-Serif" font-size="10.00">Block.h</text>
</a>
</g>
</g>
<!-- Node4&#45;&gt;Node8 -->
<g id="edge9" class="edge">
<title>Node4&#45;&gt;Node8</title>
<path fill="none" stroke="midnightblue" d="M209.5182,-114.3095C206.0428,-106.6903 201.1863,-96.0435 196.983,-86.8285"/>
<polygon fill="midnightblue" stroke="midnightblue" points="200.109,-85.2479 192.7745,-77.6022 193.7403,-88.153 200.109,-85.2479"/>
</g>
<!-- Node9 -->
<g id="node9" class="node">
<title>Node9</title>
<g id="a_node9"><a xlink:href="Record_8h.html" target="_top" xlink:title="Arquivo de declaração da classe Record. ">
<polygon fill="white" stroke="black" points="267.885,-57.5 267.885,-77.5 324.448,-77.5 324.448,-57.5 267.885,-57.5"/>
<text text-anchor="middle" x="296.1665" y="-64.5" font-family="Helvetica,sans-Serif" font-size="10.00">Record.h</text>
</a>
</g>
</g>
<!-- Node4&#45;&gt;Node9 -->
<g id="edge10" class="edge">
<title>Node4&#45;&gt;Node9</title>
<path fill="none" stroke="midnightblue" d="M228.8265,-114.3095C241.1867,-105.7177 259.0856,-93.2758 273.3236,-83.3786"/>
<polygon fill="midnightblue" stroke="midnightblue" points="275.4201,-86.1839 281.6335,-77.6022 271.4246,-80.4361 275.4201,-86.1839"/>
</g>
<!-- Node7&#45;&gt;Node5 -->
<g id="edge7" class="edge">
<title>Node7&#45;&gt;Node5</title>
<path fill="none" stroke="midnightblue" d="M132.2851,-57.4408C153.2018,-48.3396 184.2234,-34.8416 207.6393,-24.6531"/>
<polygon fill="midnightblue" stroke="midnightblue" points="209.0652,-27.8497 216.8384,-20.6504 206.2723,-21.4309 209.0652,-27.8497"/>
</g>
<!-- Node7&#45;&gt;Node6 -->
<g id="edge8" class="edge">
<title>Node7&#45;&gt;Node6</title>
<path fill="none" stroke="midnightblue" d="M100.0487,-57.3095C92.7964,-49.204 82.4782,-37.672 73.8983,-28.0826"/>
<polygon fill="midnightblue" stroke="midnightblue" points="76.4817,-25.7209 67.2053,-20.6022 71.265,-30.3885 76.4817,-25.7209"/>
</g>
<!-- Node10&#45;&gt;Node4 -->
<g id="edge13" class="edge">
<title>Node10&#45;&gt;Node4</title>
<path fill="none" stroke="midnightblue" d="M242.088,-171.3095C237.4465,-163.5282 230.9214,-152.589 225.3461,-143.2423"/>
<polygon fill="midnightblue" stroke="midnightblue" points="228.3211,-141.3975 220.1924,-134.6022 222.3094,-144.9834 228.3211,-141.3975"/>
</g>
<!-- Node10&#45;&gt;Node5 -->
<g id="edge14" class="edge">
<title>Node10&#45;&gt;Node5</title>
<path fill="none" stroke="midnightblue" d="M264.4296,-171.3797C295.9824,-150.4337 360.1347,-100.6354 333.1665,-57 320.4436,-36.4139 295.5416,-24.6366 274.7057,-18.0878"/>
<polygon fill="midnightblue" stroke="midnightblue" points="275.4518,-14.6609 264.8749,-15.2772 273.5276,-21.3913 275.4518,-14.6609"/>
</g>
<!-- Node11&#45;&gt;Node4 -->
<g id="edge16" class="edge">
<title>Node11&#45;&gt;Node4</title>
<path fill="none" stroke="midnightblue" d="M331.1066,-171.4408C306.8201,-161.6919 269.9655,-146.8982 244.1382,-136.5309"/>
<polygon fill="midnightblue" stroke="midnightblue" points="245.4129,-133.2711 234.8288,-132.794 242.8052,-139.7673 245.4129,-133.2711"/>
</g>
<!-- Node11&#45;&gt;Node5 -->
<g id="edge17" class="edge">
<title>Node11&#45;&gt;Node5</title>
<path fill="none" stroke="midnightblue" d="M358.9875,-171.3281C364.668,-148.5139 374.9422,-92.4861 350.1665,-57 333.0583,-32.4961 300.3429,-20.8443 275.0193,-15.3403"/>
<polygon fill="midnightblue" stroke="midnightblue" points="275.5177,-11.8717 265.0333,-13.3979 274.181,-18.7429 275.5177,-11.8717"/>
</g>
</g>
</svg>
