<?xml version="1.0" encoding="UTF-8" standalone="no"?>
<!DOCTYPE svg PUBLIC "-//W3C//DTD SVG 1.1//EN"
 "http://www.w3.org/Graphics/SVG/1.1/DTD/svg11.dtd">
<!-- Generated by graphviz version 2.41.20170704.2329 (20170704.2329)
 -->
<!-- Title: main.cpp Pages: 1 -->
<svg width="460pt" height="257pt"
 viewBox="0.00 0.00 460.06 257.00" xmlns="http://www.w3.org/2000/svg" xmlns:xlink="http://www.w3.org/1999/xlink">
<g id="graph0" class="graph" transform="scale(1 1) rotate(0) translate(4 253)">
<title>main.cpp</title>
<polygon fill="white" stroke="transparent" points="-4,4 -4,-253 456.0645,-253 456.0645,4 -4,4"/>
<!-- Node1 -->
<g id="node1" class="node">
<title>Node1</title>
<polygon fill="#bfbfbf" stroke="black" points="244.941,-228.5 244.941,-248.5 301.504,-248.5 301.504,-228.5 244.941,-228.5"/>
<text text-anchor="middle" x="273.2225" y="-235.5" font-family="Helvetica,sans-Serif" font-size="10.00">main.cpp</text>
</g>
<!-- Node2 -->
<g id="node2" class="node">
<title>Node2</title>
<polygon fill="white" stroke="#bfbfbf" points="128.056,-171.5 128.056,-191.5 182.389,-191.5 182.389,-171.5 128.056,-171.5"/>
<text text-anchor="middle" x="155.2225" y="-178.5" font-family="Helvetica,sans-Serif" font-size="10.00">iostream</text>
</g>
<!-- Node1&#45;&gt;Node2 -->
<g id="edge1" class="edge">
<title>Node1&#45;&gt;Node2</title>
<path fill="none" stroke="midnightblue" d="M252.3981,-228.4408C233.8084,-219.461 206.3575,-206.2008 185.3691,-196.0624"/>
<polygon fill="midnightblue" stroke="midnightblue" points="186.7625,-192.8485 176.2356,-191.6504 183.7177,-199.1517 186.7625,-192.8485"/>
</g>
<!-- Node3 -->
<g id="node3" class="node">
<title>Node3</title>
<g id="a_node3"><a xlink:href="FileSequential_8h.html" target="_top" xlink:title="Arquivo de declaração da classe FileSequential. ">
<polygon fill="white" stroke="black" points="364.3805,-171.5 364.3805,-191.5 452.0645,-191.5 452.0645,-171.5 364.3805,-171.5"/>
<text text-anchor="middle" x="408.2225" y="-178.5" font-family="Helvetica,sans-Serif" font-size="10.00">FileSequential.h</text>
</a>
</g>
</g>
<!-- Node1&#45;&gt;Node3 -->
<g id="edge2" class="edge">
<title>Node1&#45;&gt;Node3</title>
<path fill="none" stroke="midnightblue" d="M297.047,-228.4408C318.6024,-219.3396 350.5712,-205.8416 374.7021,-195.6531"/>
<polygon fill="midnightblue" stroke="midnightblue" points="376.331,-198.7646 384.182,-191.6504 373.6081,-192.3158 376.331,-198.7646"/>
</g>
<!-- Node12 -->
<g id="node12" class="node">
<title>Node12</title>
<g id="a_node12"><a xlink:href="FileHash_8h.html" target="_top" xlink:title="Arquivo de declaração da classe FileHash. ">
<polygon fill="white" stroke="black" points="200.332,-171.5 200.332,-191.5 264.113,-191.5 264.113,-171.5 200.332,-171.5"/>
<text text-anchor="middle" x="232.2225" y="-178.5" font-family="Helvetica,sans-Serif" font-size="10.00">FileHash.h</text>
</a>
</g>
</g>
<!-- Node1&#45;&gt;Node12 -->
<g id="edge14" class="edge">
<title>Node1&#45;&gt;Node12</title>
<path fill="none" stroke="midnightblue" d="M265.8925,-228.3095C260.2371,-220.4472 252.2627,-209.3608 245.4941,-199.9507"/>
<polygon fill="midnightblue" stroke="midnightblue" points="248.1697,-197.6765 239.489,-191.6022 242.487,-201.7641 248.1697,-197.6765"/>
</g>
<!-- Node13 -->
<g id="node13" class="node">
<title>Node13</title>
<g id="a_node13"><a xlink:href="FileHeap_8h.html" target="_top" xlink:title="Arquivo de declaração da classe FileHeap. ">
<polygon fill="white" stroke="black" points="282.0525,-171.5 282.0525,-191.5 346.3925,-191.5 346.3925,-171.5 282.0525,-171.5"/>
<text text-anchor="middle" x="314.2225" y="-178.5" font-family="Helvetica,sans-Serif" font-size="10.00">FileHeap.h</text>
</a>
</g>
</g>
<!-- Node1&#45;&gt;Node13 -->
<g id="edge17" class="edge">
<title>Node1&#45;&gt;Node13</title>
<path fill="none" stroke="midnightblue" d="M280.5525,-228.3095C286.2079,-220.4472 294.1823,-209.3608 300.9509,-199.9507"/>
<polygon fill="midnightblue" stroke="midnightblue" points="303.958,-201.7641 306.956,-191.6022 298.2753,-197.6765 303.958,-201.7641"/>
</g>
<!-- Node4 -->
<g id="node4" class="node">
<title>Node4</title>
<g id="a_node4"><a xlink:href="File_8h.html" target="_top" xlink:title="Arquivo de declaração da classe File. ">
<polygon fill="white" stroke="black" points="253.0005,-114.5 253.0005,-134.5 293.4445,-134.5 293.4445,-114.5 253.0005,-114.5"/>
<text text-anchor="middle" x="273.2225" y="-121.5" font-family="Helvetica,sans-Serif" font-size="10.00">File.h</text>
</a>
</g>
</g>
<!-- Node3&#45;&gt;Node4 -->
<g id="edge3" class="edge">
<title>Node3&#45;&gt;Node4</title>
<path fill="none" stroke="midnightblue" d="M384.398,-171.4408C361.7782,-161.8902 327.691,-147.4978 303.2275,-137.1688"/>
<polygon fill="midnightblue" stroke="midnightblue" points="304.2931,-133.8196 293.7192,-133.1542 301.5703,-140.2683 304.2931,-133.8196"/>
</g>
<!-- Node5 -->
<g id="node5" class="node">
<title>Node5</title>
<polygon fill="white" stroke="#bfbfbf" points="365.5555,-.5 365.5555,-20.5 414.8895,-20.5 414.8895,-.5 365.5555,-.5"/>
<text text-anchor="middle" x="390.2225" y="-7.5" font-family="Helvetica,sans-Serif" font-size="10.00">fstream</text>
</g>
<!-- Node3&#45;&gt;Node5 -->
<g id="edge13" class="edge">
<title>Node3&#45;&gt;Node5</title>
<path fill="none" stroke="midnightblue" d="M418.8171,-171.1672C426.9816,-162.413 437.6274,-149.0697 442.2225,-135 452.985,-102.0463 456.3768,-88.6454 442.2225,-57 436.7368,-44.7354 426.2404,-34.3682 416.1062,-26.5572"/>
<polygon fill="midnightblue" stroke="midnightblue" points="417.9659,-23.5841 407.7966,-20.6115 413.8926,-29.277 417.9659,-23.5841"/>
</g>
<!-- Node4&#45;&gt;Node5 -->
<g id="edge4" class="edge">
<title>Node4&#45;&gt;Node5</title>
<path fill="none" stroke="midnightblue" d="M293.5664,-120.1568C315.8381,-114.3483 351.0579,-101.8882 371.2225,-78 382.3612,-64.8044 386.9895,-45.509 388.9024,-30.9243"/>
<polygon fill="midnightblue" stroke="midnightblue" points="392.3956,-31.1651 389.8987,-20.8687 385.4297,-30.4748 392.3956,-31.1651"/>
</g>
<!-- Node6 -->
<g id="node6" class="node">
<title>Node6</title>
<polygon fill="white" stroke="#bfbfbf" points="0,-.5 0,-20.5 40.445,-20.5 40.445,-.5 0,-.5"/>
<text text-anchor="middle" x="20.2225" y="-7.5" font-family="Helvetica,sans-Serif" font-size="10.00">string</text>
</g>
<!-- Node4&#45;&gt;Node6 -->
<g id="edge5" class="edge">
<title>Node4&#45;&gt;Node6</title>
<path fill="none" stroke="midnightblue" d="M252.928,-123.2339C201.5753,-119.6178 68.3445,-107.539 37.2225,-78 24.65,-66.0669 20.8293,-46.3152 19.9001,-31.2528"/>
<polygon fill="midnightblue" stroke="midnightblue" points="23.3899,-30.7707 19.6562,-20.8556 16.3918,-30.935 23.3899,-30.7707"/>
</g>
<!-- Node7 -->
<g id="node7" class="node">
<title>Node7</title>
<g id="a_node7"><a xlink:href="FileHeader_8h.html" target="_top" xlink:title="Arquivo de declaração da classe FileHeader. ">
<polygon fill="white" stroke="black" points="46.6085,-57.5 46.6085,-77.5 119.8365,-77.5 119.8365,-57.5 46.6085,-57.5"/>
<text text-anchor="middle" x="83.2225" y="-64.5" font-family="Helvetica,sans-Serif" font-size="10.00">FileHeader.h</text>
</a>
</g>
</g>
<!-- Node4&#45;&gt;Node7 -->
<g id="edge6" class="edge">
<title>Node4&#45;&gt;Node7</title>
<path fill="none" stroke="midnightblue" d="M252.8892,-118.4C222.8832,-109.3982 166.0299,-92.3422 126.4455,-80.4669"/>
<polygon fill="midnightblue" stroke="midnightblue" points="127.3646,-77.0886 116.7806,-77.5674 125.3531,-83.7934 127.3646,-77.0886"/>
</g>
<!-- Node9 -->
<g id="node9" class="node">
<title>Node9</title>
<g id="a_node9"><a xlink:href="Block_8h.html" target="_top" xlink:title="Arquivo de declaração da classe Block. ">
<polygon fill="white" stroke="black" points="313.83,-57.5 313.83,-77.5 362.615,-77.5 362.615,-57.5 313.83,-57.5"/>
<text text-anchor="middle" x="338.2225" y="-64.5" font-family="Helvetica,sans-Serif" font-size="10.00">Block.h</text>
</a>
</g>
</g>
<!-- Node4&#45;&gt;Node9 -->
<g id="edge10" class="edge">
<title>Node4&#45;&gt;Node9</title>
<path fill="none" stroke="midnightblue" d="M284.8432,-114.3095C294.3637,-105.9608 308.0295,-93.9769 319.1502,-84.2249"/>
<polygon fill="midnightblue" stroke="midnightblue" points="321.4914,-86.827 326.7024,-77.6022 316.8761,-81.564 321.4914,-86.827"/>
</g>
<!-- Node10 -->
<g id="node10" class="node">
<title>Node10</title>
<g id="a_node10"><a xlink:href="Record_8h.html" target="_top" xlink:title="Arquivo de declaração da classe Record. ">
<polygon fill="white" stroke="black" points="175.941,-57.5 175.941,-77.5 232.504,-77.5 232.504,-57.5 175.941,-57.5"/>
<text text-anchor="middle" x="204.2225" y="-64.5" font-family="Helvetica,sans-Serif" font-size="10.00">Record.h</text>
</a>
</g>
</g>
<!-- Node4&#45;&gt;Node10 -->
<g id="edge11" class="edge">
<title>Node4&#45;&gt;Node10</title>
<path fill="none" stroke="midnightblue" d="M260.8867,-114.3095C250.7803,-105.9608 236.2735,-93.9769 224.4684,-84.2249"/>
<polygon fill="midnightblue" stroke="midnightblue" points="226.3903,-81.2727 216.4515,-77.6022 221.9321,-86.6695 226.3903,-81.2727"/>
</g>
<!-- Node11 -->
<g id="node11" class="node">
<title>Node11</title>
<g id="a_node11"><a xlink:href="Field_8h.html" target="_top" xlink:title="Arquivo de declaração da classe Field. ">
<polygon fill="white" stroke="black" points="250.221,-57.5 250.221,-77.5 296.224,-77.5 296.224,-57.5 250.221,-57.5"/>
<text text-anchor="middle" x="273.2225" y="-64.5" font-family="Helvetica,sans-Serif" font-size="10.00">Field.h</text>
</a>
</g>
</g>
<!-- Node4&#45;&gt;Node11 -->
<g id="edge12" class="edge">
<title>Node4&#45;&gt;Node11</title>
<path fill="none" stroke="midnightblue" d="M273.2225,-114.3095C273.2225,-106.9335 273.2225,-96.72 273.2225,-87.715"/>
<polygon fill="midnightblue" stroke="midnightblue" points="276.7226,-87.6022 273.2225,-77.6022 269.7226,-87.6023 276.7226,-87.6022"/>
</g>
<!-- Node7&#45;&gt;Node5 -->
<g id="edge7" class="edge">
<title>Node7&#45;&gt;Node5</title>
<path fill="none" stroke="midnightblue" d="M119.973,-59.8269C124.7632,-58.8581 129.6076,-57.8941 134.2225,-57 213.1352,-41.7119 306.0317,-25.2105 355.3452,-16.569"/>
<polygon fill="midnightblue" stroke="midnightblue" points="356.2263,-19.9681 365.4737,-14.7973 355.0201,-13.0728 356.2263,-19.9681"/>
</g>
<!-- Node7&#45;&gt;Node6 -->
<g id="edge8" class="edge">
<title>Node7&#45;&gt;Node6</title>
<path fill="none" stroke="midnightblue" d="M71.9594,-57.3095C62.8214,-49.0419 49.7433,-37.2093 39.0225,-27.5096"/>
<polygon fill="midnightblue" stroke="midnightblue" points="41.1517,-24.716 31.3881,-20.6022 36.4553,-29.9068 41.1517,-24.716"/>
</g>
<!-- Node8 -->
<g id="node8" class="node">
<title>Node8</title>
<g id="a_node8"><a xlink:href="Date_8h.html" target="_top" xlink:title="Arquivo de declaração da classe Date. ">
<polygon fill="white" stroke="black" points="60.4955,-.5 60.4955,-20.5 105.9495,-20.5 105.9495,-.5 60.4955,-.5"/>
<text text-anchor="middle" x="83.2225" y="-7.5" font-family="Helvetica,sans-Serif" font-size="10.00">Date.h</text>
</a>
</g>
</g>
<!-- Node7&#45;&gt;Node8 -->
<g id="edge9" class="edge">
<title>Node7&#45;&gt;Node8</title>
<path fill="none" stroke="midnightblue" d="M83.2225,-57.3095C83.2225,-49.9335 83.2225,-39.72 83.2225,-30.715"/>
<polygon fill="midnightblue" stroke="midnightblue" points="86.7226,-30.6022 83.2225,-20.6022 79.7226,-30.6023 86.7226,-30.6022"/>
</g>
<!-- Node12&#45;&gt;Node4 -->
<g id="edge15" class="edge">
<title>Node12&#45;&gt;Node4</title>
<path fill="none" stroke="midnightblue" d="M239.5525,-171.3095C245.2079,-163.4472 253.1823,-152.3608 259.9509,-142.9507"/>
<polygon fill="midnightblue" stroke="midnightblue" points="262.958,-144.7641 265.956,-134.6022 257.2753,-140.6765 262.958,-144.7641"/>
</g>
<!-- Node12&#45;&gt;Node5 -->
<g id="edge16" class="edge">
<title>Node12&#45;&gt;Node5</title>
<path fill="none" stroke="midnightblue" d="M219.4378,-171.3316C192.8691,-148.9967 136.6136,-94.6499 167.2225,-57 190.4839,-28.3878 298.1865,-16.786 354.9658,-12.5949"/>
<polygon fill="midnightblue" stroke="midnightblue" points="355.5416,-16.0633 365.2731,-11.8744 355.0534,-9.0804 355.5416,-16.0633"/>
</g>
<!-- Node13&#45;&gt;Node4 -->
<g id="edge18" class="edge">
<title>Node13&#45;&gt;Node4</title>
<path fill="none" stroke="midnightblue" d="M306.8925,-171.3095C301.2371,-163.4472 293.2627,-152.3608 286.4941,-142.9507"/>
<polygon fill="midnightblue" stroke="midnightblue" points="289.1697,-140.6765 280.489,-134.6022 283.487,-144.7641 289.1697,-140.6765"/>
</g>
<!-- Node13&#45;&gt;Node5 -->
<g id="edge19" class="edge">
<title>Node13&#45;&gt;Node5</title>
<path fill="none" stroke="midnightblue" d="M325.2656,-171.3547C343.0408,-154.1853 377.3095,-117.4027 390.2225,-78 395.1835,-62.862 394.8759,-44.7679 393.4961,-31.1256"/>
<polygon fill="midnightblue" stroke="midnightblue" points="396.9249,-30.3472 392.1771,-20.8757 389.9821,-31.2407 396.9249,-30.3472"/>
</g>
</g>
</svg>
