<?xml version="1.0" encoding="UTF-8" standalone="no"?>
<!DOCTYPE svg PUBLIC "-//W3C//DTD SVG 1.1//EN"
 "http://www.w3.org/Graphics/SVG/1.1/DTD/svg11.dtd">
<!-- Generated by graphviz version 2.41.20170704.2329 (20170704.2329)
 -->
<!-- Title: main.cpp Pages: 1 -->
<svg width="436pt" height="257pt"
 viewBox="0.00 0.00 436.11 257.00" xmlns="http://www.w3.org/2000/svg" xmlns:xlink="http://www.w3.org/1999/xlink">
<g id="graph0" class="graph" transform="scale(1 1) rotate(0) translate(4 253)">
<title>main.cpp</title>
<polygon fill="white" stroke="transparent" points="-4,4 -4,-253 432.113,-253 432.113,4 -4,4"/>
<!-- Node1 -->
<g id="node1" class="node">
<title>Node1</title>
<polygon fill="#bfbfbf" stroke="black" points="226.941,-228.5 226.941,-248.5 283.504,-248.5 283.504,-228.5 226.941,-228.5"/>
<text text-anchor="middle" x="255.2225" y="-235.5" font-family="Helvetica,sans-Serif" font-size="10.00">main.cpp</text>
</g>
<!-- Node2 -->
<g id="node2" class="node">
<title>Node2</title>
<polygon fill="white" stroke="#bfbfbf" points="104.056,-171.5 104.056,-191.5 158.389,-191.5 158.389,-171.5 104.056,-171.5"/>
<text text-anchor="middle" x="131.2225" y="-178.5" font-family="Helvetica,sans-Serif" font-size="10.00">iostream</text>
</g>
<!-- Node1&#45;&gt;Node2 -->
<g id="edge1" class="edge">
<title>Node1&#45;&gt;Node2</title>
<path fill="none" stroke="midnightblue" d="M233.3392,-228.4408C213.7163,-219.4205 184.6975,-206.0813 162.6044,-195.9255"/>
<polygon fill="midnightblue" stroke="midnightblue" points="163.852,-192.647 153.3041,-191.6504 160.9283,-199.0072 163.852,-192.647"/>
</g>
<!-- Node3 -->
<g id="node3" class="node">
<title>Node3</title>
<g id="a_node3"><a xlink:href="FileSequential_8h.html" target="_top" xlink:title="Arquivo de declaração da classe FileSequential. ">
<polygon fill="white" stroke="black" points="258.3805,-171.5 258.3805,-191.5 346.0645,-191.5 346.0645,-171.5 258.3805,-171.5"/>
<text text-anchor="middle" x="302.2225" y="-178.5" font-family="Helvetica,sans-Serif" font-size="10.00">FileSequential.h</text>
</a>
</g>
</g>
<!-- Node1&#45;&gt;Node3 -->
<g id="edge2" class="edge">
<title>Node1&#45;&gt;Node3</title>
<path fill="none" stroke="midnightblue" d="M263.6252,-228.3095C270.2418,-220.2851 279.6277,-208.9022 287.4869,-199.3708"/>
<polygon fill="midnightblue" stroke="midnightblue" points="290.2311,-201.5443 293.8926,-191.6022 284.8303,-197.091 290.2311,-201.5443"/>
</g>
<!-- Node11 -->
<g id="node11" class="node">
<title>Node11</title>
<g id="a_node11"><a xlink:href="FileHash_8h.html" target="_top" xlink:title="Arquivo de declaração da classe FileHash. ">
<polygon fill="white" stroke="black" points="364.332,-171.5 364.332,-191.5 428.113,-191.5 428.113,-171.5 364.332,-171.5"/>
<text text-anchor="middle" x="396.2225" y="-178.5" font-family="Helvetica,sans-Serif" font-size="10.00">FileHash.h</text>
</a>
</g>
</g>
<!-- Node1&#45;&gt;Node11 -->
<g id="edge13" class="edge">
<title>Node1&#45;&gt;Node11</title>
<path fill="none" stroke="midnightblue" d="M280.1059,-228.4408C302.7193,-219.2992 336.306,-205.7216 361.5478,-195.5174"/>
<polygon fill="midnightblue" stroke="midnightblue" points="363.1543,-198.6433 371.1136,-191.6504 360.5307,-192.1535 363.1543,-198.6433"/>
</g>
<!-- Node12 -->
<g id="node12" class="node">
<title>Node12</title>
<g id="a_node12"><a xlink:href="FileHeap_8h.html" target="_top" xlink:title="Arquivo de declaração da classe FileHeap. ">
<polygon fill="white" stroke="black" points="176.0525,-171.5 176.0525,-191.5 240.3925,-191.5 240.3925,-171.5 176.0525,-171.5"/>
<text text-anchor="middle" x="208.2225" y="-178.5" font-family="Helvetica,sans-Serif" font-size="10.00">FileHeap.h</text>
</a>
</g>
</g>
<!-- Node1&#45;&gt;Node12 -->
<g id="edge16" class="edge">
<title>Node1&#45;&gt;Node12</title>
<path fill="none" stroke="midnightblue" d="M246.8198,-228.3095C240.2032,-220.2851 230.8173,-208.9022 222.9581,-199.3708"/>
<polygon fill="midnightblue" stroke="midnightblue" points="225.6147,-197.091 216.5524,-191.6022 220.2139,-201.5443 225.6147,-197.091"/>
</g>
<!-- Node4 -->
<g id="node4" class="node">
<title>Node4</title>
<g id="a_node4"><a xlink:href="File_8h.html" target="_top" xlink:title="Arquivo de declaração da classe File. ">
<polygon fill="white" stroke="black" points="219.0005,-114.5 219.0005,-134.5 259.4445,-134.5 259.4445,-114.5 219.0005,-114.5"/>
<text text-anchor="middle" x="239.2225" y="-121.5" font-family="Helvetica,sans-Serif" font-size="10.00">File.h</text>
</a>
</g>
</g>
<!-- Node3&#45;&gt;Node4 -->
<g id="edge3" class="edge">
<title>Node3&#45;&gt;Node4</title>
<path fill="none" stroke="midnightblue" d="M290.9594,-171.3095C281.8214,-163.0419 268.7433,-151.2093 258.0225,-141.5096"/>
<polygon fill="midnightblue" stroke="midnightblue" points="260.1517,-138.716 250.3881,-134.6022 255.4553,-143.9068 260.1517,-138.716"/>
</g>
<!-- Node5 -->
<g id="node5" class="node">
<title>Node5</title>
<polygon fill="white" stroke="#bfbfbf" points="302.5555,-.5 302.5555,-20.5 351.8895,-20.5 351.8895,-.5 302.5555,-.5"/>
<text text-anchor="middle" x="327.2225" y="-7.5" font-family="Helvetica,sans-Serif" font-size="10.00">fstream</text>
</g>
<!-- Node3&#45;&gt;Node5 -->
<g id="edge12" class="edge">
<title>Node3&#45;&gt;Node5</title>
<path fill="none" stroke="midnightblue" d="M305.5227,-171.3634C311.3104,-152.9952 323.0701,-112.8761 327.2225,-78 329.1059,-62.1815 328.9891,-44.1297 328.4653,-30.6766"/>
<polygon fill="midnightblue" stroke="midnightblue" points="331.957,-30.4214 327.9645,-20.6076 324.9656,-30.7692 331.957,-30.4214"/>
</g>
<!-- Node4&#45;&gt;Node5 -->
<g id="edge4" class="edge">
<title>Node4&#45;&gt;Node5</title>
<path fill="none" stroke="midnightblue" d="M259.6478,-115.5881C275.1592,-107.8112 295.8639,-95.0901 308.2225,-78 318.2421,-64.1443 322.9865,-45.174 325.2282,-30.8721"/>
<polygon fill="midnightblue" stroke="midnightblue" points="328.7462,-30.953 326.5423,-20.59 321.8027,-30.0656 328.7462,-30.953"/>
</g>
<!-- Node6 -->
<g id="node6" class="node">
<title>Node6</title>
<polygon fill="white" stroke="#bfbfbf" points="0,-.5 0,-20.5 40.445,-20.5 40.445,-.5 0,-.5"/>
<text text-anchor="middle" x="20.2225" y="-7.5" font-family="Helvetica,sans-Serif" font-size="10.00">string</text>
</g>
<!-- Node4&#45;&gt;Node6 -->
<g id="edge5" class="edge">
<title>Node4&#45;&gt;Node6</title>
<path fill="none" stroke="midnightblue" d="M218.8345,-122.4881C172.85,-117.5415 63.0565,-103.3106 37.2225,-78 24.8408,-65.8691 20.9971,-46.1412 20.0108,-31.138"/>
<polygon fill="midnightblue" stroke="midnightblue" points="23.4996,-30.6875 19.7195,-20.79 16.5024,-30.8845 23.4996,-30.6875"/>
</g>
<!-- Node7 -->
<g id="node7" class="node">
<title>Node7</title>
<g id="a_node7"><a xlink:href="FileHeader_8h.html" target="_top" xlink:title="Arquivo de declaração da classe FileHeader. ">
<polygon fill="white" stroke="black" points="46.6085,-57.5 46.6085,-77.5 119.8365,-77.5 119.8365,-57.5 46.6085,-57.5"/>
<text text-anchor="middle" x="83.2225" y="-64.5" font-family="Helvetica,sans-Serif" font-size="10.00">FileHeader.h</text>
</a>
</g>
</g>
<!-- Node4&#45;&gt;Node7 -->
<g id="edge6" class="edge">
<title>Node4&#45;&gt;Node7</title>
<path fill="none" stroke="midnightblue" d="M218.8282,-117.0482C193.8627,-107.9262 151.108,-92.3043 120.272,-81.0373"/>
<polygon fill="midnightblue" stroke="midnightblue" points="121.3105,-77.6905 110.7167,-77.546 118.9081,-84.2654 121.3105,-77.6905"/>
</g>
<!-- Node9 -->
<g id="node9" class="node">
<title>Node9</title>
<g id="a_node9"><a xlink:href="Block_8h.html" target="_top" xlink:title="Arquivo de declaração da classe Block. ">
<polygon fill="white" stroke="black" points="175.83,-57.5 175.83,-77.5 224.615,-77.5 224.615,-57.5 175.83,-57.5"/>
<text text-anchor="middle" x="200.2225" y="-64.5" font-family="Helvetica,sans-Serif" font-size="10.00">Block.h</text>
</a>
</g>
</g>
<!-- Node4&#45;&gt;Node9 -->
<g id="edge10" class="edge">
<title>Node4&#45;&gt;Node9</title>
<path fill="none" stroke="midnightblue" d="M232.2501,-114.3095C226.8706,-106.4472 219.2851,-95.3608 212.8467,-85.9507"/>
<polygon fill="midnightblue" stroke="midnightblue" points="215.67,-83.8789 207.1346,-77.6022 209.8929,-87.8317 215.67,-83.8789"/>
</g>
<!-- Node10 -->
<g id="node10" class="node">
<title>Node10</title>
<g id="a_node10"><a xlink:href="Record_8h.html" target="_top" xlink:title="Arquivo de declaração da classe Record. ">
<polygon fill="white" stroke="black" points="242.941,-57.5 242.941,-77.5 299.504,-77.5 299.504,-57.5 242.941,-57.5"/>
<text text-anchor="middle" x="271.2225" y="-64.5" font-family="Helvetica,sans-Serif" font-size="10.00">Record.h</text>
</a>
</g>
</g>
<!-- Node4&#45;&gt;Node10 -->
<g id="edge11" class="edge">
<title>Node4&#45;&gt;Node10</title>
<path fill="none" stroke="midnightblue" d="M244.9435,-114.3095C249.2664,-106.6093 255.3255,-95.8166 260.5363,-86.5349"/>
<polygon fill="midnightblue" stroke="midnightblue" points="263.7076,-88.0355 265.5511,-77.6022 257.6037,-84.6087 263.7076,-88.0355"/>
</g>
<!-- Node7&#45;&gt;Node5 -->
<g id="edge7" class="edge">
<title>Node7&#45;&gt;Node5</title>
<path fill="none" stroke="midnightblue" d="M120.016,-58.9048C166.8015,-47.9754 246.9786,-29.2455 292.6684,-18.5721"/>
<polygon fill="midnightblue" stroke="midnightblue" points="293.4722,-21.9786 302.4138,-16.2955 291.8798,-15.1621 293.4722,-21.9786"/>
</g>
<!-- Node7&#45;&gt;Node6 -->
<g id="edge8" class="edge">
<title>Node7&#45;&gt;Node6</title>
<path fill="none" stroke="midnightblue" d="M71.9594,-57.3095C62.8214,-49.0419 49.7433,-37.2093 39.0225,-27.5096"/>
<polygon fill="midnightblue" stroke="midnightblue" points="41.1517,-24.716 31.3881,-20.6022 36.4553,-29.9068 41.1517,-24.716"/>
</g>
<!-- Node8 -->
<g id="node8" class="node">
<title>Node8</title>
<g id="a_node8"><a xlink:href="Date_8h.html" target="_top" xlink:title="Arquivo de declaração da classe Date. ">
<polygon fill="white" stroke="black" points="60.4955,-.5 60.4955,-20.5 105.9495,-20.5 105.9495,-.5 60.4955,-.5"/>
<text text-anchor="middle" x="83.2225" y="-7.5" font-family="Helvetica,sans-Serif" font-size="10.00">Date.h</text>
</a>
</g>
</g>
<!-- Node7&#45;&gt;Node8 -->
<g id="edge9" class="edge">
<title>Node7&#45;&gt;Node8</title>
<path fill="none" stroke="midnightblue" d="M83.2225,-57.3095C83.2225,-49.9335 83.2225,-39.72 83.2225,-30.715"/>
<polygon fill="midnightblue" stroke="midnightblue" points="86.7226,-30.6022 83.2225,-20.6022 79.7226,-30.6023 86.7226,-30.6022"/>
</g>
<!-- Node11&#45;&gt;Node4 -->
<g id="edge14" class="edge">
<title>Node11&#45;&gt;Node4</title>
<path fill="none" stroke="midnightblue" d="M368.5155,-171.4408C340.6394,-161.3201 297.7876,-145.7625 269.1478,-135.3646"/>
<polygon fill="midnightblue" stroke="midnightblue" points="270.2523,-132.0421 259.6582,-131.9193 267.8634,-138.6219 270.2523,-132.0421"/>
</g>
<!-- Node11&#45;&gt;Node5 -->
<g id="edge15" class="edge">
<title>Node11&#45;&gt;Node5</title>
<path fill="none" stroke="midnightblue" d="M392.1129,-171.3153C380.9696,-143.6992 350.0278,-67.0174 335.2628,-30.426"/>
<polygon fill="midnightblue" stroke="midnightblue" points="338.3856,-28.8114 331.3978,-20.8476 331.8941,-31.4308 338.3856,-28.8114"/>
</g>
<!-- Node12&#45;&gt;Node4 -->
<g id="edge17" class="edge">
<title>Node12&#45;&gt;Node4</title>
<path fill="none" stroke="midnightblue" d="M213.7647,-171.3095C217.9525,-163.6093 223.8222,-152.8166 228.8702,-143.5349"/>
<polygon fill="midnightblue" stroke="midnightblue" points="232.0252,-145.0593 233.7283,-134.6022 225.8758,-141.7149 232.0252,-145.0593"/>
</g>
<!-- Node12&#45;&gt;Node5 -->
<g id="edge18" class="edge">
<title>Node12&#45;&gt;Node5</title>
<path fill="none" stroke="midnightblue" d="M199.2724,-171.4589C180.2921,-148.9126 139.8973,-93.3972 167.2225,-57 182.2642,-36.9645 250.2034,-22.7532 292.5693,-15.6573"/>
<polygon fill="midnightblue" stroke="midnightblue" points="293.1733,-19.1051 302.4833,-14.0479 292.0516,-12.1956 293.1733,-19.1051"/>
</g>
</g>
</svg>
